<svg width="23" height="24" viewBox="0 0 23 24" fill="none" xmlns="http://www.w3.org/2000/svg">
<path fill-rule="evenodd" clip-rule="evenodd" d="M6 2.75V4H7.5V2.75H14.5V4H16V2.75H20.75C20.8881 2.75 21 2.86193 21 3V7.75H1.5V3C1.5 2.86193 1.61193 2.75 1.75 2.75H6ZM6 1.25H1.75C0.783502 1.25 0 2.0335 0 3V19.5C0 21.5711 1.67893 23.25 3.75 23.25H14.75H15.0607L15.2803 23.0303L22.2803 16.0303L22.5 15.8107V15.5V3C22.5 2.0335 21.7165 1.25 20.75 1.25H16V0H14.5V1.25H7.5V0H6V1.25ZM1.5 9.25V19.5C1.5 20.7426 2.50736 21.75 3.75 21.75H12.5V17.5C12.5 15.4289 14.1789 13.75 16.25 13.75H21V9.25H1.5ZM20.9393 15.25H16.25C15.0074 15.25 14 16.2574 14 17.5V21.75H14.4393L20.9393 15.25Z" fill="black"/>
</svg>
