<svg width="59" height="59" viewBox="0 0 59 59" fill="none" xmlns="http://www.w3.org/2000/svg">
<path d="M58.1238 37.1178V37.903C58.1234 40.3293 56.2863 42.3613 53.8723 42.6055C53.7243 42.6199 53.5751 42.628 53.4237 42.6292H53.3976C52.6725 42.6289 51.9768 42.9167 51.4638 43.4292C50.9509 43.9418 50.6625 44.6372 50.6622 45.3624V49.4583C50.6623 51.0059 49.7021 52.3911 48.2528 52.9339C48.1064 52.9893 47.9565 53.0348 47.8041 53.0703C47.5246 53.1363 47.2384 53.1694 46.9513 53.1692H5.94245C3.11563 53.1692 0.824219 51.3236 0.824219 47.6497C0.824355 47.4391 0.837098 47.2286 0.86238 47.0195C1.18145 44.4563 3.35953 42.5321 5.94245 42.5315H7.29717C8.02224 42.5319 8.71775 42.2442 9.23051 41.7315C9.74327 41.2189 10.0312 40.5234 10.0309 39.7983V38.7865C10.0308 36.1496 11.6489 33.7828 14.1061 32.8258C14.2529 32.768 14.4025 32.7162 14.5547 32.6703C15.0686 32.5127 15.6003 32.4212 16.1373 32.3979C16.2333 32.3933 16.3298 32.3916 16.4264 32.3916C17.9205 32.3699 19.1203 31.1524 19.1203 29.6581C19.1203 28.1639 17.9205 26.9464 16.4264 26.9247H9.4209C9.25784 26.9247 9.09595 26.9178 8.93637 26.905C8.77678 26.8923 8.63512 26.8738 8.4871 26.8472C5.70601 26.389 3.66552 23.9847 3.66552 21.1661C3.66552 18.3475 5.70601 15.9433 8.4871 15.485C8.63512 15.4602 8.7843 15.4422 8.93637 15.4301C9.08843 15.4179 9.25727 15.4093 9.4209 15.4093H18.191C18.916 15.4093 19.6113 15.1212 20.1239 14.6086C20.6365 14.0959 20.9243 13.4005 20.9242 12.6755C20.9248 11.0629 22.1518 9.71516 23.7574 9.56367C23.8539 9.55442 23.9516 9.5498 24.0511 9.5498H24.8658C25.0245 9.54993 25.183 9.53619 25.3393 9.50874C25.4919 9.48282 25.6419 9.44413 25.788 9.3931C25.9162 9.34721 26.0407 9.29154 26.1604 9.22658C26.7023 8.93407 27.13 8.46768 27.3746 7.9025C27.5053 7.6005 27.5799 7.27722 27.5949 6.94848C27.5949 6.90569 27.5978 6.86175 27.5978 6.81838V6.42578C27.5984 4.91634 28.8221 3.69295 30.3315 3.69263H46.1638C46.9706 3.69126 47.7365 4.04765 48.2551 4.66574L48.2592 4.66979C48.6713 5.16198 48.8965 5.78382 48.8952 6.42578V6.81838V6.94848C48.8796 7.27725 48.8046 7.60047 48.6737 7.9025C48.4289 8.4675 48.0013 8.93382 47.4595 9.22658C47.0614 9.44109 46.616 9.55297 46.1638 9.55211H44.9571C44.0146 9.5534 43.1389 10.0388 42.6385 10.8374C42.5077 11.045 42.406 11.2695 42.3361 11.5047C42.2598 11.7579 42.2208 12.0208 42.2205 12.2853V12.6779C42.2193 13.0585 42.2981 13.4351 42.4517 13.7834C42.5038 13.9018 42.5645 14.0162 42.6333 14.1257C43.1318 14.9264 44.0086 15.4127 44.9519 15.4116H52.3673C52.7216 15.4111 53.0752 15.4433 53.4237 15.5076C53.5751 15.5353 53.7247 15.5692 53.8723 15.6093C56.3817 16.2897 58.1239 18.5671 58.1239 21.167C58.1239 23.7669 56.3817 26.0443 53.8723 26.7246C53.7251 26.7651 53.5755 26.7992 53.4237 26.827C53.0752 26.8915 52.7216 26.9238 52.3673 26.9236H48.7824C48.6046 26.9235 48.4272 26.941 48.2528 26.9756C48.0997 27.0048 47.9495 27.0478 47.8041 27.1039C47.5308 27.2093 47.2761 27.3576 47.0496 27.5434C46.4157 28.0619 46.0485 28.8378 46.0493 29.6567V29.7145C46.0729 30.8252 46.7663 31.8111 47.8036 32.2089C48.1167 32.3293 48.4493 32.391 48.7848 32.391H53.4237C53.5751 32.391 53.7247 32.3989 53.8723 32.4147C54.1593 32.4431 54.4431 32.4979 54.72 32.5783C54.7605 32.5899 54.7998 32.6026 54.8397 32.6154C56.7966 33.2429 58.124 35.0627 58.1238 37.1178Z" fill="#F3F4FE"/>
<path d="M8.93657 15.4324V26.905C8.7845 26.8923 8.63532 26.8738 8.4873 26.8472V15.4873C8.63532 15.4624 8.7845 15.4445 8.93657 15.4324Z" fill="#EDEEFE"/>
<path d="M8.93657 41.9845V52.7679H8.4873V42.258C8.64546 42.1814 8.7959 42.0898 8.93657 41.9845V41.9845Z" fill="#EDEEFE"/>
<path d="M14.1045 15.4116H14.5538V26.9247H14.1045V15.4116Z" fill="#EDEEFE"/>
<path d="M14.5532 32.6703V52.7679H14.1045V32.8258C14.2514 32.7672 14.4009 32.7154 14.5532 32.6703Z" fill="#EDEEFE"/>
<path d="M20.1704 14.5634V52.7679H19.7217V14.9427C19.8844 14.8327 20.0349 14.7055 20.1704 14.5634Z" fill="#EDEEFE"/>
<path d="M25.7878 9.39307V52.7679H25.3374V9.51102C25.4906 9.48443 25.6413 9.44498 25.7878 9.39307Z" fill="#EDEEFE"/>
<path d="M30.9556 3.69263H31.4048V52.7679H30.9556V3.69263Z" fill="#EDEEFE"/>
<path d="M36.5723 3.69263H37.0221V52.7679H36.5723V3.69263Z" fill="#EDEEFE"/>
<path d="M42.2236 12.2853V12.6779C42.2233 12.7972 42.2311 12.9163 42.2467 13.0346C42.2972 13.4223 42.431 13.7945 42.6387 14.1257V52.7679H42.1895V3.69263H42.6387V10.8374C42.3667 11.2713 42.2228 11.7732 42.2236 12.2853Z" fill="#EDEEFE"/>
<path d="M48.2553 4.6657V8.57838C48.1227 8.73694 47.9722 8.87955 47.8066 9.00336V4.24072C47.972 4.36468 48.1226 4.50728 48.2553 4.6657Z" fill="#EDEEFE"/>
<path d="M48.2553 15.4116V26.9756C48.1022 27.0048 47.952 27.0478 47.8066 27.104V15.4116L48.2553 15.4116Z" fill="#EDEEFE"/>
<path d="M47.8066 32.2112C47.9523 32.2668 48.1024 32.3099 48.2553 32.3401V52.5326C48.109 52.5882 47.9591 52.6338 47.8066 52.6691V32.2112Z" fill="#EDEEFE"/>
<path d="M53.8725 15.6105V26.7246C53.7253 26.7651 53.5757 26.7992 53.4238 26.827V15.5076C53.5753 15.5361 53.7249 15.5704 53.8725 15.6105Z" fill="#EDEEFE"/>
<path d="M53.4238 32.391C53.5753 32.391 53.7249 32.3989 53.8725 32.4147V42.6055C53.7245 42.6199 53.5753 42.628 53.4238 42.6292V32.391Z" fill="#EDEEFE"/>
<path d="M26.9626 20.8796V21.8481L26.2358 22.2951V20.8796H26.9626Z" fill="#D2D6FA"/>
<path d="M18.741 20.8796V22.2951L18.0137 21.8481V20.8796H18.741Z" fill="#D2D6FA"/>
<path d="M16.5597 20.8796H28L28.3469 20.0337H16.2134L16.5597 20.8796Z" fill="#D2D6FA"/>
<path d="M18.0142 20.8796H18.7415V21.3017H18.0142V20.8796Z" fill="#BEC4ED"/>
<path d="M26.2363 20.8796H26.9631V21.3017H26.2363V20.8796Z" fill="#BEC4ED"/>
<path d="M18.4383 14.4501H18.8031C19.0698 14.4501 19.2859 14.6662 19.2859 14.9329V20.0338H17.9561V14.9329C17.9561 14.6665 18.1719 14.4504 18.4383 14.4501V14.4501Z" fill="#ADB6E0"/>
<circle cx="18.6209" cy="17.0208" r="0.35964" fill="#D2D6FA"/>
<path d="M20.0229 15.5995H20.4929C20.7305 15.5995 20.9231 15.7921 20.9231 16.0297V20.0337H19.5933V16.0279C19.5942 15.7913 19.7862 15.5998 20.0229 15.5995Z" fill="#ADB6E0"/>
<circle cx="20.2581" cy="17.9204" r="0.35964" fill="#D2D6FA"/>
<path d="M21.5355 17.1334H21.8431C21.9986 17.1334 22.1247 17.2595 22.1247 17.415V20.0343H21.2539V17.4156C21.2539 17.2601 21.38 17.134 21.5355 17.134V17.1334Z" fill="#ADB6E0"/>
<ellipse cx="21.6889" cy="18.6512" rx="0.235327" ry="0.235328" fill="#D2D6FA"/>
<path d="M25.3203 14.1315H27.1202C27.1679 14.1315 27.2137 14.1504 27.2474 14.1841C27.2811 14.2179 27.3001 14.2636 27.3001 14.3113V20.0222H25.3203V14.1315Z" fill="#93A0CE"/>
<path d="M25.1911 14.1315H26.9905V20.0227H25.0107V14.3113C25.0107 14.2635 25.0298 14.2177 25.0636 14.1839C25.0975 14.1502 25.1433 14.1313 25.1911 14.1315Z" fill="#ADB6E0"/>
<circle cx="25.9734" cy="15.1028" r="0.475859" fill="#93A0CE"/>
<circle cx="25.9735" cy="15.1029" r="0.215669" fill="#D2D6FA"/>
<circle cx="25.9734" cy="16.9173" r="0.475859" fill="#93A0CE"/>
<circle cx="25.9735" cy="16.9172" r="0.215669" fill="#D2D6FA"/>
<circle cx="25.9737" cy="19.126" r="0.773053" fill="#93A0CE"/>
<circle cx="25.9735" cy="19.126" r="0.350967" fill="#D2D6FA"/>
<rect x="52.9297" y="53.1248" width="4.66376" height="1.10899" rx="0.554493" fill="#D2D6FA"/>
<rect x="1.47461" y="53.1248" width="51.0036" height="1.10899" rx="0.554493" fill="#D2D6FA"/>
<path d="M44.896 33.559H50.8515C51.1804 33.559 51.447 33.8256 51.447 34.1545V53.0466H44.896V33.5613V33.559Z" fill="#6675AD"/>
<path d="M44.4696 33.559H50.425V53.0443H43.874V34.1545C43.874 33.8256 44.1407 33.559 44.4696 33.559Z" fill="#7986BF"/>
<ellipse cx="47.0592" cy="36.7726" rx="1.57386" ry="1.57386" fill="#6675AD"/>
<circle cx="47.0593" cy="36.7725" r="0.714077" fill="#F3F4FE"/>
<ellipse cx="47.0592" cy="42.7749" rx="1.57386" ry="1.57386" fill="#6675AD"/>
<circle cx="47.0593" cy="42.7749" r="0.714077" fill="#F3F4FE"/>
<circle cx="47.0593" cy="50.0811" r="2.55738" fill="#6675AD"/>
<ellipse cx="47.0594" cy="50.0811" rx="1.16045" ry="1.16045" fill="#F3F4FE"/>
<path d="M22.0333 26.2921L23.3406 31.0334L23.4291 31.356L23.2892 31.3976L19.2181 32.5985C19.0741 32.6405 18.9269 32.6705 18.778 32.6882C18.7526 32.6911 18.7272 32.6939 18.7023 32.6957C18.6774 32.6974 18.6445 32.7003 18.6156 32.702H18.5323C18.5069 32.702 18.4814 32.702 18.4548 32.702C18.3907 32.702 18.3259 32.6991 18.2629 32.6939C18.2374 32.6939 18.2114 32.6893 18.1871 32.6864C18.149 32.6824 18.1114 32.6772 18.0744 32.6714L18.0015 32.6587C17.9558 32.6506 17.9102 32.6419 17.8656 32.6303C17.2707 32.4876 16.7438 32.1426 16.375 31.6543C16.3548 31.6266 16.3352 31.5965 16.3172 31.5705C16.1994 31.3979 16.1024 31.2119 16.0281 31.0166C16.0033 30.9501 15.9801 30.8824 15.9599 30.8125C15.9397 30.7425 15.9264 30.6893 15.9136 30.6275C15.6274 29.286 16.4227 27.9505 17.7384 27.563L22.0333 26.2921Z" fill="#E07373"/>
<path d="M19.4675 31.2207C19.3977 31.3742 19.309 31.5184 19.2033 31.6497C18.9213 32.004 18.5295 32.2546 18.0897 32.3621C18.0631 32.3696 18.0359 32.3754 18.0081 32.3806C17.9503 32.3922 17.8977 32.4002 17.8422 32.4072C17.8283 32.4072 17.8139 32.4107 17.7988 32.4118C17.7838 32.413 17.7601 32.4159 17.741 32.417C17.6854 32.4214 17.6296 32.423 17.5739 32.4216C17.5531 32.4216 17.5323 32.4216 17.512 32.4216C17.4617 32.4216 17.4114 32.4164 17.3605 32.4107L17.29 32.4008C17.2229 32.391 17.1563 32.3777 17.0905 32.3609C17.0634 32.354 17.0356 32.3465 17.009 32.3378C16.9824 32.3291 16.9541 32.321 16.9275 32.3118C16.9009 32.3025 16.8743 32.2927 16.8471 32.2823C16.8199 32.2719 16.7939 32.2609 16.7679 32.2488C16.7419 32.2366 16.7147 32.2251 16.6887 32.2118C16.5564 32.1464 16.4315 32.0669 16.3163 31.9747L15.634 31.4295L11.4253 28.0637C11.3582 28.0098 11.2942 27.9518 11.2339 27.8903C11.2079 27.8631 11.1825 27.8354 11.1582 27.8082C11.1339 27.781 11.1004 27.7417 11.0761 27.707C11.057 27.6821 11.0391 27.6573 11.0183 27.6313C10.9974 27.6017 10.9781 27.571 10.9605 27.5393C10.946 27.5179 10.9339 27.4965 10.9211 27.474C10.9182 27.4707 10.9162 27.4667 10.9154 27.4624C10.9033 27.4438 10.8923 27.4245 10.8824 27.4046C10.8627 27.3676 10.8448 27.3306 10.828 27.2924C10.8223 27.2786 10.8159 27.2653 10.8107 27.2508C10.8055 27.2363 10.7951 27.2132 10.7887 27.193C10.7887 27.193 10.7887 27.193 10.7887 27.1884C10.7789 27.1635 10.7702 27.1381 10.7621 27.1126C10.7385 27.0441 10.7192 26.9742 10.7043 26.9033C10.6989 26.8843 10.6947 26.865 10.6916 26.8455C10.6823 26.7986 10.676 26.7524 10.6696 26.7056L10.6627 26.6379C10.6618 26.6281 10.6618 26.6182 10.6627 26.6084C10.6627 26.5853 10.6592 26.5616 10.6586 26.5385C10.6581 26.5153 10.6586 26.4841 10.6586 26.4569C10.6581 26.4545 10.6581 26.4519 10.6586 26.4494C10.6586 26.4234 10.6586 26.3962 10.6586 26.3708C10.6586 26.3453 10.6621 26.313 10.6638 26.2864C10.6681 26.2301 10.6752 26.1742 10.6852 26.1187C10.6852 26.1002 10.6922 26.0799 10.6962 26.0609C10.8371 25.3585 11.3335 24.7801 12.0064 24.5343C12.6792 24.2886 13.4315 24.4108 13.992 24.8571L18.8829 28.7657C19.6165 29.3539 19.8573 30.365 19.4675 31.2207Z" fill="#EDBA70"/>
<path d="M19.4675 31.2208C19.3977 31.3743 19.309 31.5184 19.2033 31.6498C18.9213 32.0041 18.5295 32.2546 18.0897 32.3621C18.0631 32.3697 18.0359 32.3754 18.0081 32.3806C17.9538 32.3922 17.8983 32.4009 17.8422 32.4072C17.8283 32.4072 17.8139 32.4107 17.7988 32.4119C17.7838 32.413 17.7601 32.4159 17.741 32.4171C17.6854 32.4215 17.6296 32.423 17.5739 32.4217C17.5531 32.4217 17.5323 32.4217 17.512 32.4217C17.4617 32.4217 17.4114 32.4165 17.3605 32.4107L17.29 32.4009C17.2229 32.3911 17.1563 32.3778 17.0905 32.361C17.0634 32.354 17.0356 32.3465 17.009 32.3379C16.9824 32.3292 16.9541 32.3211 16.9275 32.3118C16.9009 32.3026 16.8743 32.2928 16.8471 32.2823C16.8199 32.2719 16.7939 32.261 16.7679 32.2488C16.7419 32.2367 16.7147 32.2251 16.6887 32.2118C16.6719 32.2043 16.6563 32.1962 16.6401 32.1881L16.6222 32.1794C16.5863 32.1638 16.5516 32.1482 16.517 32.1309C16.4823 32.1135 16.4557 32.1002 16.425 32.0834L16.4019 32.0701L16.3117 32.0187C16.2961 32.0077 16.2799 31.9984 16.2649 31.9886C16.2331 31.9684 16.2018 31.9481 16.1712 31.9268L16.1278 31.8955C16.0983 31.8736 16.07 31.8522 16.0388 31.8285C15.996 31.7955 15.9549 31.7597 15.9133 31.7226C15.8607 31.6752 15.8098 31.6255 15.7595 31.5729C15.7092 31.5203 15.6739 31.4781 15.634 31.4295L11.4253 28.0638C11.3582 28.0098 11.2942 27.9519 11.2339 27.8903C11.2079 27.8632 11.1825 27.8354 11.1582 27.8082C11.1339 27.7811 11.1004 27.7417 11.0761 27.707C11.057 27.6822 11.0391 27.6573 11.0183 27.6313C10.9974 27.6017 10.9781 27.571 10.9605 27.5394C10.946 27.518 10.9339 27.4966 10.9211 27.474C10.9182 27.4708 10.9162 27.4668 10.9154 27.4625C10.9033 27.4438 10.8923 27.4245 10.8824 27.4046C10.8627 27.3676 10.8448 27.3306 10.828 27.2925C10.8223 27.2786 10.8159 27.2653 10.8107 27.2508C10.8055 27.2364 10.7951 27.2133 10.7887 27.193C10.7887 27.193 10.7887 27.193 10.7887 27.1884C10.7789 27.1635 10.7702 27.1381 10.7621 27.1127C10.7385 27.0442 10.7192 26.9742 10.7043 26.9034C10.6989 26.8843 10.6947 26.865 10.6916 26.8455C10.6823 26.7987 10.6748 26.7524 10.6696 26.7056L10.6627 26.638C10.6618 26.6281 10.6618 26.6183 10.6627 26.6085C10.6627 26.5853 10.6592 26.5616 10.6586 26.5385C10.6581 26.5154 10.6586 26.4842 10.6586 26.457C10.6581 26.4545 10.6581 26.4519 10.6586 26.4495C10.6586 26.4234 10.6586 26.3963 10.6586 26.3708C10.6586 26.3454 10.6586 26.3275 10.6621 26.3061C10.6615 26.2995 10.6615 26.293 10.6621 26.2864C10.6663 26.2302 10.6735 26.1742 10.6835 26.1187C10.6835 26.0991 10.6899 26.0794 10.6939 26.0609C10.7207 26.6497 10.9998 27.1983 11.46 27.5665L15.1501 30.5154L15.6705 30.9305L16.3522 31.4752C16.4539 31.5565 16.5631 31.6282 16.6783 31.6891C16.9422 31.8017 17.223 31.8699 17.5091 31.8909C17.7206 31.9067 17.9332 31.897 18.1423 31.862C18.6365 31.7801 19.0966 31.5575 19.4675 31.2208Z" fill="#38CEA1"/>
<path d="M22.2149 30.9582C20.6486 29.6382 20.4919 27.836 21.2181 26.5269L24.9556 25.4399C25.5492 25.2678 26.189 25.4496 26.6034 25.9082C26.9398 26.2814 27.1871 26.726 27.3268 27.2086C28.0333 29.6371 25.8414 32.2257 22.7833 31.2687C22.5751 31.2038 22.382 31.0983 22.2149 30.9582Z" fill="#E07373"/>
<path d="M18.9108 36.3662L11.7539 39.1994L7.57925 26.59C7.30808 25.7707 7.69489 24.8658 8.44655 24.5692L9.20689 24.2685C11.9903 23.1664 15.0641 24.7403 16.0713 27.7839L18.9108 36.3662Z" fill="#F8C97B"/>
<path d="M12.2118 24.0586C11.429 24.868 10.0621 24.8073 8.98779 24.3563L9.07741 23.0924L9.22485 21.0109H12.0222L12.1482 23.0346L12.2118 24.0586Z" fill="#F5A491"/>
<path d="M12.1495 23.0357C11.3135 23.6515 9.75348 23.1172 9.11572 22.5702L9.22616 21.0126H12.0235L12.1495 23.0357Z" fill="#EF927F"/>
<path d="M38.0956 52.7529L32.1922 52.8824C31.9333 52.8878 31.6831 52.7885 31.4983 52.6072C31.3515 52.4622 31.255 52.2739 31.2231 52.07L31.0624 51.0293L30.9328 50.1885L30.7623 49.101L30.6721 48.5228L30.6588 48.4372L30.6206 48.1903L33.7313 47.6982L33.7516 47.8226L33.7706 47.9446L33.8764 48.6135L34.0285 49.5768L34.1494 50.34C34.1553 50.3779 34.165 50.4151 34.1783 50.4511C34.2567 50.6632 34.4498 50.8116 34.6749 50.8327C34.6972 50.8356 34.7196 50.8367 34.742 50.8361L36.0597 50.8072C36.9912 50.7872 37.8123 51.4151 38.0372 52.3192C38.0636 52.4249 38.0806 52.5326 38.0881 52.6413C38.0927 52.6771 38.0944 52.7147 38.0956 52.7529Z" fill="#F5A491"/>
<path d="M30.5406 53.1016L38.1376 53.105C38.2442 53.1052 38.3465 53.0624 38.4211 52.9862C38.4958 52.91 38.5365 52.8069 38.5342 52.7003C38.532 52.5936 38.4868 52.4923 38.4088 52.4194C38.3309 52.3464 38.2268 52.3081 38.1202 52.3129L30.5308 52.65C30.4077 52.6553 30.3116 52.7582 30.3145 52.8813C30.3177 53.0039 30.418 53.1016 30.5406 53.1016Z" fill="#65617B"/>
<path d="M38.1655 52.6367L33.6885 52.735C33.671 51.9352 34.0814 51.1869 34.7652 50.7718C35.449 50.3567 36.3023 50.338 37.0037 50.7226C37.7051 51.1073 38.148 51.8369 38.1655 52.6367Z" fill="#65617B"/>
<path d="M34.1781 50.4482L31.0598 51.0264L30.9303 50.1857L30.7621 49.101L30.6719 48.5228L33.7704 47.9446L33.8763 48.6136L34.0283 49.5768L34.1492 50.3401C34.1553 50.377 34.165 50.4132 34.1781 50.4482Z" fill="#EF927F"/>
<path d="M43.4377 41.2762L38.6092 44.6743C38.3968 44.8238 38.133 44.8811 37.8777 44.8333C37.6752 44.7942 37.4905 44.6915 37.3504 44.5402L36.6375 43.7665L36.0593 43.1409L35.3157 42.3314L34.9156 41.8978L34.8578 41.8342L34.689 41.6503L36.9977 39.511L37.0833 39.6029L37.1677 39.6937L37.6303 40.1904L38.2888 40.9033L38.815 41.4688C38.8413 41.4966 38.8702 41.522 38.9012 41.5445C39.0844 41.6769 39.3274 41.6927 39.5262 41.585C39.5462 41.5747 39.5655 41.5631 39.584 41.5503L40.6618 40.7917C41.4246 40.2568 42.4562 40.3219 43.1457 40.9484C43.2268 41.0213 43.3013 41.1012 43.3683 41.1872C43.3938 41.2149 43.4163 41.2456 43.4377 41.2762Z" fill="#F5A491"/>
<path d="M37.3636 45.7752L43.6712 41.5439C43.7599 41.4845 43.8209 41.3918 43.8404 41.2867C43.8599 41.1817 43.8362 41.0733 43.7747 40.986C43.7131 40.8989 43.6191 40.8402 43.5139 40.8231C43.4086 40.806 43.3009 40.832 43.215 40.8952L37.1017 45.4051C37.0029 45.4782 36.9803 45.6167 37.0508 45.7174C37.1216 45.8192 37.2611 45.8449 37.3636 45.7752Z" fill="#65617B"/>
<path d="M43.431 41.1409L39.7693 43.7179C39.309 43.0638 39.2325 42.2138 39.5688 41.4881C39.9051 40.7624 40.6031 40.2712 41.3997 40.1996C42.1964 40.128 42.9707 40.4868 43.431 41.1409Z" fill="#65617B"/>
<path d="M38.9012 41.5462L36.6364 43.7665L36.0582 43.1409L35.3147 42.3314L34.9146 41.8978L37.1649 39.6908L37.6275 40.1875L38.2889 40.9033L38.8151 41.4688C38.8413 41.4972 38.8702 41.5231 38.9012 41.5462Z" fill="#EF927F"/>
<path d="M30.3753 31.8828L38.6401 40.5436L35.7156 43.452L27.0964 35.1461C26.6483 34.7147 26.3929 34.121 26.3878 33.4991C26.3827 32.8771 26.6283 32.2793 27.0692 31.8406C27.5099 31.4014 28.109 31.1584 28.7311 31.1663C29.3533 31.1743 29.946 31.4325 30.3753 31.8828Z" fill="#65617B"/>
<path d="M33.3039 37.7543L34.4268 49.671L30.3279 50.1417L28.7089 38.2822C28.6245 37.6659 28.7918 37.0415 29.1733 36.5501C29.5547 36.0586 30.1181 35.7416 30.7361 35.6705C31.3543 35.5992 31.9752 35.7801 32.4584 36.1722C32.9416 36.5644 33.2464 37.1347 33.3039 37.7543Z" fill="#56526A"/>
<path d="M13.5186 35.6567H30.953C31.5796 35.6566 32.1806 35.9053 32.6237 36.3483C33.0669 36.7912 33.316 37.3921 33.3161 38.0187C33.3161 38.6453 33.0672 39.2462 32.6242 39.6892C32.1811 40.1323 31.5802 40.3812 30.9536 40.3812H13.5186V35.6567H13.5186Z" fill="#56526A"/>
<path d="M32.4758 49.9104L31.5507 40.04C31.4267 38.7261 30.3014 37.7357 28.9824 37.7798L12.7448 38.3366L12.7407 38.2134L28.9795 37.6526C30.3633 37.6066 31.5441 38.6449 31.6756 40.0232L32.6007 49.8937L32.4758 49.9104Z" fill="#EDEEFE"/>
<path d="M11.6177 38.1261L27.7046 31.4067C28.9086 30.9038 30.2923 31.4721 30.7952 32.6761C31.2981 33.8801 30.7297 35.2638 29.5258 35.7667L13.4388 42.4861L11.6177 38.1261H11.6177Z" fill="#65617B"/>
<path d="M31.3322 35.6694C31.2744 35.663 31.2137 35.6596 31.1536 35.6578L30.5002 34.9553C29.5413 33.9258 28.0357 33.616 26.7483 34.1834L12.5824 40.4378L12.5332 40.3251L26.6991 34.0707C28.0343 33.4821 29.5959 33.8037 30.5898 34.872L31.3322 35.6694Z" fill="#F3F4FE"/>
<path d="M37.3047 42.0898L37.2145 42.1736L33.2955 37.9608L33.2886 37.7723L37.3047 42.0898Z" fill="#F3F4FE"/>
<path d="M35.1819 43.6567C35.0095 43.4904 35.0045 43.2156 35.1709 43.0432L38.2724 39.8281C38.4388 39.6556 38.7135 39.6507 38.886 39.8171C39.0584 39.9835 39.0634 40.2582 38.897 40.4307L35.7955 43.6457C35.6291 43.8182 35.3544 43.8231 35.1819 43.6567Z" fill="#65617B"/>
<ellipse cx="12.6973" cy="17.3985" rx="0.828561" ry="1.66348" transform="rotate(-6.15 12.6973 17.3985)" fill="#7C5B5D"/>
<path d="M6.84569 17.8713L7.1238 19.5273C7.29211 20.5311 7.85234 21.427 8.68123 22.0177C9.51011 22.6085 10.5397 22.8458 11.5436 22.6773C12.8012 22.466 13.6494 21.2752 13.4383 20.0176L13.044 17.666L12.9775 17.2688L12.9526 17.1225L12.8804 16.6889C12.7044 15.6415 11.7127 14.935 10.6653 15.111L10.2553 15.1798L8.56063 15.4637C8.01415 15.5553 7.52645 15.8602 7.20483 16.3114C6.88321 16.7626 6.75402 17.3231 6.84569 17.8696V17.8713Z" fill="#F5A491"/>
<path d="M7.37237 17.899C7.90663 18.9363 9.77942 19.0358 11.5556 18.1211C12.0683 17.8612 12.5392 17.526 12.9526 17.1266L12.8803 16.6929C12.7043 15.6455 11.7126 14.9391 10.6652 15.115L10.2553 15.1838L8.56057 15.4677C8.34165 15.5033 8.12985 15.5738 7.93323 15.6764C7.29316 16.4368 7.048 17.2682 7.37237 17.899Z" fill="#EF927F"/>
<circle cx="10.1267" cy="18.8074" r="0.265394" fill="#5E4041"/>
<ellipse cx="11.9944" cy="18.7466" rx="0.265394" ry="0.265394" fill="#5E4041"/>
<path d="M11.4862 19.7794C11.4917 19.9371 11.4343 20.0907 11.3266 20.2061C11.3135 20.22 11.2996 20.2333 11.2849 20.246C11.1816 20.3376 11.0495 20.3902 10.9114 20.3946H10.8871C10.5779 20.4048 10.3125 20.1763 10.2766 19.869C10.2744 19.8527 10.273 19.8363 10.2725 19.8198C10.2706 19.7562 10.3205 19.7029 10.3841 19.7007L11.367 19.6678C11.4307 19.6658 11.484 19.7157 11.4862 19.7794Z" fill="#962F4A"/>
<path d="M10.8967 20.3031C10.8977 20.3339 10.8958 20.3647 10.8909 20.3951H10.8874C10.5782 20.4053 10.3128 20.1768 10.2769 19.8695C10.319 19.8553 10.3631 19.8475 10.4075 19.8464C10.533 19.842 10.655 19.8877 10.7468 19.9734C10.8385 20.059 10.8925 20.1777 10.8967 20.3031Z" fill="#E1617F"/>
<path d="M11.3444 19.6707C11.3444 19.7863 11.1669 19.8869 10.946 19.8944C10.7252 19.9019 10.5413 19.8146 10.5332 19.6978L11.3444 19.6707Z" fill="white"/>
<path d="M7.01394 20.597L6.87424 20.612L6.5304 17.4209L8.14004 17.2475L8.3255 18.9687C8.41297 19.7805 7.82577 20.5095 7.01394 20.597V20.597Z" fill="#7C5B5D"/>
<circle cx="7.4341" cy="19.8123" r="0.97658" fill="#F5A491"/>
<path d="M7.12954 19.7331C7.12508 19.9027 7.22288 20.0584 7.37759 20.128C7.41452 20.1431 7.45653 20.139 7.48983 20.117C7.52313 20.095 7.54345 20.058 7.54411 20.0181L7.55799 19.47C7.55943 19.4276 7.5388 19.3874 7.50347 19.3638C7.46814 19.3403 7.42314 19.3367 7.38453 19.3544C7.2327 19.4198 7.13303 19.5678 7.12954 19.7331Z" fill="#EF927F"/>
<ellipse cx="7.23834" cy="16.4952" rx="1.76178" ry="1.76178" fill="#7C5B5D"/>
<path d="M5.48679 16.6842C5.54149 17.1957 5.81744 17.6576 6.24192 17.9482C5.57709 17.3154 5.50959 16.2782 6.0868 15.5647C6.66401 14.8512 7.69243 14.7005 8.45006 15.2185C7.91397 14.7106 7.11802 14.5909 6.45629 14.9187C5.79457 15.2466 5.40752 15.9523 5.48679 16.6865V16.6842Z" fill="#5E4041"/>
<circle cx="8.96427" cy="15.2925" r="2.36368" fill="#7C5B5D"/>
<circle cx="11.9335" cy="15.5608" r="2.36368" fill="#7C5B5D"/>
<circle cx="8.96427" cy="15.2925" r="2.36368" fill="#7C5B5D"/>
<circle cx="11.9335" cy="15.5608" r="2.36368" fill="#7C5B5D"/>
<path d="M6.60742 15.1069C6.84189 14.392 7.40296 13.8317 8.11812 13.5981C8.83328 13.3646 9.61692 13.4858 10.2281 13.9245C10.3259 13.9936 10.4176 14.0709 10.5022 14.1558C10.627 14.0701 10.7603 13.9975 10.9 13.9389C10.8157 13.8177 10.7201 13.7048 10.6143 13.6018C9.95771 12.962 8.99032 12.7594 8.13214 13.0821C7.27396 13.4049 6.67973 14.1946 6.60742 15.1086L6.60742 15.1069Z" fill="#5E4041"/>
<path d="M10.228 13.9245C10.3259 13.9936 10.4176 14.071 10.5021 14.1558C10.627 14.0702 10.7603 13.9975 10.8999 13.939C11.1128 13.8482 11.3381 13.7897 11.5683 13.7655C12.2669 13.6912 12.9625 13.9312 13.4666 14.4206C13.9707 14.9099 14.2313 15.5981 14.1777 16.2986C14.493 15.3397 14.1643 14.2863 13.3596 13.6769C12.5549 13.0674 11.452 13.0363 10.6143 13.5996C10.4739 13.6933 10.3444 13.8023 10.228 13.9245H10.228Z" fill="#5E4041"/>
<circle cx="8.63305" cy="15.6411" r="1.01879" fill="#5E4041"/>
<path d="M17.2702 29.0681C16.8885 28.8298 16.7722 28.3273 17.0105 27.9456L18.5712 25.445C18.8094 25.0633 19.3119 24.947 19.6936 25.1853C20.0753 25.4235 20.1916 25.926 19.9534 26.3077L18.3927 28.8083C18.1545 29.19 17.6519 29.3063 17.2702 29.0681Z" fill="#F0A284"/>
<ellipse cx="25.1867" cy="24.7351" rx="0.393754" ry="0.393755" fill="#2329AD"/>
<ellipse cx="25.299" cy="24.7258" rx="0.393754" ry="0.393755" fill="#161762"/>
<path d="M19.9268 31.8129L24.9901 31.3954C25.3777 31.3634 25.6864 31.0576 25.7221 30.6703L26.5021 22.1991C26.5238 21.9635 26.4401 21.7304 26.2736 21.5623C26.107 21.3942 25.8747 21.3083 25.6389 21.3278L20.5756 21.7429C20.188 21.7748 19.8794 22.0807 19.8441 22.468L19.0636 30.9392C19.0414 31.1752 19.1248 31.4088 19.2914 31.5774C19.458 31.746 19.6906 31.8322 19.9268 31.8129Z" fill="#7A59A4"/>
<path d="M20.5204 31.7619L25.5843 31.3467C25.9719 31.3147 26.2805 31.009 26.3163 30.6217L27.0963 22.1505C27.1181 21.9149 27.0345 21.6817 26.8681 21.5135C26.7017 21.3453 26.4694 21.2593 26.2336 21.2785L21.1697 21.6943C20.7823 21.7263 20.4737 22.0317 20.4377 22.4188L19.6577 30.8905C19.6359 31.1261 19.7194 31.3593 19.8859 31.5274C20.0523 31.6955 20.2846 31.7814 20.5204 31.7619Z" fill="#593870"/>
<path d="M22.5228 26.5726C22.556 26.9796 22.8426 27.3212 23.2375 27.4246C23.6325 27.5281 24.0498 27.3708 24.2782 27.0323C24.1974 27.063 24.1127 27.0824 24.0267 27.0901C23.4969 27.1334 23.0324 26.7392 22.9888 26.2095C22.9704 25.9916 23.028 25.774 23.1518 25.5938C22.7452 25.7406 22.4874 26.1417 22.5228 26.5726Z" fill="#7A59A4"/>
<path d="M24.8466 27.0113C24.6832 26.6693 24.828 26.2596 25.17 26.0962L26.4283 25.495C26.7703 25.3316 27.18 25.4764 27.3434 25.8184C27.5068 26.1604 27.362 26.5701 27.02 26.7336L25.7618 27.3347C25.4198 27.4981 25.01 27.3533 24.8466 27.0113Z" fill="#ED9281"/>
<path d="M25.4972 28.1928C25.3332 27.85 25.4781 27.4392 25.8209 27.2752L27.082 26.6717C27.4248 26.5077 27.8356 26.6526 27.9997 26.9954C28.1637 27.3382 28.0188 27.7491 27.676 27.9131L26.4148 28.5165C26.072 28.6805 25.6612 28.5356 25.4972 28.1928Z" fill="#ED9281"/>
<path d="M25.5133 29.1025C25.5019 28.7225 25.8007 28.4052 26.1807 28.3938L27.5788 28.3518C27.9588 28.3404 28.2761 28.6393 28.2875 29.0193C28.2989 29.3993 28.0001 29.7166 27.6201 29.728L26.222 29.7699C25.842 29.7813 25.5247 29.4825 25.5133 29.1025Z" fill="#ED9281"/>
<path d="M13.7316 32.0122C14.2954 32.9967 13.9544 34.2517 12.97 34.8155C11.9856 35.3793 10.7305 35.0383 10.1668 34.0539L7.05503 28.6205C6.49126 27.6361 6.83225 26.381 7.81666 25.8172C8.80107 25.2535 10.0561 25.5945 10.6199 26.5789L13.7316 32.0122Z" fill="#EDBA70"/>
<path d="M6.79297 27.3965C7.18134 26.7934 7.8562 26.4365 8.57333 26.455C9.29046 26.4736 9.94597 26.8649 10.3026 27.4873L13.4145 32.9224C13.6276 33.293 13.719 33.7211 13.6759 34.1464C14.0921 33.5023 14.1144 32.6798 13.7337 32.014L10.6218 26.5789C10.178 25.8038 9.28411 25.4044 8.41063 25.591C7.53714 25.7775 6.88436 26.5072 6.79586 27.3959L6.79297 27.3965Z" fill="#E0AB65"/>
<path d="M19.8222 32.2025C20.8838 31.4179 21.0463 29.8365 20.1848 28.6703C19.5279 27.781 18.4658 27.3896 17.5251 27.6012C17.2273 27.6681 16.9466 27.7963 16.7011 27.9776L10.844 32.3031C9.78354 33.0848 9.62107 34.6685 10.4826 35.8348C11.3441 37.0016 12.9035 37.3115 13.9651 36.5286L19.8222 32.2025Z" fill="#F0A284"/>
<path d="M13.6727 35.441C13.3829 35.6472 12.9807 35.5795 12.7745 35.2897C12.5682 34.9999 12.6359 34.5977 12.9257 34.3914L15.5915 32.4941C15.8814 32.2878 16.2835 32.3556 16.4898 32.6454C16.6961 32.9352 16.6284 33.3374 16.3385 33.5437L13.6727 35.441Z" fill="#FCB798"/>
<path d="M17.5893 32.9496C15.6813 32.2118 14.9447 30.561 15.2049 29.0843L18.385 26.8397C18.8899 26.4835 19.5539 26.4471 20.0947 26.7461C20.5344 26.9891 20.913 27.329 21.2019 27.74C22.6619 29.8082 21.4332 32.9675 18.2283 33.0594C18.0101 33.0656 17.7929 33.0283 17.5893 32.9496Z" fill="#F0A284"/>
<path d="M17.5874 28.6038C17.2994 28.2581 17.3461 27.7444 17.6918 27.4564L19.6526 25.8227C19.9983 25.5347 20.512 25.5815 20.8 25.9272C21.088 26.2728 21.0413 26.7866 20.6956 27.0746L18.7348 28.7082C18.3891 28.9962 17.8754 28.9495 17.5874 28.6038Z" fill="#F0A284"/>
<path d="M18.8637 30.7806C18.655 30.382 18.809 29.8897 19.2076 29.681L21.4687 28.4974C21.8674 28.2888 22.3597 28.4428 22.5683 28.8414C22.777 29.24 22.623 29.7323 22.2244 29.941L19.9633 31.1246C19.5646 31.3332 19.0723 31.1792 18.8637 30.7806Z" fill="#F0A284"/>
<path d="M10.4832 35.8354C11.2152 36.827 12.4491 37.1994 13.4563 36.8085C13.6375 36.7379 13.8086 36.6436 13.9651 36.5281L18.7162 33.0184C20.4855 32.7819 21.5494 31.5492 21.7691 30.1795L22.223 29.9424C22.5907 29.7498 22.7552 29.3118 22.6051 28.9248C22.5946 28.8966 22.5822 28.8692 22.5681 28.8427C22.5566 28.8207 22.5444 28.8004 22.5323 28.7791C22.5183 29.0657 22.3535 29.3236 22.0992 29.4567L21.8101 29.607L21.6436 29.6938C21.6105 29.9125 21.5543 30.127 21.4759 30.3338C21.1989 31.0829 20.6605 31.7065 19.9599 32.0898C19.5358 32.3228 19.0714 32.4733 18.5913 32.5333L17.9078 33.0363L13.8373 36.043C13.6809 36.1583 13.5101 36.2526 13.3291 36.3234C12.3224 36.7143 11.0874 36.3419 10.3554 35.3503C10.1892 35.1275 10.0571 34.8812 9.96338 34.6194C10.038 35.0602 10.2162 35.4769 10.4832 35.8354Z" fill="#FCB798"/>
<path d="M17.7889 29.9146C17.5471 29.5351 17.6587 29.0315 18.0381 28.7897L21.384 26.6573C21.7634 26.4155 22.267 26.5271 22.5088 26.9065C22.7507 27.2859 22.6391 27.7895 22.2597 28.0314L18.9138 30.1637C18.5344 30.4055 18.0307 30.294 17.7889 29.9146Z" fill="#F0A284"/>
<path d="M29.7782 49.9773C29.7459 49.7399 29.9122 49.5212 30.1497 49.4889L34.5762 48.8873C34.8137 48.855 35.0323 49.0214 35.0646 49.2588C35.0969 49.4963 34.9305 49.715 34.6931 49.7473L30.2666 50.3489C30.0291 50.3812 29.8104 50.2148 29.7782 49.9773Z" fill="#56526A"/>
<path d="M28.6905 41.5572C28.6905 42.632 27.8191 43.5034 26.7443 43.5034H11.8267C11.1202 43.5034 10.5001 43.0331 10.3095 42.3528L4.60673 22.0071C4.47673 21.5434 4.74218 21.0612 5.20343 20.923L5.63824 20.7929C6.61341 20.5013 7.64042 21.0548 7.93311 22.0296L10.8548 31.7821C11.3265 33.3578 12.7763 34.4371 14.4211 34.4372H20.9894C21.8849 34.4371 22.7438 34.7927 23.3771 35.4259C24.0104 36.059 24.3661 36.9178 24.3661 37.8133V39.6115H26.7437C27.2599 39.6114 27.7549 39.8163 28.12 40.1812C28.4851 40.546 28.6903 41.041 28.6905 41.5572Z" fill="#6675AD"/>
<path d="M28.6905 41.4809C28.7257 42.3855 28.133 43.195 27.26 43.4346C27.3086 43.2442 27.3281 43.0475 27.3178 42.8512C27.2635 41.8111 26.3777 41.0062 25.3369 41.0062H23.6601C23.4849 41.0064 23.3168 40.9369 23.1929 40.813C23.0689 40.6892 22.9993 40.5211 22.9993 40.3459V39.2097C22.9993 37.3451 21.4878 35.8334 19.6231 35.8331H13.0519C11.4072 35.8331 9.95721 34.754 9.48498 33.1785L6.56334 23.4289C6.31402 22.5901 5.50915 22.0423 4.63736 22.1181L4.60613 22.0071C4.47646 21.5439 4.74153 21.062 5.20226 20.9236L5.63764 20.7929C6.61303 20.5007 7.64068 21.0543 7.9331 22.0297L10.8547 31.7822C11.3267 33.3577 12.7764 34.437 14.4211 34.4373H20.9894C22.8543 34.4373 24.3661 35.9491 24.3661 37.814V39.6116H26.7084C27.7613 39.6116 28.65 40.4309 28.6905 41.4809Z" fill="#5B6DA5"/>
<path d="M14.0552 43.504L13.6812 44.8709L11.4221 53.1253H10.7109L12.4374 44.8709L12.7231 43.504H14.0552Z" fill="#6675AD"/>
<path d="M28.15 53.1253H27.4394L25.1798 44.8709L24.8057 43.504H26.1384L26.424 44.8709L28.15 53.1253Z" fill="#6675AD"/>
<path d="M12.7231 43.504H14.0553L13.6812 44.8709H12.4375L12.7231 43.504Z" fill="#5B6DA5"/>
<path d="M26.424 44.8709H25.1798L24.8057 43.504H26.1384L26.424 44.8709Z" fill="#5B6DA5"/>
<rect x="32.9258" y="8.68884" width="12.1688" height="23.213" rx="6.0844" fill="#ADB6E0"/>
<rect x="33.7012" y="9.51978" width="10.6192" height="21.5512" rx="5.30961" fill="#F3F4FE"/>
<path d="M44.3205 10.3321V30.2592C44.3205 30.4744 44.2347 30.6809 44.0822 30.8328C43.9296 30.9847 43.7228 31.0696 43.5075 31.0686H34.5136C34.2983 31.0696 34.0916 30.9847 33.939 30.8328C33.7864 30.6809 33.7007 30.4744 33.7007 30.2592V10.3321C33.7007 10.1168 33.7864 9.91036 33.939 9.75845C34.0916 9.60654 34.2983 9.52167 34.5136 9.52259H43.5075C43.7228 9.52167 43.9296 9.60654 44.0822 9.75845C44.2347 9.91036 44.3205 10.1168 44.3205 10.3321Z" fill="#F3F4FE"/>
<path d="M44.3206 15.1404V30.2592C44.3206 30.4744 44.2348 30.6809 44.0823 30.8328C43.9297 30.9847 43.7229 31.0696 43.5077 31.0686H40.2119V13.6191L44.3206 15.1404Z" fill="#EBECFD"/>
<path d="M38.1934 31.071V17.7481L40.2119 16.5374V31.071H38.1934Z" fill="#D9DCFB"/>
<path d="M35.8961 14.9872V31.0727H34.5136C34.2983 31.0736 34.0916 30.9888 33.939 30.8368C33.7864 30.6849 33.7007 30.4785 33.7007 30.2632V15.7926L35.8961 14.9872Z" fill="#EBECFD"/>
<path d="M37.3242 15.4821V31.071H35.896V14.9855L37.3242 15.4821Z" fill="#D9DCFB"/>
<path d="M40.9814 15.8706H41.9864V16.4153H40.9814V15.8706Z" fill="#F1F2FD"/>
<path d="M33.9048 17.1034H35.6191V15.5093L33.9048 16.1655V17.1034Z" fill="#F1F2FD"/>
<path d="M42.8418 15.8706H43.8467V16.4153H42.8418V15.8706Z" fill="#F1F2FD"/>
<path d="M40.9814 17.304H41.9864V17.8486H40.9814V17.304Z" fill="#F1F2FD"/>
<path d="M42.8418 17.304H43.8467V17.8486H42.8418V17.304Z" fill="#F1F2FD"/>
<path d="M40.9814 18.7373H41.9864V19.282H40.9814V18.7373Z" fill="#F1F2FD"/>
<path d="M42.8418 18.7373H43.8467V19.282H42.8418V18.7373Z" fill="#F1F2FD"/>
<path d="M40.9814 20.1702H41.9864V20.7148H40.9814V20.1702Z" fill="#F1F2FD"/>
<path d="M42.8418 20.1702H43.8467V20.7148H42.8418V20.1702Z" fill="#F1F2FD"/>
<path d="M40.9814 21.6035H41.9864V22.1482H40.9814V21.6035Z" fill="#F1F2FD"/>
<path d="M42.8418 21.6035H43.8467V22.1482H42.8418V21.6035Z" fill="#F1F2FD"/>
<path d="M40.9814 23.0363H41.9864V23.5809H40.9814V23.0363Z" fill="#F1F2FD"/>
<path d="M42.8418 23.0363H43.8467V23.5809H42.8418V23.0363Z" fill="#F1F2FD"/>
<path d="M40.9814 24.4696H41.9864V25.0143H40.9814V24.4696Z" fill="#F1F2FD"/>
<path d="M42.8418 24.4696H43.8467V25.0143H42.8418V24.4696Z" fill="#F1F2FD"/>
<path d="M40.9814 25.9025H41.9864V26.4471H40.9814V25.9025Z" fill="#F1F2FD"/>
<path d="M42.8418 25.9025H43.8467V26.4471H42.8418V25.9025Z" fill="#F1F2FD"/>
<path d="M40.9814 27.3358H41.9864V27.8805H40.9814V27.3358Z" fill="#F1F2FD"/>
<path d="M42.8418 27.3358H43.8467V27.8805H42.8418V27.3358Z" fill="#F1F2FD"/>
<path d="M40.9814 28.7692H41.9864V29.3138H40.9814V28.7692Z" fill="#F1F2FD"/>
<path d="M42.8418 28.7692H43.8467V29.3138H42.8418V28.7692Z" fill="#F1F2FD"/>
<path d="M40.9814 30.2019H41.9864V30.7466H40.9814V30.2019Z" fill="#F1F2FD"/>
<path d="M42.8418 30.2019H43.8467V30.7466H42.8418V30.2019Z" fill="#F1F2FD"/>
<path d="M33.9048 17.5763H35.6191V18.3603H33.9048V17.5763Z" fill="#F1F2FD"/>
<path d="M33.9048 18.9177H34.5344V19.7018H33.9048V18.9177Z" fill="#F1F2FD"/>
<path d="M34.9893 18.9177H35.6189V19.7018H34.9893V18.9177Z" fill="#F1F2FD"/>
<path d="M33.9048 20.4668H35.6191V21.2508H33.9048V20.4668Z" fill="#F1F2FD"/>
<path d="M33.9048 21.8082H34.5344V22.5923H33.9048V21.8082Z" fill="#F1F2FD"/>
<path d="M34.9893 21.8082H35.6189V22.5923H34.9893V21.8082Z" fill="#F1F2FD"/>
<path d="M33.9048 23.3572H35.6191V24.1412H33.9048V23.3572Z" fill="#F1F2FD"/>
<path d="M33.9048 24.6986H34.5344V25.4826H33.9048V24.6986Z" fill="#F1F2FD"/>
<path d="M34.9893 24.6986H35.6189V25.4826H34.9893V24.6986Z" fill="#F1F2FD"/>
<path d="M33.9048 26.2251H35.6191V27.0091H33.9048V26.2251Z" fill="#F1F2FD"/>
<path d="M33.9048 27.5659H34.5344V28.35H33.9048V27.5659Z" fill="#F1F2FD"/>
<path d="M34.9893 27.5659H35.6189V28.35H34.9893V27.5659Z" fill="#F1F2FD"/>
<path d="M33.9048 29.0924H35.6191V29.8764H33.9048V29.0924Z" fill="#F1F2FD"/>
<path d="M31.5361 10.9132H46.286L46.8665 10.0806H30.9556L31.5361 10.9132Z" fill="#ADB6E0"/>
<path d="M31.5361 12.3333H46.286L46.8665 11.5012H30.9556L31.5361 12.3333Z" fill="#ADB6E0"/>
<path d="M31.5361 13.7539H46.286L46.8665 12.9219H30.9556L31.5361 13.7539Z" fill="#ADB6E0"/>
<path d="M31.5361 15.1745H46.286L46.8665 14.3419H30.9556L31.5361 15.1745Z" fill="#ADB6E0"/>
<path d="M34.2437 15.1746H34.5408V18.8305H34.2437V15.1746Z" fill="#ADB6E0"/>
<rect x="34.0483" y="18.3447" width="0.688061" height="1.31887" rx="0.34403" fill="#ADB6E0"/>
</svg>
