<svg width="66" height="66" viewBox="0 0 66 66" fill="none" xmlns="http://www.w3.org/2000/svg">
<path d="M63.7875 43.4257V44.099C63.7885 45.1888 63.5812 46.2687 63.1769 47.2807C63.1277 47.4031 63.076 47.5241 63.0217 47.6435C62.9354 47.8315 62.8434 48.0159 62.7455 48.1965C62.7131 48.2554 62.6808 48.3136 62.6472 48.3712C62.2065 49.1347 61.6511 49.826 61.0004 50.4209C60.9707 50.4487 60.9403 50.4758 60.9099 50.503L60.9008 50.5108L60.7967 50.6013C60.3131 51.0169 59.7844 51.3769 59.2204 51.6744C59.0665 51.7559 58.9093 51.8328 58.7502 51.9046C58.4348 52.0478 58.1108 52.1712 57.78 52.274C57.7017 52.2985 57.6228 52.3218 57.5439 52.3438C57.3538 52.3975 57.1617 52.4447 56.9663 52.4848C56.3918 52.6034 55.8066 52.663 55.22 52.6627H51.7499C51.2813 52.6627 50.8319 52.8489 50.5006 53.1803C50.1693 53.5117 49.9833 53.9611 49.9835 54.4297V61.0213H20.4402V54.4297C20.441 53.7588 20.0605 53.1456 19.459 52.8483C19.4129 52.8244 19.3657 52.8028 19.3174 52.7836C19.1115 52.7022 18.892 52.6608 18.6706 52.6614H12.8293C12.7368 52.6614 12.6456 52.6614 12.5538 52.6575C12.0491 52.6423 11.5467 52.584 11.0519 52.4835C10.8575 52.4443 10.6654 52.3986 10.4756 52.3464C9.94524 52.2009 9.42964 52.006 8.93561 51.7643C8.87092 51.7339 8.81207 51.7035 8.75062 51.6711C8.17396 51.3737 7.63171 51.0139 7.13362 50.5981L7.09999 50.5703C7.07541 50.5496 7.05083 50.5289 7.0269 50.5056L6.92406 50.4157C6.79082 50.2986 6.66146 50.1764 6.53598 50.0509C6.02931 49.5443 5.58543 48.9786 5.21392 48.366C5.07098 48.1306 4.93838 47.888 4.81808 47.6383C4.75986 47.5193 4.70424 47.3977 4.6525 47.2755C4.41859 46.7343 4.23982 46.1709 4.11889 45.5938C3.90212 44.5551 3.87103 43.4863 4.02704 42.4368C4.0445 42.3145 4.06585 42.1936 4.09172 42.0733C4.10078 42.0235 4.11112 41.9737 4.12147 41.9245C4.13635 41.8501 4.15317 41.7764 4.17063 41.7027C4.21634 41.5086 4.26873 41.3167 4.3278 41.127C4.36057 41.0209 4.3955 40.9155 4.43258 40.8107C4.65845 40.1663 4.95842 39.5503 5.32646 38.9751C5.73595 38.3345 6.22543 37.7488 6.78305 37.232C6.91824 37.1065 7.0573 36.9849 7.20024 36.8691C7.26492 36.8161 7.3296 36.765 7.39428 36.7152C7.5853 36.5673 7.78279 36.4271 7.98675 36.2948C8.75464 35.7945 9.59559 35.4166 10.4795 35.1745C10.7344 35.1046 10.9931 35.0462 11.2557 34.9992C11.451 34.9634 11.6485 34.9348 11.8481 34.9132C12.0732 34.8886 12.3009 34.8718 12.5318 34.8647C12.6314 34.8647 12.7317 34.8595 12.8319 34.8595H19.688C20.5103 34.8606 21.2709 34.4239 21.6847 33.7134C21.7106 33.6707 21.7345 33.6267 21.7565 33.584C21.7934 33.5106 21.8264 33.4352 21.8554 33.3583C21.9428 33.1241 21.9915 32.8772 21.9997 32.6274C21.9997 32.6209 21.9997 32.6145 21.9997 32.608C21.9997 32.5886 21.9997 32.5685 21.9997 32.5485C21.9997 32.5394 21.9997 32.5304 21.9997 32.522C21.9997 32.5136 21.9997 32.5077 21.9997 32.5006C21.9962 32.342 21.976 32.1842 21.9395 32.0298C21.9119 31.9056 21.8732 31.7841 21.8237 31.6669C21.7835 31.5686 21.7364 31.4733 21.6827 31.3817C21.336 30.7884 20.7435 30.3801 20.0657 30.2672C20.0463 30.264 20.0276 30.2608 20.0082 30.2588C19.9011 30.2433 19.793 30.2357 19.6848 30.2362H8.1187H7.98287C6.59595 30.2038 5.27513 29.637 4.29611 28.6541C4.23596 28.594 4.1771 28.5325 4.12018 28.4698C3.68178 27.9883 3.33364 27.4318 3.09241 26.8269C3.04498 26.7079 3.00186 26.5869 2.96305 26.464C2.48675 24.9565 2.69301 23.316 3.52771 21.9733C3.60188 21.853 3.68143 21.7362 3.76638 21.6227C3.85823 21.4973 3.95568 21.3763 4.05873 21.2599C4.07878 21.2366 4.09948 21.2133 4.12341 21.1907C4.18033 21.126 4.23919 21.0665 4.29934 21.0063C5.27836 20.0234 6.59918 19.4566 7.9861 19.4243H8.12193C8.95465 19.4254 9.77106 19.1935 10.4789 18.7548C10.759 18.5806 11.0193 18.3763 11.255 18.1456C11.7494 17.6626 12.1257 17.072 12.3546 16.4199C12.396 16.3015 12.4329 16.1799 12.4639 16.057C12.4904 15.9542 12.5137 15.8507 12.5325 15.7453C12.5804 15.4804 12.6044 15.2118 12.6043 14.9426V10.3762C12.6041 9.9076 12.7901 9.45814 13.1214 9.12673C13.4527 8.79532 13.9021 8.60913 14.3707 8.60913H55.5421C57.2794 8.60773 58.9111 9.44286 59.9261 10.8529C59.9791 10.924 60.0289 10.9971 60.0768 11.0709C60.1078 11.1187 60.1415 11.1666 60.168 11.2157C61.0527 12.6773 61.1956 14.4706 60.5535 16.0538C60.5037 16.1767 60.4487 16.2976 60.3898 16.4167C59.825 17.5517 58.8806 18.4531 57.7205 18.9644C57.5267 19.0496 57.328 19.123 57.1254 19.1843C56.6115 19.3418 56.077 19.4216 55.5395 19.421H51.1412C50.8456 19.4207 50.5515 19.4621 50.2674 19.5439C50.173 19.5717 50.0798 19.6034 49.9893 19.639C49.8678 19.6867 49.7494 19.742 49.6348 19.8046C49.5534 19.8492 49.4738 19.8977 49.3968 19.9495C48.9411 20.2563 48.573 20.6765 48.329 21.1687C48.3141 21.1984 48.2999 21.2282 48.2863 21.2586C48.2317 21.3763 48.185 21.4975 48.1466 21.6215C48.0518 21.9265 48.0042 22.2444 48.0056 22.5638C48.0051 23.6145 48.5302 24.5957 49.4046 25.1782C49.5903 25.3028 49.7889 25.4069 49.9971 25.4887C50.3639 25.6333 50.7547 25.7073 51.149 25.7066C51.2066 25.7066 51.2635 25.7066 51.3204 25.7105C52.0091 25.7378 52.6793 25.9409 53.2673 26.3004C53.3371 26.3424 53.405 26.3864 53.4717 26.433L53.5124 26.4621C53.6332 26.5476 53.749 26.6401 53.8591 26.7389C53.8908 26.7667 53.9238 26.7959 53.9529 26.825C54.7658 27.5938 55.2258 28.6638 55.2245 29.7828V32.564C55.2221 33.7728 55.9848 34.8507 57.1254 35.2508C57.1636 35.2644 57.2024 35.2767 57.2412 35.2883C57.3952 35.3343 57.5543 35.3847 57.7179 35.4416C58.0471 35.5535 58.3932 35.6874 58.747 35.8459C59.378 36.1258 59.9788 36.4695 60.5399 36.8717C60.6912 36.981 60.8413 37.0961 60.9881 37.2177L61.0082 37.2346C61.2022 37.3969 61.3963 37.5715 61.5806 37.7572C61.9507 38.1283 62.2807 38.5374 62.565 38.9777C62.9319 39.5472 63.2177 40.165 63.4143 40.8133C63.4462 40.9168 63.4759 41.0222 63.5035 41.1296C63.552 41.3159 63.5954 41.508 63.6329 41.7052C63.6553 41.8268 63.6754 41.9504 63.693 42.0759C63.7099 42.1949 63.7247 42.3165 63.7357 42.4394C63.7698 42.7671 63.787 43.0963 63.7875 43.4257Z" fill="#F0F3F9"/>
<path opacity="0.11" d="M60.1654 11.2125H12.6011V10.8496H59.9261C59.9792 10.9208 60.029 10.9938 60.0768 11.0676C60.1079 11.1154 60.1383 11.1633 60.1654 11.2125Z" fill="#34629B"/>
<path opacity="0.11" d="M60.5537 16.0537C60.5039 16.1766 60.4489 16.2976 60.39 16.4166H12.3516C12.393 16.2982 12.4298 16.1766 12.4609 16.0537H60.5537Z" fill="#34629B"/>
<path opacity="0.11" d="M48.2871 21.2585C48.2325 21.3763 48.1859 21.4975 48.1474 21.6214H3.76465C3.85649 21.4959 3.95395 21.375 4.057 21.2585H48.2871Z" fill="#34629B"/>
<path opacity="0.11" d="M53.9509 26.8256H3.09176C3.04433 26.7066 3.00121 26.5857 2.9624 26.4628H53.5105C53.6313 26.5483 53.747 26.6407 53.8572 26.7396C53.8914 26.7674 53.9199 26.7965 53.9509 26.8256Z" fill="#34629B"/>
<path opacity="0.11" d="M55.2225 31.6675V32.0297H21.9395C21.9119 31.9055 21.8731 31.7841 21.8237 31.6669L55.2225 31.6675Z" fill="#34629B"/>
<path opacity="0.11" d="M61.0109 37.2346H6.78125C6.91643 37.1091 7.05549 36.9875 7.19844 36.8717H60.5426C60.694 36.981 60.844 37.0961 60.9909 37.2177L61.0109 37.2346Z" fill="#34629B"/>
<path opacity="0.11" d="M63.7378 42.4393H4.02783C4.0453 42.3171 4.06664 42.1961 4.09251 42.0758H63.6951C63.7119 42.1948 63.7268 42.3138 63.7378 42.4393Z" fill="#34629B"/>
<path opacity="0.11" d="M63.1764 47.2806C63.1273 47.4031 63.0755 47.5241 63.0212 47.6435H4.8189C4.76069 47.5245 4.70506 47.4029 4.65332 47.2806H63.1764Z" fill="#34629B"/>
<path opacity="0.11" d="M56.9668 52.4848C56.3923 52.6034 55.8071 52.663 55.2204 52.6627H51.7497C51.476 52.6622 51.206 52.7258 50.9613 52.8483H19.4589C19.4128 52.8244 19.3655 52.8028 19.3172 52.7836C19.1113 52.7023 18.8918 52.6608 18.6704 52.6614H12.8292C12.7367 52.6614 12.6455 52.6614 12.5536 52.6575C12.049 52.6423 11.5465 52.5841 11.0518 52.4835L56.9668 52.4848Z" fill="#34629B"/>
<path opacity="0.11" d="M20.4404 57.6896H49.9837V58.0524H20.4404L20.4404 57.6896Z" fill="#34629B"/>
<rect x="10.4751" y="62.1603" width="4.7902" height="1.13901" rx="0.569506" transform="rotate(-180 10.4751 62.1603)" fill="#6E8EC8"/>
<rect x="63.3257" y="62.1603" width="52.3869" height="1.13901" rx="0.569506" transform="rotate(-180 63.3257 62.1603)" fill="#6E8EC8"/>
<path d="M29.3032 44.2284H47.4395V61.117H29.3032V44.2284Z" fill="#547DBA"/>
<path d="M29.3032 48.6073H48.6911V55.867H29.3032V48.6073Z" fill="#34629B"/>
<path d="M44.6841 28.3954H45.1893C53.6839 28.3954 60.5702 35.2817 60.5702 43.7763V44.229H29.3032V43.7763C29.3032 35.2817 36.1895 28.3954 44.6841 28.3954V28.3954Z" fill="#547DBA"/>
<path d="M60.5702 43.7763V44.2291H52.9858V43.7763C52.9858 36.5004 47.9337 30.4044 41.1455 28.8055C42.3058 28.5321 43.494 28.3945 44.6861 28.3954H45.1912C53.6844 28.3954 60.5702 35.2819 60.5702 43.7763Z" fill="#34629B"/>
<path d="M29.3033 44.2284V61.1164H24.5913C24.1269 61.1164 23.7505 60.7399 23.7505 60.2755V49.7786C23.7505 46.713 26.2357 44.2278 29.3013 44.2278L29.3033 44.2284Z" fill="#BBD7FF"/>
<path d="M25.5837 11.5644V37.6951C25.5845 37.9761 25.4736 38.2459 25.2753 38.445C25.0771 38.6441 24.8078 38.7562 24.5268 38.7565H13.5875C13.3068 38.7567 13.0375 38.6452 12.839 38.4468C12.6406 38.2483 12.5291 37.979 12.5293 37.6983V34.8673C12.6289 34.8673 12.7292 34.8621 12.8294 34.8621H19.6855C20.5077 34.8632 21.2684 34.4265 21.6822 33.716C21.708 33.6733 21.732 33.6293 21.754 33.5866C21.7909 33.5132 21.8239 33.4378 21.8529 33.3609C21.9403 33.1267 21.989 32.8799 21.9972 32.63V32.5007C21.9747 31.3877 21.1621 30.449 20.0639 30.2673C20.0445 30.264 20.0257 30.2608 20.0063 30.2588C19.8992 30.2433 19.7911 30.2358 19.6829 30.2362H12.5293V11.5644C12.5291 11.2837 12.6406 11.0144 12.839 10.816C13.0375 10.6175 13.3068 10.5061 13.5875 10.5062H24.5268C25.1107 10.5069 25.5837 10.9805 25.5837 11.5644Z" fill="#6E8EC8"/>
<path d="M24.2996 13.0623V36.1983C24.2992 36.7826 23.8257 37.2562 23.2414 37.2565H14.8712C14.2867 37.2565 13.813 36.7828 13.813 36.1983V34.8621H19.6885C20.5108 34.8631 21.2714 34.4265 21.6852 33.7159C21.7111 33.6732 21.735 33.6293 21.757 33.5866C21.7939 33.5131 21.827 33.4378 21.8559 33.3608C21.9433 33.1266 21.992 32.8798 22.0002 32.63V32.5006C21.9777 31.3877 21.1651 30.4489 20.0669 30.2672C20.0475 30.264 20.0287 30.2607 20.0093 30.2588C19.9022 30.2433 19.7941 30.2357 19.6859 30.2361H13.813V13.0623C13.813 12.7817 13.9245 12.5125 14.1229 12.3141C14.3214 12.1156 14.5905 12.0042 14.8712 12.0042H23.2414C23.8258 12.0042 24.2996 12.4779 24.2996 13.0623Z" fill="#E9F1FF"/>
<path d="M24.2996 15.7239V36.1983C24.2992 36.7826 23.8257 37.2561 23.2414 37.2565H16.9713V34.8633H19.6879C20.5101 34.8644 21.2708 34.4278 21.6846 33.7172C21.7104 33.6745 21.7344 33.6305 21.7564 33.5878C21.7933 33.5144 21.8263 33.439 21.8553 33.3621C21.9427 33.1279 21.9914 32.8811 21.9996 32.6312V32.5019C21.9771 31.389 21.1645 30.4502 20.0663 30.2685C20.0469 30.2652 20.0281 30.262 20.0087 30.2601C19.9016 30.2445 19.7935 30.237 19.6853 30.2374H16.9688V26.9459C16.9687 26.7315 17.1425 26.5578 17.3568 26.5578H19.3748C19.5892 26.5578 19.7629 26.384 19.7629 26.1697V16.112C19.7629 15.8976 19.9367 15.7239 20.151 15.7239L24.2996 15.7239Z" fill="#CDDCF5"/>
<path d="M17.8696 27.9426H18.356V28.429H17.8696V27.9426Z" fill="#E9F1FF"/>
<path d="M17.8696 30.1185H18.356V30.2369H17.8696V30.1185Z" fill="#E9F1FF"/>
<path d="M17.8696 34.8622H18.356V34.9566H17.8696V34.8622Z" fill="#E9F1FF"/>
<path d="M17.8696 36.646H18.356V37.1324H17.8696V36.646Z" fill="#E9F1FF"/>
<path d="M20.0095 30.0713V30.2595C19.9024 30.244 19.7943 30.2364 19.6861 30.2369H19.5205V30.0713H20.0095Z" fill="#E9F1FF"/>
<path d="M20.6353 16.493H21.1216V16.9794H20.6353V16.493Z" fill="#E9F1FF"/>
<path d="M20.6353 19.5375H21.1216V20.0239H20.6353V19.5375Z" fill="#E9F1FF"/>
<path d="M20.6353 22.5813H21.1216V23.0677H20.6353V22.5813Z" fill="#E9F1FF"/>
<path d="M20.6353 25.6259H21.1216V26.1122H20.6353V25.6259Z" fill="#E9F1FF"/>
<path d="M20.6353 28.6697H21.1216V29.1561H20.6353V28.6697Z" fill="#E9F1FF"/>
<path d="M20.6353 34.7581H21.1216V35.2444H20.6353V34.7581Z" fill="#E9F1FF"/>
<path d="M21.7568 18.1384H22.2432V18.6248H21.7568V18.1384Z" fill="#E9F1FF"/>
<path d="M21.7568 21.1824H22.2432V21.6688H21.7568V21.1824Z" fill="#E9F1FF"/>
<path d="M21.7568 24.2268H22.2432V24.7132H21.7568V24.2268Z" fill="#E9F1FF"/>
<path d="M21.7568 27.2706H22.2432V27.757H21.7568V27.2706Z" fill="#E9F1FF"/>
<path d="M21.7568 30.3145H22.2432V30.8008H21.7568V30.3145Z" fill="#E9F1FF"/>
<path d="M22.2432 33.359V33.8454H21.7568V33.5867C21.7938 33.5132 21.8268 33.4379 21.8558 33.3609L22.2432 33.359Z" fill="#E9F1FF"/>
<path d="M21.7568 36.4028H22.2432V36.8892H21.7568V36.4028Z" fill="#E9F1FF"/>
<path d="M23.1348 16.4652H23.6212V16.9516H23.1348V16.4652Z" fill="#E9F1FF"/>
<path d="M23.1348 19.509H23.6212V19.9954H23.1348V19.509Z" fill="#E9F1FF"/>
<path d="M23.1348 22.5536H23.6212V23.04H23.1348V22.5536Z" fill="#E9F1FF"/>
<path d="M23.1348 25.5974H23.6212V26.0838H23.1348V25.5974Z" fill="#E9F1FF"/>
<path d="M23.1348 28.6412H23.6212V29.1276H23.1348V28.6412Z" fill="#E9F1FF"/>
<path d="M23.1348 31.6857H23.6212V32.1721H23.1348V31.6857Z" fill="#E9F1FF"/>
<path d="M23.1348 34.7295H23.6212V35.2159H23.1348V34.7295Z" fill="#E9F1FF"/>
<path d="M22.0001 32.6279V37.8191H21.6851V33.7158C21.7109 33.6732 21.7349 33.6292 21.7569 33.5865C21.7938 33.513 21.8268 33.4377 21.8558 33.3608C21.9434 33.1259 21.9921 32.8784 22.0001 32.6279Z" fill="#6E8EC8"/>
<path d="M22.0001 11.4414V32.5012C21.9929 32.1074 21.8845 31.722 21.6851 31.3822V11.4414H22.0001Z" fill="#6E8EC8"/>
<path d="M15.8516 11.4414H16.1666V30.2368H15.8516V11.4414Z" fill="#6E8EC8"/>
<path d="M15.8516 34.8621H16.1666V37.8192H15.8516V34.8621Z" fill="#6E8EC8"/>
<path d="M25.3784 13.5681V13.8831H12.5821V13.5681H25.3784Z" fill="#6E8EC8"/>
<path d="M25.3784 24.4725V24.7875H12.5821V24.4725H25.3784Z" fill="#6E8EC8"/>
<path d="M13.0166 20.8362H25.0949V22.263H13.0166V20.8362Z" fill="#6E8EC8"/>
<path d="M50.2726 19.5465C50.1782 19.5743 50.0851 19.606 49.9945 19.6416C49.873 19.6893 49.7546 19.7446 49.6401 19.8072C49.5586 19.8518 49.479 19.9003 49.4021 19.9521C49.1031 20.1504 48.8406 20.3988 48.6259 20.6862H33.6958C33.3811 20.6862 33.126 20.431 33.126 20.1163C33.126 19.8016 33.3811 19.5465 33.6958 19.5465H50.2726Z" fill="#6285B7"/>
<path d="M30.7419 58.1605L31.3887 46.4262C31.4597 45.1932 30.5177 44.136 29.2846 44.0648L29.2251 44.0609C27.9921 43.9899 26.9348 44.9319 26.8637 46.1649L26.2169 57.8992C26.2062 58.0868 26.3494 58.2477 26.537 58.2588L30.3823 58.4806C30.5699 58.4913 30.7308 58.3481 30.7419 58.1605Z" fill="#3177E0"/>
<path d="M30.0864 58.0339L30.0351 59.6566L26.7258 59.552L26.7771 57.9294L30.0864 58.0339Z" fill="#3177E0"/>
<path d="M29.518 44.087L37.7576 44.4871C38.2546 44.5112 38.6379 44.9337 38.6138 45.4307L38.5769 46.1911C38.4933 47.913 37.0296 49.2411 35.3077 49.1575L29.2866 48.8651C27.9665 48.801 26.9482 47.6789 27.0123 46.3587C27.0765 45.0386 28.1986 44.0204 29.5188 44.0845L29.518 44.087Z" fill="#3177E0"/>
<path d="M28.6177 59.9437L25.3617 60.1222C25.3218 59.5359 25.6004 58.9734 26.0911 58.65C26.5818 58.3266 27.2086 58.2922 27.7317 58.5601C28.2548 58.8279 28.5933 59.3565 28.6177 59.9437Z" fill="#3177E0"/>
<path d="M25.0317 60.5194L25.0259 60.02C25.0233 59.8036 25.1897 59.6224 25.4056 59.6067L29.6848 59.2917C29.8257 59.2816 29.9646 59.33 30.0685 59.4257C30.1725 59.5213 30.2323 59.6556 30.2339 59.7969L30.2443 60.7218L25.0317 60.5194Z" fill="#3177E0"/>
<path d="M30.2419 60.4462L30.2451 60.7464C30.2461 60.8381 30.2107 60.9266 30.1465 60.9922C30.0823 61.0578 29.9947 61.0953 29.9029 61.0963L25.2725 61.1474C25.1225 61.1491 24.9779 61.0911 24.8706 60.9862C24.7634 60.8812 24.7023 60.7379 24.7007 60.5879C24.699 60.4378 24.757 60.2931 24.8619 60.1858C24.9668 60.0784 25.1101 60.0172 25.2602 60.0155L26.557 60.0012C26.8252 59.9987 27.0448 60.2137 27.048 60.4818L30.2419 60.4462Z" fill="#3177E0"/>
<path d="M30.4511 40.6651C29.5607 40.5169 28.959 39.6749 29.1072 38.7844C29.2554 37.894 30.0974 37.2923 30.9879 37.4405L36.6624 38.385C37.5529 38.5332 38.1546 39.3752 38.0064 40.2657C37.8582 41.1561 37.0162 41.7578 36.1257 41.6096L30.4511 40.6651Z" fill="#F9A0B4"/>
<ellipse cx="30.1095" cy="38.9982" rx="2.08399" ry="1.68685" transform="rotate(-1.9 30.1095 38.9982)" fill="#F9A0B4"/>
<path d="M31.3773 37.4772C31.4872 37.5354 31.5694 37.6349 31.6058 37.7538C31.6422 37.8728 31.6298 38.0013 31.5713 38.111C31.513 38.2209 31.4133 38.3032 31.2943 38.3395C31.1753 38.3759 31.0467 38.3635 30.9368 38.3051L29.6484 37.6169C29.5385 37.5586 29.4563 37.4591 29.4199 37.3402C29.3835 37.2213 29.3959 37.0928 29.4544 36.983C29.5126 36.8731 29.6121 36.7909 29.7311 36.7545C29.85 36.7181 29.9785 36.7305 30.0882 36.789" fill="#F9A0B4"/>
<ellipse cx="36.1912" cy="27.0675" rx="1.43978" ry="1.43978" fill="#4F182E"/>
<path d="M36.0664 28.5014C36.0334 28.5014 36.0017 28.495 35.9662 28.4891C35.1803 28.3641 34.6445 27.6257 34.7696 26.8398C34.8946 26.0539 35.633 25.5182 36.4189 25.6432C36.4525 25.6484 36.4836 25.6542 36.5172 25.662C35.765 25.5982 35.0913 26.1263 34.9735 26.8719C34.8557 27.6176 35.3338 28.3276 36.069 28.4989L36.0664 28.5014Z" fill="#622F2B"/>
<path d="M37.8121 27.3237C37.6879 28.109 36.9507 28.645 36.1654 28.5209C36.1317 28.5157 36.0987 28.5093 36.0664 28.5015C35.3312 28.3302 34.8531 27.6202 34.9709 26.8746C35.0887 26.1289 35.7625 25.6009 36.5146 25.6646C36.5483 25.6646 36.5793 25.6717 36.6149 25.6769C37.4002 25.8011 37.9362 26.5384 37.8121 27.3237Z" fill="#512522"/>
<path d="M40.8384 33.6428L37.0624 34.3097L36.5993 31.6863L36.3555 30.3015L40.1315 29.6353L40.3132 30.6656L40.8384 33.6428Z" fill="#FFB2BF"/>
<path d="M36.9346 33.4734C36.7668 32.8964 37.0986 32.2927 37.6755 32.125L39.5997 31.5656C40.1766 31.3979 40.7803 31.7296 40.948 32.3066C41.1158 32.8836 40.784 33.4872 40.2071 33.655L38.2829 34.2143C37.706 34.3821 37.1023 34.0503 36.9346 33.4734Z" fill="#FFF2EE"/>
<path d="M36.7729 38.0579L44.0469 38.4216L43.6412 46.535L36.3673 46.1713L36.7729 38.0579Z" fill="#FFF2EE"/>
<ellipse cx="39.3387" cy="37.3262" rx="4.89692" ry="4.77597" transform="rotate(-87.15 39.3387 37.3262)" fill="#FFF2EE"/>
<path d="M39.3482 42.2247C39.2648 42.2247 39.1814 42.2247 39.0973 42.2189C36.4629 42.0895 34.4364 39.7914 34.5697 37.0904C34.7029 34.3893 36.9486 32.3041 39.583 32.4367C39.6632 32.4405 39.7428 32.447 39.8217 32.4548C37.2992 32.4638 35.19 34.4993 35.06 37.1117C34.93 39.7241 36.8315 41.9711 39.3482 42.2247Z" fill="white"/>
<path d="M43.6184 46.4392C43.5807 47.2843 43.2061 48.079 42.5784 48.6461C42.0462 49.1289 41.3565 49.4016 40.638 49.4132H40.605C40.5539 49.4132 40.5034 49.4132 40.4517 49.4132L34.6273 49.1299C34.01 49.0989 33.432 48.8174 33.0271 48.3505C32.7451 48.0281 32.554 47.6366 32.4734 47.216C32.4385 47.0349 32.4242 46.8505 32.4307 46.6662C32.476 45.3306 33.6118 44.2912 34.9028 44.3539L43.6993 44.7814L43.6184 46.4392Z" fill="#428DFF"/>
<path d="M36.3289 48.1235L36.2519 48.2076L35.3781 49.1642L30.9152 54.0495L26.7905 58.5622C26.6059 58.7635 26.2931 58.7774 26.0913 58.5932L23.4757 56.2001C23.3787 56.1116 23.3209 55.9882 23.315 55.857C23.309 55.7259 23.3554 55.5978 23.444 55.5009L25.0351 53.7623L31.3026 46.9062L32.9843 45.0673C33.8285 44.1434 35.262 44.0788 36.1859 44.9231C37.1099 45.7674 37.1744 47.2008 36.3302 48.1248L36.3289 48.1235Z" fill="#428DFF"/>
<path d="M26.0186 58.5264L24.6014 60.0772L22.1324 57.8211L23.5495 56.2702L26.0186 58.5264Z" fill="#FFB2BF"/>
<path d="M26.0186 58.5259L25.553 59.0354L23.084 56.7792L23.5495 56.2697L26.0186 58.5259Z" fill="#F9A0B4"/>
<circle cx="40.9793" cy="35.7909" r="2.48565" fill="#F9CABD"/>
<path d="M39.2164 36.0094C39.1484 34.9825 39.9257 34.0949 40.9526 34.0269C41.9795 33.9588 42.8671 34.7361 42.9351 35.763L43.3077 41.3863C43.3757 42.4132 42.5984 43.3008 41.5715 43.3688C40.5446 43.4368 39.657 42.6595 39.5889 41.6326L39.2164 36.0094Z" fill="#005EEC"/>
<circle cx="41.3262" cy="41.332" r="2.10792" fill="#F9CABD"/>
<path d="M41.4887 39.9822C42.3908 40.0149 43.0955 40.7728 43.0627 41.6749C43.03 42.577 42.2721 43.2817 41.37 43.249L35.6212 43.0402C34.7191 43.0074 34.0144 42.2495 34.0471 41.3475C34.0799 40.4454 34.8377 39.7406 35.7398 39.7734L41.4887 39.9822Z" fill="#FFB2BF"/>
<ellipse cx="35.0736" cy="41.4298" rx="2.08399" ry="1.68685" transform="rotate(-9.27001 35.0736 41.4298)" fill="#FFB2BF"/>
<path d="M34.6768 41.7636C34.9332 41.7289 35.1693 41.9086 35.2041 42.165C35.2388 42.4215 35.0591 42.6576 34.8027 42.6923L33.3548 42.8886C33.0983 42.9234 32.8622 42.7437 32.8275 42.4872C32.7927 42.2308 32.9724 41.9947 33.2289 41.9599L34.6768 41.7636Z" fill="#FFB2BF"/>
<path d="M33.75 40.999C34.0064 40.9643 34.2425 41.1441 34.2772 41.4005C34.3119 41.657 34.1322 41.893 33.8757 41.9278L32.4278 42.1238C32.1713 42.1585 31.9353 41.9787 31.9006 41.7223C31.8658 41.4658 32.0456 41.2298 32.3021 41.195L33.75 40.999Z" fill="#FFB2BF"/>
<path d="M34.3848 39.9743C34.6412 39.9396 34.8773 40.1193 34.9121 40.3757C34.9468 40.6322 34.7671 40.8683 34.5107 40.903L33.0628 41.0993C32.8063 41.1341 32.5702 40.9544 32.5355 40.6979C32.5007 40.4414 32.6804 40.2054 32.9369 40.1706L34.3848 39.9743Z" fill="#FFB2BF"/>
<path d="M36.132 39.7622C36.3741 39.8538 36.496 40.1243 36.4044 40.3664C36.3128 40.6084 36.0424 40.7304 35.8003 40.6388L34.4338 40.1216C34.1917 40.03 34.0698 39.7595 34.1614 39.5174C34.253 39.2754 34.5235 39.1534 34.7655 39.245L36.132 39.7622Z" fill="#FFB2BF"/>
<path d="M40.0693 41.5505C40.3929 41.5622 40.6457 41.8341 40.634 42.1577C40.6222 42.4813 40.3504 42.7341 40.0268 42.7224L37.7076 42.6381C37.384 42.6264 37.1312 42.3545 37.1429 42.0309C37.1547 41.7073 37.4265 41.4545 37.7501 41.4663L40.0693 41.5505Z" fill="#FDC3CD"/>
<path d="M40.3132 30.6657C39.7686 31.4313 38.8781 31.875 37.9388 31.8487L37.2377 31.8292C37.0176 31.8236 36.8007 31.7749 36.5993 31.6857L36.3555 30.3015L40.1315 29.6366L40.3132 30.6657Z" fill="#F9A0B4"/>
<path d="M36.929 25.0924L39.1978 25.1546C40.0448 25.1778 40.7126 25.8832 40.6894 26.7302L40.6318 28.8303C40.5888 30.3859 39.2932 31.6124 37.7376 31.5701L37.0354 31.5509C36.0995 31.5252 35.3616 30.7457 35.3872 29.8098L35.4789 26.4651C35.5003 25.6856 36.1495 25.071 36.929 25.0924V25.0924Z" fill="#FFB2BF"/>
<path d="M39.7268 25.2629C39.6509 25.2498 39.5741 25.2422 39.4971 25.2403L37.2288 25.1756C36.4492 25.1546 35.7999 25.7691 35.778 26.5488L35.683 29.8953C35.6638 30.6084 36.0926 31.2573 36.756 31.5194C35.9432 31.3604 35.3644 30.6372 35.3874 29.8093L35.4786 26.4673C35.5008 25.6879 36.15 25.0737 36.9294 25.0948L39.1977 25.1594C39.3788 25.1619 39.558 25.197 39.7268 25.2629Z" fill="#FDC3CD"/>
<path d="M35.3165 30.4967C35.3469 29.386 36.272 28.5103 37.3827 28.5407C38.4934 28.5712 39.3691 29.4962 39.3387 30.607L39.3166 31.4139C39.2861 32.5246 38.361 33.4003 37.2503 33.3699C36.1396 33.3394 35.2639 32.4143 35.2943 31.3036L35.3165 30.4967Z" fill="#622F2B"/>
<path d="M34.8399 30.4966C34.8703 29.3859 35.7954 28.5102 36.9061 28.5406C38.0168 28.571 38.8926 29.4961 38.8621 30.6068L38.84 31.4137C38.8096 32.5244 37.8845 33.4002 36.7738 33.3697C35.6631 33.3393 34.7873 32.4142 34.8178 31.3035L34.8399 30.4966Z" fill="#622F2B"/>
<path d="M36.9859 33.3667C36.9251 33.3706 36.8636 33.3712 36.8022 33.3699H36.7459C35.6509 33.34 34.7875 32.4282 34.8171 31.3332L34.8411 30.4697C34.8546 29.9427 35.0772 29.4429 35.4598 29.0803C35.8424 28.7177 36.3535 28.5223 36.8804 28.537H36.9367H36.982C35.9598 28.6038 35.1565 29.4379 35.1283 30.4619L35.105 31.3254C35.0719 32.4043 35.9078 33.3116 36.9859 33.3667Z" fill="#774340"/>
<path d="M39.653 26.1286L40.7218 26.1579C40.9917 26.1652 41.2046 26.3901 41.1972 26.66L41.1471 28.4846C41.1391 28.7785 40.8943 29.0102 40.6004 29.0022L40.5966 29.0021C40.032 28.9866 39.5869 28.5164 39.6024 27.9518L39.6523 26.1285L39.653 26.1286Z" fill="#622F2B"/>
<circle cx="40.4755" cy="28.3061" r="0.888056" fill="#FFB2BF"/>
<path d="M34.9824 25.6263C35.0037 24.8481 35.6519 24.2345 36.4302 24.2558L39.7606 24.3471C40.5388 24.3684 41.1525 25.0166 41.1311 25.7949C41.1098 26.5731 40.4616 27.1867 39.6833 27.1654L36.3529 27.0741C35.5747 27.0528 34.961 26.4046 34.9824 25.6263Z" fill="#622F2B"/>
<path d="M36.1978 25.659C36.2107 25.1885 36.6026 24.8176 37.073 24.8305L39.0877 24.8857C39.5582 24.8986 39.9291 25.2904 39.9162 25.7609C39.9033 26.2313 39.5115 26.6023 39.041 26.5894L37.0263 26.5342C36.5559 26.5213 36.1849 26.1294 36.1978 25.659Z" fill="#774340"/>
<path d="M40.6377 24.6847C40.5041 24.639 40.3643 24.614 40.2231 24.6103L36.8927 24.5191C36.519 24.5089 36.1565 24.6475 35.8851 24.9046C35.6136 25.1616 35.4554 25.516 35.4452 25.8897V25.9298C35.4452 26.3407 35.6248 26.731 35.9368 26.9983C35.3657 26.8044 34.9816 26.2684 34.9814 25.6653C34.9814 25.6523 34.9814 25.6381 34.9814 25.6252C35.0033 24.8479 35.6503 24.235 36.4277 24.2552L39.7581 24.3464C40.0815 24.3545 40.3922 24.474 40.6377 24.6847Z" fill="#774340"/>
<path d="M36.647 29.09C36.646 29.2459 36.7067 29.3959 36.8158 29.5072C36.8294 29.5208 36.8436 29.5337 36.8578 29.546C36.9626 29.6336 37.0945 29.6818 37.231 29.6825H37.255C37.5613 29.6847 37.8179 29.4514 37.8449 29.1463C37.8449 29.1307 37.8449 29.1139 37.8449 29.0978C37.8454 29.0675 37.8337 29.0382 37.8124 29.0167C37.7911 28.9951 37.762 28.9831 37.7317 28.9833L36.7615 28.9768C36.7313 28.9766 36.7023 28.9885 36.6808 29.0097C36.6593 29.0309 36.6472 29.0598 36.647 29.09Z" fill="#962F4A"/>
<path d="M37.2441 29.592C37.244 29.6224 37.2468 29.6527 37.2526 29.6826C37.5587 29.6844 37.8152 29.4513 37.8424 29.1464C37.8004 29.1341 37.7569 29.1275 37.7131 29.127C37.4556 29.1269 37.2463 29.3345 37.2441 29.592Z" fill="#E1617F"/>
<path d="M36.7837 28.9768C36.7876 29.0926 36.9648 29.1857 37.1841 29.1877C37.4033 29.1896 37.5812 29.0978 37.5864 28.982L36.7837 28.9768Z" fill="white"/>
<path d="M37.458 29.6476C37.3872 29.6082 37.3075 29.5877 37.2264 29.588C37.1514 29.5871 37.0772 29.6037 37.0098 29.6366C37.0802 29.6663 37.1558 29.6819 37.2323 29.6825H37.2562C37.325 29.6829 37.3933 29.671 37.458 29.6476Z" fill="white"/>
<circle cx="38.0998" cy="28.2486" r="0.201801" fill="#592702"/>
<circle cx="36.1964" cy="28.1994" r="0.201801" fill="#592702"/>
<path d="M23.4142 59.4257L20.8354 57.4296C21.1899 56.9628 21.7677 56.7221 22.3487 56.7992C22.9298 56.8764 23.4247 57.2595 23.6451 57.8027C23.8655 58.3458 23.7773 58.9655 23.4142 59.4257Z" fill="#0047B3"/>
<path d="M20.3257 57.5137L20.6491 57.1327C20.7886 56.9671 21.0329 56.9388 21.2066 57.068L24.6482 59.63C24.7615 59.7144 24.8349 59.8418 24.8511 59.9822C24.8673 60.1225 24.8248 60.2633 24.7336 60.3712L24.1386 61.0782L20.3257 57.5137Z" fill="#FFF2EE"/>
<path d="M24.3133 60.868L24.1193 61.0957C24.0597 61.1663 23.9746 61.2102 23.8826 61.2178C23.7906 61.2255 23.6993 61.1962 23.629 61.1365L20.0955 58.147C19.8579 57.9444 19.8289 57.5877 20.0308 57.3494C20.2333 57.1115 20.5902 57.0825 20.8283 57.2848L21.8179 58.1256C22.0212 58.2985 22.0466 58.6031 21.8749 58.8073L24.3133 60.868Z" fill="#0047B3"/>
<path d="M40.8053 28.3204C40.8083 28.4895 40.7097 28.644 40.555 28.7124C40.518 28.7272 40.4761 28.7227 40.4431 28.7004C40.4101 28.6781 40.3903 28.641 40.3901 28.6011L40.3804 28.0546C40.3795 28.0128 40.4002 27.9734 40.4351 27.9504C40.4701 27.9274 40.5144 27.924 40.5524 27.9414C40.7036 28.0074 40.8024 28.1555 40.8053 28.3204Z" fill="#F9A0B4"/>
<path d="M34.2021 44.2283L33.3569 44.2174L33.3589 44.0557C33.3609 43.9024 33.4867 43.7798 33.64 43.7818L33.9304 43.7855C34.0836 43.7875 34.2062 43.9134 34.2042 44.0666L34.2021 44.2283H34.2021Z" fill="#D7E2FF"/>
<path d="M35.0479 44.2394L34.2026 44.2285L34.2046 44.0668C34.2066 43.9135 34.3324 43.7909 34.4857 43.7929L34.7754 43.7966C34.9287 43.7986 35.0513 43.9245 35.0493 44.0777L35.0472 44.2394L35.0479 44.2394Z" fill="#D7E2FF"/>
<path d="M35.8926 44.2498L35.0473 44.2388L35.0494 44.0772C35.0514 43.9239 35.1772 43.8013 35.3304 43.8033L35.6201 43.807C35.7734 43.809 35.896 43.9348 35.894 44.0881L35.8919 44.2497L35.8926 44.2498Z" fill="#D7E2FF"/>
<path d="M36.7381 44.2602L35.8928 44.2493L35.8949 44.0876C35.8969 43.9344 36.0227 43.8118 36.176 43.8138L36.467 43.8175C36.6202 43.8195 36.7428 43.9453 36.7409 44.0986L36.7388 44.2603L36.7381 44.2602Z" fill="#D7E2FF"/>
<path d="M37.583 44.2719L36.7377 44.2609L36.7398 44.0992C36.7418 43.946 36.8676 43.8234 37.0208 43.8254L37.3106 43.8291C37.4638 43.8311 37.5864 43.9569 37.5844 44.1102L37.5824 44.2718L37.583 44.2719Z" fill="#D7E2FF"/>
<path d="M38.4282 44.2823L37.5829 44.2714L37.585 44.1097C37.587 43.9565 37.7128 43.8339 37.8661 43.8359L38.1558 43.8396C38.309 43.8416 38.4316 43.9674 38.4297 44.1207L38.4276 44.2823L38.4282 44.2823Z" fill="#D7E2FF"/>
<path d="M39.2739 44.2927L38.4286 44.2818L38.4307 44.1201C38.4327 43.9669 38.5585 43.8443 38.7118 43.8463L39.0015 43.85C39.1547 43.852 39.2773 43.9778 39.2754 44.131L39.2733 44.2927L39.2739 44.2927Z" fill="#D7E2FF"/>
<path d="M40.396 44.4143C40.3936 44.6045 40.2374 44.7567 40.0472 44.7542L31.0878 44.6385C30.8976 44.636 30.7454 44.4799 30.7479 44.2897C30.7504 44.0995 30.9065 43.9473 31.0967 43.9497L40.0561 44.0654C40.2463 44.0679 40.3985 44.2241 40.396 44.4143Z" fill="#64617F"/>
<path d="M33.3984 44.6714L25.3483 44.5679C25.0108 44.5637 24.7194 44.3304 24.6414 44.002L23.1537 37.7487C23.102 37.5281 23.1547 37.2959 23.2965 37.1191C23.4383 36.9423 23.6535 36.8406 23.8801 36.8432L30.9852 36.9344C31.3226 36.9391 31.6137 37.1722 31.6921 37.5003L33.3984 44.6714Z" fill="#7D7BA3"/>
<path d="M23.1522 37.7487L24.6399 44.002C24.7179 44.3304 25.0093 44.5637 25.3468 44.5679L33.3969 44.6714L33.2326 43.9806L26.872 43.8985C26.5344 43.8945 26.2428 43.6611 26.165 43.3325L24.6774 37.0793C24.6596 37.0048 24.6535 36.928 24.6593 36.8516L23.8799 36.8413C23.6526 36.8381 23.4366 36.9399 23.2944 37.1173C23.1522 37.2946 23.0998 37.5276 23.1522 37.7487Z" fill="#64617F"/>
<ellipse cx="27.7745" cy="40.9517" rx="0.402957" ry="0.402956" fill="#D7E2FF"/>
<path d="M27.2271 41.5481C27.3978 41.8225 27.7185 41.9652 28.0367 41.9082C28.3548 41.8513 28.6061 41.6063 28.6712 41.2897C28.7362 40.9731 28.6017 40.6489 28.3318 40.4712C28.5262 40.7862 28.476 41.1939 28.2109 41.4523C27.9459 41.7107 27.537 41.7505 27.2271 41.5481H27.2271Z" fill="#D7E2FF"/>
<path d="M39.0918 15.0369C39.3431 15.6465 39.0526 16.3445 38.4429 16.5958L37.8407 16.844C37.7197 16.5505 37.7206 16.2209 37.8432 15.928C37.9657 15.6352 38.1998 15.4032 38.4938 15.2833L39.0918 15.0369L39.0918 15.0369Z" fill="#6E8EC8"/>
<path d="M37.5586 13.8724C38.1683 14.1237 38.4588 14.8217 38.2075 15.4313L37.9593 16.0335C37.3496 15.7822 37.0591 15.0843 37.3104 14.4746L37.5586 13.8724Z" fill="#6285B7"/>
<path d="M37.8438 16.8413L37.2458 16.5948C36.9523 16.4744 36.7188 16.2422 36.5969 15.9493C36.4749 15.6565 36.4744 15.3272 36.5956 15.034L37.1978 15.2822C37.8065 15.5346 38.0956 16.2324 37.8438 16.8413Z" fill="#6E8EC8"/>
<path d="M39.9316 17.407C39.9316 18.587 38.975 19.5437 37.7949 19.5437C36.6148 19.5437 35.6582 18.587 35.6582 17.407C35.658 17.3246 35.6628 17.2423 35.6724 17.1605C35.6832 17.0663 35.7002 16.973 35.7235 16.8811H39.8669C39.8903 16.9729 39.9072 17.0663 39.9174 17.1605C39.9274 17.2423 39.9321 17.3246 39.9316 17.407Z" fill="#6E8EC8"/>
<rect x="35.3955" y="16.3215" width="4.89822" height="0.559483" rx="0.279741" fill="#6285B7"/>
<path d="M39.9205 17.1605H35.6724C35.6831 17.0663 35.7002 16.973 35.7235 16.8811H39.8669C39.8913 16.9729 39.9093 17.0662 39.9205 17.1605Z" fill="#4575AF"/>
<path d="M49.3262 16.0173C49.5227 16.4942 49.2955 17.0402 48.8186 17.2368L48.348 17.4307C48.1514 16.9538 48.3786 16.4079 48.8555 16.2113L49.3262 16.0173V16.0173Z" fill="#6E8EC8"/>
<path d="M48.1255 15.1073C48.6024 15.3039 48.8296 15.8498 48.6331 16.3267L48.4391 16.7973C47.9622 16.6008 47.7349 16.0548 47.9315 15.5779L48.1255 15.1073V15.1073Z" fill="#6285B7"/>
<path d="M48.3497 17.4313L47.879 17.2373C47.4021 17.0407 47.1749 16.4948 47.3714 16.0179L47.8421 16.2118C48.319 16.4084 48.5462 16.9544 48.3497 17.4313V17.4313Z" fill="#6E8EC8"/>
<path d="M49.9823 17.872C49.9942 18.4771 49.6782 19.0413 49.1561 19.3474C48.634 19.6534 47.9873 19.6534 47.4652 19.3474C46.9431 19.0413 46.6271 18.4771 46.639 17.872C46.6387 17.8072 46.6424 17.7424 46.65 17.678C46.658 17.6042 46.6715 17.5312 46.6901 17.4594H49.9312C49.9653 17.5938 49.9824 17.732 49.9823 17.8707V17.872Z" fill="#6E8EC8"/>
<rect x="46.4331" y="17.0233" width="3.83165" height="0.437237" rx="0.218618" fill="#6285B7"/>
<path d="M49.9714 17.6792H46.6475C46.6555 17.6054 46.6689 17.5324 46.6876 17.4606H49.9287C49.9476 17.5325 49.9618 17.6055 49.9714 17.6792Z" fill="#4575AF"/>
<path d="M42.1423 11.6827H43.1545C43.4685 11.6827 43.723 11.9373 43.723 12.2513V19.5465H41.5737V12.2513C41.5737 11.9373 41.8283 11.6827 42.1423 11.6827Z" fill="#6E8EC8"/>
<ellipse cx="42.6489" cy="15.6133" rx="0.693371" ry="0.69337" fill="#4575AF"/>
<path d="M42.6487 16.114C42.6234 16.1173 42.5979 16.1189 42.5724 16.1185C42.2927 16.1185 42.0659 15.8917 42.0659 15.612C42.0659 15.3323 42.2927 15.1056 42.5724 15.1056C42.5986 15.1054 42.6248 15.1076 42.6506 15.1121C42.4043 15.1508 42.2228 15.363 42.2228 15.6124C42.2228 15.8617 42.4043 16.0739 42.6506 16.1127L42.6487 16.114Z" fill="#6E8EC8"/>
<path d="M44.1483 13.682H44.9011C45.1351 13.682 45.3248 13.8717 45.3248 14.1057V19.5465H43.7246V14.1057C43.7246 13.8717 43.9143 13.682 44.1483 13.682V13.682Z" fill="#6285B7"/>
<ellipse cx="44.5257" cy="16.6127" rx="0.517439" ry="0.51744" fill="#6E8EC8"/>
<path d="M44.5259 16.9859C44.5065 16.9893 44.4868 16.991 44.4671 16.9911C44.2585 16.9911 44.0894 16.822 44.0894 16.6133C44.0894 16.4047 44.2585 16.2356 44.4671 16.2356C44.4868 16.2355 44.5065 16.237 44.5259 16.2401C44.343 16.2697 44.2086 16.4277 44.2086 16.613C44.2086 16.7983 44.343 16.9563 44.5259 16.9859Z" fill="#E9F1FF"/>
<path d="M20.658 60.4276H19.8818V16.4089C19.9118 13.8788 21.9713 11.8435 24.5016 11.8435C27.0319 11.8435 29.0914 13.8788 29.1214 16.4089V21.4708H28.3426V16.4089C28.3153 14.3056 26.6025 12.6149 24.499 12.6149C22.3955 12.6149 20.6827 14.3056 20.6554 16.4089L20.658 60.4276Z" fill="#34629B"/>
<circle cx="28.8197" cy="24.6303" r="2.3841" fill="#BBD7FF"/>
<path d="M31.2038 24.6303C31.2036 25.3449 30.883 26.0217 30.3302 26.4745C29.7774 26.9273 29.0507 27.1084 28.3501 26.9679C29.4638 26.7444 30.2653 25.7663 30.2653 24.6303C30.2653 23.4944 29.4638 22.5162 28.3501 22.2928C29.0507 22.1523 29.7774 22.3333 30.3302 22.7861C30.883 23.239 31.2036 23.9158 31.2038 24.6303Z" fill="#D4E6FC"/>
<path d="M33.8006 24.6304H23.6665C23.6665 21.1377 25.9361 18.3112 28.7335 18.3112C31.5309 18.3112 33.8006 21.1403 33.8006 24.6304Z" fill="#547DBA"/>
<path d="M33.8006 24.6304H23.6665C23.6665 21.1377 25.9361 18.3112 28.7335 18.3112C31.5309 18.3112 33.8006 21.1403 33.8006 24.6304Z" fill="#547DBA"/>
<path d="M33.7999 24.6304H32.0943C32.0943 21.5031 30.2729 18.9062 27.8804 18.4011C28.1599 18.3413 28.445 18.3111 28.7309 18.3112C31.5322 18.3112 33.7999 21.1403 33.7999 24.6304Z" fill="#34629B"/>
<rect x="15.1616" y="59.8331" width="10.2169" height="1.18753" rx="0.593763" fill="#547DBA"/>
<path d="M25.3786 60.4275C25.3786 60.7554 25.1127 61.0213 24.7848 61.0213H23.0708C23.2877 61.0284 23.4913 60.9168 23.6019 60.73C23.7125 60.5433 23.7125 60.3111 23.6019 60.1243C23.4913 59.9376 23.2877 59.8259 23.0708 59.8331H24.7855C25.1132 59.8338 25.3786 60.0997 25.3786 60.4275Z" fill="#34629B"/>
<path d="M46.5734 44.2284V61.1163H41.02V49.7786C41.0202 48.3061 41.6054 46.894 42.647 45.8531C43.6885 44.8121 45.1009 44.2277 46.5734 44.2284V44.2284Z" fill="#BBD7FF"/>
<path d="M46.5737 44.2284H60.5705V60.2257C60.5705 60.7179 60.1714 61.117 59.6792 61.117H46.5737L46.5737 44.2284Z" fill="#34629B"/>
<rect x="42.9795" y="48.8505" width="1.32788" height="9.9038" rx="0.663939" fill="#D4E6FC"/>
</svg>
