<svg width="34" height="24" viewBox="0 0 34 24" fill="none" xmlns="http://www.w3.org/2000/svg">
<path d="M33.1975 2.97611V13.0253C33.1975 13.0253 31.0467 13.4491 30.6036 13.5048C30.1619 13.5604 28.7739 14.0085 27.768 13.0417C26.2167 11.5549 20.705 6.0736 20.705 6.0736C20.705 6.0736 19.7547 5.14108 18.2288 5.947C16.8281 6.68527 14.7517 7.76722 13.8844 8.18854C12.2449 9.06117 10.8861 7.67666 10.8861 6.62204C10.8861 5.804 11.3965 5.24879 12.1262 4.84047C14.1038 3.64164 18.2719 1.30204 20.0079 0.379644C21.0632 -0.181593 21.8235 -0.229686 23.2722 0.990782C25.0565 2.49137 26.6443 3.85919 26.6443 3.85919C26.6443 3.85919 27.1622 4.29142 27.9882 4.11734C30.0164 3.68852 33.1975 2.97611 33.1975 2.97611ZM11.2594 20.0035C11.5264 19.3178 11.4371 18.5508 10.9254 18.0246C10.4656 17.5539 9.79422 17.4298 9.15408 17.5765C9.33312 16.9416 9.23425 16.2658 8.77195 15.7889C8.31072 15.3194 7.64063 15.1929 7.00056 15.3409C7.17826 14.707 7.07967 14.0313 6.61709 13.5558C5.89276 12.8128 4.63987 12.8447 3.8168 13.6292C2.99809 14.4149 2.47362 15.8382 3.20432 16.676C3.93382 17.5096 4.77202 17.0024 5.41102 16.8568C5.23326 17.4908 4.70062 18.0805 5.35657 18.9103C6.01191 19.7405 6.9242 19.2368 7.56387 19.0926C7.3855 19.7241 6.87611 20.3731 7.50687 21.1425C8.14333 21.9142 9.18576 21.503 9.87426 21.2892C9.60855 21.9723 9.03981 22.7087 9.77051 23.5339C10.5001 24.3651 12.1861 23.9805 13.0096 23.1948C13.8309 22.4092 13.9098 21.164 13.1874 20.4187C12.6886 19.9074 11.9451 19.7884 11.2594 20.0035ZM26.2863 14.7754C20.333 8.82198 23.1332 11.6233 19.9294 8.41265C19.9294 8.41265 18.9665 7.45408 17.6975 8.0109C16.8066 8.40127 15.6597 8.9333 14.7967 9.33948C13.8484 9.83675 13.1659 9.99067 12.8455 9.98853C11.0122 9.97654 9.52482 8.50301 9.52482 6.67154C9.52482 5.48342 10.1556 4.44903 11.0963 3.86187C12.4192 2.94644 15.4642 1.32683 15.4642 1.32683C15.4642 1.32683 14.5366 0.151371 12.5045 0.151371C10.473 0.151371 6.22867 2.9319 6.22867 2.9319C6.22867 2.9319 5.02461 3.70313 3.30821 3.00846L0 1.85645V13.3556C0 13.3556 0.944639 13.629 1.79343 13.9757C1.98513 13.429 2.29445 12.9242 2.72353 12.5072C4.13168 11.166 6.46571 11.1521 7.74687 12.4713C8.13281 12.8723 8.40215 13.3507 8.53959 13.8795C9.05582 14.0388 9.52341 14.3211 9.89918 14.7082C10.2863 15.1066 10.5546 15.5876 10.6932 16.1138C11.2088 16.2733 11.6757 16.5566 12.0528 16.944C12.4774 17.3819 12.7602 17.9107 12.8923 18.4838C13.4313 18.6408 13.9184 18.9329 14.3107 19.334C15.0807 20.1248 15.3539 21.1978 15.1884 22.2328C15.1897 22.2328 15.1922 22.2328 15.1935 22.2351C15.206 22.2516 15.6705 22.7694 15.9601 23.0614C16.5277 23.6296 17.4545 23.6296 18.0239 23.0614C18.5895 22.4935 18.592 21.5685 18.0239 20.9977C18.0035 20.9774 15.9761 18.8567 16.1393 18.6923C16.3013 18.529 18.8843 21.2167 18.9324 21.2658C19.4992 21.8328 20.4254 21.8328 20.9948 21.2658C21.5629 20.6979 21.5617 19.7729 20.9948 19.2034C20.967 19.1769 20.8507 19.0655 20.8076 19.0212C20.8076 19.0212 18.2466 16.7398 18.4415 16.5449C18.6388 16.3487 21.8199 19.3174 21.8251 19.3174C22.3969 19.8323 23.2777 19.8285 23.8278 19.2781C24.3631 18.7429 24.3745 17.8963 23.9 17.3259C23.89 17.2955 21.4757 14.7725 21.6641 14.5826C21.8553 14.3903 24.2442 16.8502 24.2492 16.8553C24.8148 17.4221 25.7423 17.4221 26.3117 16.8553C26.8786 16.2883 26.8786 15.3622 26.3117 14.7902C26.304 14.7854 26.2939 14.7803 26.2863 14.7754Z" fill="#030104"/>
</svg>
