<svg width="302" height="302" viewBox="0 0 302 302" fill="none" xmlns="http://www.w3.org/2000/svg">
<path d="M290.735 188.904V191.985C290.737 194.872 290.421 197.75 289.79 200.567C289.494 201.902 289.127 203.22 288.689 204.515C287.963 206.662 287.052 208.741 285.967 210.731C285.819 211 285.671 211.266 285.517 211.53C284.108 213.972 282.439 216.254 280.539 218.337C279.728 219.225 278.873 220.089 277.982 220.903C277.846 221.03 277.706 221.154 277.567 221.279L277.526 221.314L277.049 221.734C276.827 221.924 276.605 222.11 276.381 222.294C274.351 223.961 272.159 225.418 269.837 226.644C269.132 227.017 268.413 227.37 267.685 227.698C266.242 228.353 264.759 228.918 263.246 229.388C262.888 229.5 262.527 229.607 262.166 229.708C258.707 230.678 255.132 231.169 251.541 231.167H235.645C233.5 231.166 231.443 232.018 229.927 233.534C228.411 235.051 227.56 237.108 227.562 239.252V269.417H92.3999V239.255C92.4003 238.339 92.2452 237.429 91.9412 236.565C91.8909 236.42 91.8347 236.269 91.7755 236.136C90.9285 234.117 89.3004 232.527 87.2621 231.729C86.3199 231.357 85.3155 231.167 84.3025 231.17H57.5654C57.1422 231.17 56.7249 231.17 56.3047 231.152C50.5586 230.977 44.9153 229.583 39.7487 227.062C39.4527 226.923 39.1834 226.784 38.9022 226.636C36.5272 225.41 34.2788 223.952 32.1898 222.285C31.959 222.101 31.7311 221.915 31.5032 221.726L31.3493 221.598C31.2368 221.504 31.1244 221.409 31.0149 221.302L30.5443 220.912C29.9346 220.376 29.3427 219.817 28.7685 219.242C28.4746 218.948 28.1845 218.652 27.8984 218.355C25.9393 216.272 24.2034 213.991 22.7191 211.547C20.6521 208.131 19.1003 204.428 18.114 200.558C17.968 199.99 17.8348 199.416 17.7144 198.836C17.1364 196.077 16.8458 193.265 16.8473 190.446C16.8473 189.191 16.9035 187.945 17.016 186.719C17.1336 185.394 17.3183 184.075 17.5694 182.768C17.6138 182.526 17.6641 182.286 17.7144 182.046C17.7825 181.706 17.8595 181.368 17.9394 181.031C18.1505 180.143 18.3902 179.265 18.6585 178.397C18.8105 177.912 18.9703 177.429 19.138 176.95C20.0626 174.309 21.2598 171.772 22.7102 169.379C22.802 169.228 22.8937 169.083 22.9884 168.929C23.0831 168.775 23.1453 168.678 23.2252 168.55C25.1782 165.5 27.5257 162.72 30.2069 160.284C30.8955 159.657 31.6068 159.055 32.3408 158.479C32.4532 158.384 32.5657 158.298 32.6782 158.21L32.8617 158.07C33.6785 157.443 34.521 156.851 35.3892 156.295C38.5312 154.246 41.9441 152.646 45.5288 151.542C45.9461 151.411 46.3693 151.287 46.7925 151.172L46.8724 151.151C48.0119 150.84 49.172 150.577 50.3499 150.37C51.2437 150.208 52.1474 150.077 53.0609 149.976C54.5558 149.812 56.0586 149.73 57.5625 149.73H88.952C91.1487 149.73 93.2909 149.047 95.0813 147.774C95.3359 147.593 95.5845 147.401 95.8212 147.2C96.058 146.999 96.2415 146.827 96.4368 146.632C98.3573 144.715 99.466 142.132 99.5326 139.419C99.5326 139.33 99.5326 139.239 99.5326 139.147C99.5326 139.105 99.5326 139.064 99.5326 139.025C99.4859 134.824 96.9622 131.046 93.0984 129.395C92.4479 129.12 91.7718 128.91 91.08 128.767C90.9497 128.741 90.8166 128.714 90.6834 128.693C90.1112 128.598 89.5321 128.551 88.952 128.551H36.0107H35.3892C34.5439 128.531 33.7003 128.467 32.8617 128.359L32.6782 128.338L32.4651 128.309L32.3408 128.291C27.1021 127.512 22.2541 125.065 18.5165 121.312C18.2412 121.037 17.9719 120.756 17.7115 120.469C16.7004 119.36 15.793 118.162 15.0005 116.888C14.7321 116.456 14.4756 116.015 14.231 115.565C13.546 114.301 12.9745 112.979 12.5233 111.614C10.5875 105.781 10.8924 99.4373 13.3786 93.8176C13.8505 92.7536 14.3964 91.7241 15.0123 90.7366C15.8048 89.4627 16.7123 88.264 17.7233 87.1555C17.9838 86.8595 18.2531 86.5873 18.5283 86.312C22.3496 82.4789 27.3262 80.0099 32.69 79.2859L32.8705 79.2652C33.7092 79.1575 34.5528 79.0932 35.398 79.0728C35.5953 79.0728 35.8025 79.0728 36.0196 79.0728C39.8122 79.0776 43.5313 78.0262 46.7599 76.0363L46.8043 76.0096C47.7329 75.434 48.6137 74.7847 49.4384 74.0682C49.7551 73.7959 50.0629 73.5147 50.3618 73.2217C51.3763 72.2339 52.2849 71.1428 53.0728 69.9661C53.3825 69.5025 53.6785 69.024 53.9607 68.5307C54.6658 67.2637 55.2342 65.9254 55.6565 64.5382C55.8888 63.7728 56.0747 62.994 56.2129 62.2061C56.4047 61.1458 56.5125 60.0721 56.5355 58.9949C56.5355 58.8558 56.5355 58.7167 56.5355 58.5746V37.6799C56.5347 35.5357 57.3859 33.4791 58.9018 31.9627C60.4177 30.4462 62.474 29.5942 64.6182 29.5942H253.009C261.22 29.5876 268.898 33.6629 273.495 40.4678C273.587 40.598 273.672 40.7283 273.758 40.8585C274.495 41.9874 275.138 43.1753 275.679 44.41C276.081 45.3229 276.426 46.26 276.712 47.2157C277.782 50.7918 278.032 54.5631 277.443 58.2491C277.236 59.5868 276.916 60.9046 276.487 62.1883C274.502 68.0938 270.365 73.0347 264.9 76.0274C264.279 76.3707 263.641 76.6854 262.988 76.9715C262.106 77.3618 261.2 77.6988 260.277 77.9807C257.926 78.7012 255.48 79.0663 253.02 79.064H232.895C231.169 79.0589 229.457 79.3657 227.84 79.9696L227.624 80.0525C227.068 80.2707 226.526 80.5237 226.002 80.8101C225.629 81.0143 225.265 81.2363 224.913 81.4731C220.913 84.1394 218.511 88.6287 218.511 93.4358V93.8057C218.542 95.1472 218.764 96.4775 219.169 97.7568C220.153 100.892 222.18 103.597 224.913 105.422C225.763 105.992 226.672 106.469 227.624 106.843C229.302 107.505 231.091 107.843 232.895 107.84C233.159 107.84 233.419 107.84 233.679 107.858C236.831 107.983 239.897 108.912 242.588 110.557C242.907 110.749 243.218 110.951 243.523 111.164C243.736 111.312 243.943 111.46 244.148 111.62C244.542 111.919 244.925 112.234 245.296 112.564C246.31 113.463 247.221 114.471 248.013 115.571C250.313 118.747 251.549 122.57 251.544 126.492V139.218C251.538 144.394 254.603 149.08 259.348 151.148C259.644 151.278 259.94 151.4 260.263 151.506C260.437 151.568 260.615 151.624 260.792 151.678C261.497 151.888 262.225 152.119 262.974 152.379C264.48 152.891 266.063 153.504 267.682 154.229C271.366 155.853 274.815 157.964 277.937 160.506C278.882 161.283 279.787 162.107 280.648 162.975C281.286 163.614 281.902 164.285 282.498 164.987C283.464 166.118 284.354 167.311 285.162 168.559L285.404 168.938C286.968 171.439 288.193 174.136 289.048 176.959C289.194 177.432 289.33 177.915 289.456 178.406C289.678 179.258 289.876 180.137 290.048 181.04C290.155 181.608 290.246 182.188 290.344 182.777C290.521 184.044 290.64 185.361 290.708 186.728C290.726 187.437 290.735 188.162 290.735 188.904Z" fill="#F3F4FE"/>
<path d="M228.198 236.136C227.785 237.124 227.573 238.184 227.574 239.255V240.084H92.3999V239.255C92.4002 238.339 92.2451 237.429 91.9411 236.565C91.8908 236.42 91.8346 236.269 91.7754 236.136L228.198 236.136Z" fill="#EDEEFE"/>
<path d="M289.806 200.558C289.509 201.893 289.142 203.211 288.705 204.506H19.3395C18.864 203.212 18.4551 201.894 18.1143 200.558H289.806Z" fill="#EDEEFE"/>
<path d="M285.398 168.929H22.9883C23.0652 168.802 23.1451 168.678 23.225 168.55C24.0146 167.314 24.8712 166.121 25.791 164.978H282.501C283.467 166.109 284.356 167.302 285.164 168.55L285.398 168.929Z" fill="#EDEEFE"/>
<path d="M251.547 129.395V133.346H97.8133C96.6644 131.594 95.0245 130.22 93.0986 129.395H251.547Z" fill="#EDEEFE"/>
<path d="M219.174 97.7684H12.0024C12.3477 96.4146 12.8081 95.0927 13.3787 93.8174H218.517C218.548 95.1589 218.77 96.4891 219.174 97.7684Z" fill="#EDEEFE"/>
<path d="M264.889 76.0273C264.267 76.3707 263.63 76.6854 262.977 76.9715C262.094 77.3618 261.189 77.6988 260.266 77.9807C257.914 78.7011 255.468 79.0662 253.009 79.0639H232.884C231.162 79.0603 229.453 79.3671 227.84 79.9695H29.3252C30.4255 79.661 31.5459 79.4296 32.6784 79.277L32.859 79.2563C33.6976 79.1485 34.5412 79.0843 35.3865 79.0639C35.5838 79.0639 35.7909 79.0639 36.008 79.0639C39.8006 79.0687 43.5197 78.0172 46.7484 76.0273L264.889 76.0273Z" fill="#EDEEFE"/>
<path d="M275.679 44.3981H56.5205V40.45H273.495C273.586 40.5802 273.672 40.7104 273.758 40.8406C274.495 41.9714 275.138 43.1613 275.679 44.3981Z" fill="#EDEEFE"/>
<path d="M150.077 47.553V160.284H30.2131C30.9017 159.657 31.613 159.055 32.3469 158.479C32.4594 158.384 32.5719 158.298 32.6843 158.209L32.8678 158.07C33.6847 157.443 34.5272 156.851 35.3953 156.295C38.5374 154.246 41.9502 152.646 45.5349 151.542C45.5349 151.465 45.5349 151.388 45.5349 151.311L45.5527 151.539C45.97 151.408 46.3932 151.284 46.8164 151.169C47.9825 150.849 49.1663 150.582 50.3679 150.367C51.2617 150.205 52.1654 150.074 53.0789 149.973C54.5738 149.809 56.0766 149.727 57.5805 149.727H88.9522C94.6922 149.729 99.3867 145.154 99.5328 139.416C99.5328 139.327 99.5328 139.235 99.5328 139.144C99.5328 139.102 99.5328 139.061 99.5328 139.022C99.4746 134.045 95.9559 129.781 91.0802 128.779C90.95 128.753 90.8168 128.726 90.6836 128.705C90.1114 128.61 89.5323 128.562 88.9522 128.563H36.0109H35.3894C34.5441 128.543 33.7005 128.479 32.8619 128.371L32.6784 128.35L32.4653 128.32L32.341 128.303C30.4125 128.015 28.5249 127.499 26.7178 126.767V80.8574C28.6323 80.0814 30.6369 79.5494 32.6843 79.274L32.8649 79.2533C33.7035 79.1455 34.5471 79.0813 35.3924 79.0609C35.5897 79.0609 35.7968 79.0609 36.0139 79.0609C40.9441 79.0649 45.7092 77.2852 49.4297 74.0503C49.7464 73.778 50.0542 73.4969 50.3531 73.2039C51.3677 72.216 52.2763 71.1249 53.0641 69.9483C53.3739 69.4846 53.6699 69.0062 53.952 68.5129C55.5777 65.5929 56.4618 62.3185 56.5269 58.9771C56.5269 58.838 56.5269 58.6989 56.5269 58.5568V42.7229H145.105C146.405 42.704 147.659 43.2022 148.591 44.1081C149.524 45.0139 150.058 46.2531 150.077 47.553Z" fill="#C7CCF9"/>
<path d="M143.927 49.2192V160.284H32.8618V158.07C33.6787 157.443 34.5212 156.851 35.3893 156.295C38.5314 154.246 41.9442 152.646 45.5289 151.541C45.5289 151.465 45.5289 151.388 45.5289 151.311L45.5467 151.539C45.964 151.408 46.3872 151.284 46.8104 151.169C47.9765 150.849 49.1603 150.582 50.3619 150.367C51.2557 150.205 52.1594 150.074 53.0729 149.973C54.5678 149.809 56.0706 149.727 57.5745 149.727H88.9522C94.6921 149.729 99.3866 145.154 99.5327 139.416C99.5327 139.327 99.5327 139.235 99.5327 139.144C99.5327 139.102 99.5327 139.061 99.5327 139.022C99.4745 134.045 95.9558 129.781 91.0801 128.779C90.9499 128.753 90.8167 128.726 90.6835 128.705C90.1113 128.61 89.5322 128.562 88.9522 128.563H36.0108H35.3893C34.5441 128.543 33.7004 128.479 32.8618 128.371V79.2651C33.7004 79.1573 34.5441 79.0931 35.3893 79.0727C35.5866 79.0727 35.7938 79.0727 36.0108 79.0727C40.9436 79.0742 45.7101 77.2901 49.4297 74.0503C49.7463 73.778 50.0541 73.4968 50.3531 73.2038C51.3676 72.216 52.2762 71.1249 53.064 69.9483C53.3738 69.4846 53.6698 69.0061 53.9519 68.5129C55.5776 65.5928 56.4617 62.3185 56.5268 58.977C56.5268 58.8379 56.5268 58.6988 56.5268 58.5568V49.2192H143.927Z" fill="#F0F1FC"/>
<path d="M143.927 64.5205V160.284H95.0933V147.762C95.5767 147.421 96.0302 147.038 96.4488 146.62C98.3693 144.703 99.4779 142.12 99.5445 139.407C99.5445 139.318 99.5445 139.227 99.5445 139.135C99.5445 139.094 99.5445 139.052 99.5445 139.014C99.5131 135.632 97.8622 132.47 95.1051 130.511V120.022C95.1051 116.669 97.7243 113.949 100.956 113.949C104.188 113.949 106.804 111.232 106.804 107.879V71.5377C106.803 70.4939 107.027 69.462 107.461 68.513C108.539 66.1029 110.924 64.5429 113.564 64.5205L143.927 64.5205Z" fill="#E5E7FD"/>
<path d="M66.8761 128.554H36.0104H35.3889C34.5437 128.534 33.7 128.47 32.8614 128.362L32.6779 128.341L32.4648 128.312C32.5378 127.68 32.6475 127.054 32.7934 126.435C32.8141 126.341 32.8378 126.243 32.8614 126.139C33.1878 124.838 33.6656 123.58 34.285 122.39C35.7531 119.57 37.9675 117.207 40.6866 115.559C41.8807 114.833 43.1588 114.256 44.4927 113.839L44.5578 113.822L45.1083 113.662C45.3154 113.606 45.5256 113.552 45.7357 113.505C46.2329 113.39 46.742 113.295 47.2569 113.227L47.4819 113.194L47.7778 113.162L47.985 113.141C48.2395 113.117 48.497 113.097 48.7574 113.085C48.9054 113.085 49.0534 113.07 49.1984 113.067H49.6483C53.0986 113.063 56.4709 114.094 59.3291 116.027C59.6724 116.26 60.0098 116.503 60.3354 116.763C60.4479 116.849 60.5544 116.938 60.661 117.024C61.5155 117.73 62.3013 118.516 63.0079 119.371L63.2684 119.696C63.5288 120.022 63.7715 120.359 64.0053 120.703C65.5916 123.045 66.5775 125.741 66.8761 128.554Z" fill="#BAC3F7"/>
<path d="M163.09 164.83C163.09 167.343 160.829 169.379 158.038 169.379H22.7104C22.8791 169.101 23.0508 168.826 23.2254 168.55C25.1763 165.498 27.524 162.718 30.2071 160.284H158.038C160.829 160.284 163.09 162.32 163.09 164.83Z" fill="#C7CCF9"/>
<path d="M103.72 160.284V140.683C103.722 140.298 104.034 139.987 104.419 139.987H120.327C120.711 139.986 121.022 139.673 121.022 139.289V126.267C121.022 125.881 121.335 125.568 121.721 125.568H124.976C125.161 125.568 125.338 125.494 125.469 125.363C125.599 125.232 125.672 125.055 125.672 124.87V120.498C125.672 120.113 125.984 119.8 126.37 119.8H130.963C131.348 119.8 131.66 119.489 131.662 119.104V110.522C131.662 110.337 131.735 110.159 131.867 110.029C131.998 109.898 132.175 109.825 132.36 109.826H135.4C135.786 109.826 136.098 109.513 136.098 109.128V106.31C136.098 106.126 136.172 105.949 136.302 105.818C136.432 105.688 136.609 105.615 136.794 105.615H139.836C140.221 105.614 140.533 105.925 140.535 106.31V109.131C140.535 109.515 140.846 109.827 141.23 109.829H143.219C143.604 109.829 143.916 110.14 143.918 110.524V160.284H103.72Z" fill="#DBDFFC"/>
<path d="M57.7284 128.554H36.0108H35.3893C34.5441 128.534 33.7004 128.47 32.8618 128.362V108.829C34.423 109.209 35.9582 109.688 37.4581 110.264L38.2009 110.56C38.6686 110.757 39.1322 110.955 39.5919 111.152C39.805 111.247 40.0122 111.347 40.2223 111.448C40.8143 111.732 41.4062 112.034 41.9981 112.353C42.1609 112.439 42.3266 112.531 42.4864 112.623C42.7173 112.75 42.9452 112.883 43.1701 113.016C43.395 113.15 43.6111 113.28 43.8301 113.416L43.907 113.466C44.1083 113.591 44.3095 113.718 44.499 113.848C45.961 114.796 47.3554 115.844 48.672 116.985C52.4137 120.217 55.4898 124.146 57.7284 128.554Z" fill="#BAC3F7"/>
<path d="M66.8765 128.554H66.0093C63.5817 121.601 57.0223 116.944 49.6575 116.944C49.326 116.944 48.9975 116.944 48.672 116.973C47.2553 117.051 45.8537 117.304 44.4989 117.725C43.2738 116.928 42.0029 116.204 40.6929 115.556C38.1979 114.315 35.5723 113.356 32.8647 112.697V108.808C34.4259 109.188 35.9611 109.667 37.461 110.243L38.2039 110.539C38.6715 110.737 39.1352 110.934 39.5949 111.131C39.808 111.226 40.0151 111.326 40.2253 111.427C40.8172 111.711 41.4091 112.013 42.001 112.333C42.1638 112.419 42.3295 112.51 42.4894 112.602C42.7202 112.729 42.9481 112.863 43.173 112.996C43.398 113.129 43.614 113.259 43.833 113.395L43.91 113.446C44.1112 113.57 44.3125 113.697 44.5019 113.827L44.567 113.81L45.1175 113.65C45.3247 113.594 45.5348 113.54 45.7449 113.493C46.2421 113.377 46.7512 113.283 47.2662 113.215L47.4911 113.182L47.787 113.15L47.9942 113.129C48.2487 113.105 48.5062 113.084 48.7667 113.073C48.9147 113.073 49.0626 113.058 49.2077 113.055H49.6575C53.1079 113.051 56.4801 114.082 59.3384 116.014C59.6817 116.251 60.0191 116.497 60.3446 116.751C60.4571 116.837 60.5636 116.926 60.6702 117.012C61.5248 117.718 62.3106 118.504 63.0172 119.359L63.2776 119.684C63.5321 120.01 63.7778 120.347 64.0145 120.691C65.5995 123.037 66.5824 125.738 66.8765 128.554Z" fill="#A8B7F4"/>
<path d="M80.1119 150.257V150.663C80.1119 150.663 80.1119 150.982 80.0941 151.142C80.0941 151.252 80.0941 151.364 80.0734 151.474V151.628C80.075 151.653 80.075 151.679 80.0734 151.704V151.879V151.959V152.048V152.151C80.0734 152.151 80.0734 152.246 80.0586 152.293C80.0438 152.341 80.0586 152.353 80.0586 152.382C80.0586 152.492 80.032 152.601 80.0142 152.708C79.9965 152.814 79.9906 152.885 79.9758 152.974L79.958 153.075C79.9403 153.184 79.9225 153.291 79.9018 153.397C79.8722 153.569 79.8367 153.738 79.7982 153.906C79.7996 153.928 79.7996 153.95 79.7982 153.972C79.7982 154.034 79.7716 154.093 79.7568 154.155C79.742 154.217 79.742 154.217 79.7331 154.25C79.7242 154.282 79.7035 154.383 79.6857 154.448L79.6413 154.623C79.6413 154.652 79.6265 154.682 79.6177 154.711C79.5762 154.865 79.5348 155.007 79.4874 155.17L79.4253 155.383C79.4046 155.451 79.3838 155.516 79.3602 155.584C79.2951 155.786 79.227 155.987 79.153 156.176C79.1323 156.227 79.1145 156.28 79.0938 156.33C79.0862 156.353 79.0773 156.376 79.0672 156.398L79.0021 156.57C78.9839 156.621 78.9631 156.672 78.9399 156.721L78.9044 156.813L78.8778 156.872C78.8685 156.902 78.8566 156.932 78.8422 156.961C78.7919 157.085 78.7387 157.206 78.6824 157.328L78.641 157.416C78.5492 157.615 78.4545 157.813 78.345 158.008C78.3036 158.094 78.2592 158.177 78.2148 158.26L78.0668 158.538L77.984 158.689L77.7117 159.154L77.6584 159.243L77.4631 159.539C77.4394 159.577 77.4157 159.615 77.3891 159.654C77.3624 159.692 77.3447 159.725 77.321 159.758L77.247 159.867C77.1671 159.988 77.0813 160.11 76.9984 160.231C76.7024 160.657 76.371 161.072 76.0306 161.468L75.7968 161.735C72.2874 165.667 67.1779 167.787 61.9153 167.495C56.6526 167.202 51.8097 164.529 48.7579 160.231C48.6336 160.053 48.5093 159.873 48.3909 159.692C48.1502 159.329 47.9253 158.956 47.7161 158.574C47.3965 157.999 47.1118 157.406 46.8638 156.798C46.6497 156.29 46.464 155.77 46.3074 155.241C46.2067 154.922 46.1209 154.599 46.0439 154.273C45.8837 153.614 45.7641 152.946 45.6858 152.273C45.6533 152.012 45.6266 151.746 45.6089 151.48C45.6089 151.403 45.6089 151.326 45.6089 151.249L45.6266 151.477C46.0439 151.346 46.4672 151.222 46.8904 151.107C48.0565 150.787 49.2403 150.52 50.4419 150.305C51.3357 150.143 52.2394 150.012 53.1529 149.911C54.6478 149.747 56.1506 149.665 57.6545 149.665H80.1918C80.1089 149.896 80.1119 150.077 80.1119 150.257Z" fill="#C7CCF9"/>
<path d="M32.8589 97.1294H143.927V102.676H32.8589V97.1294Z" fill="#ECEDFC"/>
<path d="M32.8589 87.5906H143.927V93.1369H32.8589V87.5906Z" fill="#ECEDFC"/>
<path d="M143.927 78.052V83.5983H32.8589V79.2654C33.6975 79.1577 34.5411 79.0935 35.3864 79.0731C35.5837 79.0731 35.7909 79.0731 36.0079 79.0731C38.1736 79.0724 40.3254 78.7277 42.3829 78.052L143.927 78.052Z" fill="#ECEDFC"/>
<path d="M143.927 68.5132V74.0506H49.4297C49.7464 73.7783 50.0542 73.4972 50.3531 73.2041C51.3676 72.2163 52.2762 71.1252 53.0641 69.9486C53.3738 69.4849 53.6698 69.0065 53.952 68.5132H143.927Z" fill="#ECEDFC"/>
<path d="M143.927 58.9773V64.5206H55.6392C56.1861 62.7219 56.4848 60.8569 56.527 58.9773L143.927 58.9773Z" fill="#ECEDFC"/>
<path d="M56.521 49.4385H143.927V54.9848H56.521L56.521 49.4385Z" fill="#ECEDFC"/>
<path d="M91.0798 48.0859V128.771C90.9496 128.744 90.8164 128.717 90.6832 128.697C90.111 128.601 89.5319 128.554 88.9518 128.555H83.959V48.0859L91.0798 48.0859Z" fill="#C7CCF9"/>
<path d="M88.9518 149.718C89.6667 149.719 90.3797 149.647 91.0798 149.502V160.284H83.959V149.718H88.9518Z" fill="#C7CCF9"/>
<path d="M53.1557 128.555H36.0107H35.3892C34.544 128.534 33.7003 128.47 32.8617 128.362L32.6782 128.341L32.4651 128.312L32.3408 128.294V122.339H32.8617C33.3382 122.339 33.8117 122.36 34.2853 122.387C34.9285 122.42 35.5678 122.468 36.2031 122.529H36.2209C37.4955 122.659 38.7513 122.85 39.9884 123.103L40.4501 123.201C41.0618 123.337 41.6705 123.486 42.2762 123.647L42.729 123.772C43.025 123.852 43.2913 123.938 43.5695 124.02L43.6228 124.038C44.197 124.219 44.7623 124.408 45.3246 124.612L45.3867 124.636C45.6561 124.734 45.9224 124.837 46.1888 124.932C46.3545 124.997 46.5203 125.062 46.683 125.133C46.9435 125.237 47.201 125.343 47.4555 125.459C47.5002 125.474 47.5437 125.493 47.5857 125.515C47.8521 125.63 48.1125 125.752 48.373 125.873L48.7903 126.068C48.9501 126.145 49.1129 126.222 49.2697 126.305L49.613 126.48C49.7817 126.563 49.9504 126.649 50.1162 126.743C50.2819 126.838 50.5216 126.959 50.7229 127.072C50.785 127.101 50.8442 127.137 50.9034 127.172C51.0129 127.232 51.1195 127.294 51.226 127.356C51.6493 127.596 52.0636 127.844 52.475 128.105L52.7917 128.306C52.913 128.395 53.0373 128.472 53.1557 128.555Z" fill="#C7CCF9"/>
<path d="M70.2799 160.284H32.3408V158.479C32.4533 158.384 32.5657 158.299 32.6782 158.21L32.8617 158.071C33.6786 157.443 34.5211 156.851 35.3892 156.295C38.5313 154.246 41.9441 152.646 45.5288 151.542C45.5288 151.465 45.5288 151.388 45.5288 151.311L45.5466 151.539C45.9639 151.409 46.3871 151.284 46.8103 151.169C47.9764 150.849 49.1602 150.582 50.3618 150.367C51.2556 150.205 52.1593 150.074 53.0728 149.973C54.5677 149.809 56.0705 149.727 57.5744 149.728H68.8001C69.7863 153.16 70.2844 156.713 70.2799 160.284Z" fill="#C7CCF9"/>
<path d="M80.1117 150.257V150.662C80.1117 150.662 80.1117 150.982 80.0939 151.142C80.0939 151.251 80.0939 151.364 80.0732 151.473V151.627C80.0748 151.653 80.0748 151.679 80.0732 151.704V151.879V151.956V152.045V152.148C80.0732 152.148 80.0732 152.243 80.0584 152.29C80.0436 152.338 80.0584 152.349 80.0584 152.379C80.0584 152.489 80.0318 152.598 80.014 152.705C79.9963 152.811 79.9904 152.882 79.9756 152.971L79.9578 153.072C79.94 153.181 79.9223 153.288 79.9016 153.394C79.872 153.566 79.8365 153.734 79.798 153.903C79.7994 153.925 79.7994 153.947 79.798 153.968C79.798 154.03 79.7714 154.09 79.7566 154.152L79.6855 154.448L79.6411 154.622C79.6411 154.652 79.6263 154.682 79.6175 154.711C79.576 154.865 79.5346 155.007 79.4872 155.17L79.4251 155.383C79.4073 155.445 79.3866 155.51 79.3659 155.572C79.3452 155.635 79.3452 155.635 79.3333 155.664C79.2958 155.785 79.2544 155.906 79.209 156.028C79.1998 156.063 79.188 156.096 79.1735 156.129C79.1735 156.129 79.1735 156.158 79.1587 156.176C79.1439 156.194 79.1202 156.28 79.0995 156.33C79.0919 156.353 79.083 156.376 79.0729 156.398C79.0315 156.508 78.99 156.614 78.9456 156.721L78.9101 156.812L78.8835 156.872C78.8095 157.055 78.7296 157.236 78.6467 157.416C78.5638 157.597 78.4603 157.813 78.3507 158.008C78.3093 158.094 78.2649 158.177 78.2205 158.26C78.1761 158.343 78.1229 158.446 78.0725 158.538L77.9897 158.689C77.9009 158.846 77.8121 158.985 77.7174 159.154L77.6641 159.242C77.602 159.349 77.5369 159.449 77.4688 159.538C77.4451 159.577 77.4214 159.615 77.3948 159.654C77.3682 159.692 77.3504 159.722 77.3267 159.757L77.2527 159.867C77.1718 159.987 77.089 160.108 77.0041 160.231H48.6778C48.5535 160.053 48.4292 159.873 48.3108 159.692C48.0701 159.329 47.8452 158.956 47.636 158.573C47.3187 157.998 47.0341 157.405 46.7836 156.798C46.5735 156.292 46.39 155.771 46.2272 155.241C46.1325 154.921 46.0437 154.599 45.9638 154.273C45.8064 153.614 45.6868 152.946 45.6057 152.272C45.5761 152.009 45.5495 151.743 45.5317 151.476C45.949 151.346 46.3723 151.222 46.7955 151.106C47.9616 150.787 49.1454 150.519 50.347 150.304C51.2408 150.143 52.1445 150.011 53.058 149.911C54.5529 149.747 56.0557 149.665 57.5596 149.665H80.0969C80.1087 149.896 80.1117 150.076 80.1117 150.257Z" fill="#BAC3F7"/>
<path d="M53.1557 128.554H36.0107H35.3892C34.544 128.534 33.7003 128.47 32.8617 128.362L32.6782 128.341L32.4651 128.312L32.3408 128.294V122.339H32.8617C33.3382 122.339 33.8117 122.36 34.2853 122.386C34.9285 122.42 35.5678 122.467 36.2031 122.529H36.2209C37.4955 122.659 38.7513 122.85 39.9884 123.103L40.4501 123.2C41.0618 123.336 41.6705 123.485 42.2762 123.647L42.729 123.772C43.025 123.851 43.2913 123.937 43.5695 124.02L43.6228 124.038C44.197 124.218 44.7623 124.408 45.3246 124.612L45.3867 124.636C45.6561 124.733 45.9224 124.837 46.1888 124.932C46.3545 124.997 46.5203 125.062 46.683 125.133C46.9435 125.237 47.201 125.343 47.4555 125.459C47.5002 125.474 47.5437 125.493 47.5857 125.515C47.8521 125.63 48.1125 125.752 48.373 125.873L48.7903 126.068C48.9501 126.145 49.1129 126.222 49.2697 126.305L49.613 126.48C49.7817 126.562 49.9504 126.648 50.1162 126.743C50.2819 126.838 50.5216 126.959 50.7229 127.072C50.785 127.101 50.8442 127.137 50.9034 127.172C51.0129 127.231 51.1195 127.293 51.226 127.356C51.6493 127.595 52.0636 127.844 52.475 128.104L52.7917 128.306C52.913 128.394 53.0373 128.471 53.1557 128.554Z" fill="#BAC3F7"/>
<path d="M70.2799 160.284H32.3408V158.479C32.4533 158.384 32.5657 158.298 32.6782 158.21L32.8617 158.07C33.6786 157.443 34.5211 156.851 35.3892 156.295C38.5313 154.246 41.9441 152.646 45.5288 151.542C45.5288 151.465 45.5288 151.388 45.5288 151.311L45.5466 151.539C45.9639 151.408 46.3871 151.284 46.8103 151.169C47.9764 150.849 49.1602 150.582 50.3618 150.367C51.2556 150.205 52.1593 150.074 53.0728 149.973C54.5677 149.809 56.0705 149.727 57.5744 149.727H68.8001C69.7863 153.159 70.2844 156.713 70.2799 160.284Z" fill="#BAC3F7"/>
<path d="M52.7917 128.318C52.913 128.395 53.0343 128.472 53.1557 128.554H42.5958C39.4592 127.42 36.1859 126.708 32.8617 126.435H32.7936L32.3408 126.4V122.345H32.8617C33.3382 122.345 33.8147 122.366 34.2882 122.393C34.9295 122.426 35.5678 122.474 36.2031 122.538H36.2209C37.4858 122.664 38.7433 122.855 39.9884 123.112L40.4501 123.209C41.0657 123.344 41.6744 123.493 42.2762 123.656L42.729 123.781C43.025 123.861 43.2913 123.946 43.5695 124.029L43.6228 124.047C44.197 124.225 44.7652 124.414 45.3246 124.621L45.3867 124.645C45.6561 124.742 45.9224 124.846 46.1888 124.941C46.3545 125.006 46.5203 125.071 46.683 125.142C46.9435 125.246 47.201 125.352 47.4555 125.468C47.5002 125.483 47.5437 125.502 47.5857 125.524C47.8521 125.639 48.1125 125.761 48.373 125.882L48.7903 126.077C48.9501 126.154 49.1129 126.231 49.2697 126.314L49.613 126.489C49.7817 126.572 49.9504 126.657 50.1162 126.752C50.2819 126.847 50.5216 126.968 50.7229 127.081C50.785 127.11 50.8442 127.146 50.9034 127.181C51.0129 127.24 51.1195 127.303 51.226 127.365C51.6493 127.604 52.0636 127.853 52.475 128.113L52.7917 128.318Z" fill="#C7CCF9"/>
<path d="M80.1115 150.257V150.663C80.1115 150.663 80.1115 150.982 80.0937 151.142C80.0937 151.252 80.0937 151.364 80.073 151.474V151.627C80.0746 151.653 80.0746 151.679 80.073 151.704V151.879V151.947V152.036V152.14C80.073 152.14 80.073 152.234 80.0582 152.282C80.0434 152.329 80.0582 152.341 80.0582 152.37C80.0582 152.48 80.0316 152.589 80.0138 152.696C79.9961 152.802 79.9783 152.942 79.9576 153.063C79.9369 153.184 79.9221 153.279 79.9014 153.386C79.8718 153.557 79.8362 153.726 79.7978 153.895C79.7992 153.916 79.7992 153.938 79.7978 153.96C79.777 154.051 79.7563 154.146 79.7327 154.238C79.709 154.33 79.7031 154.371 79.6853 154.436L79.6409 154.611C79.6409 154.64 79.6261 154.67 79.6172 154.7C79.5758 154.853 79.5344 154.996 79.487 155.158C79.4663 155.235 79.4426 155.309 79.4189 155.383C79.3953 155.457 79.3805 155.51 79.3597 155.573C79.339 155.635 79.339 155.635 79.3272 155.664C79.2897 155.785 79.2483 155.906 79.2029 156.028C79.1937 156.063 79.1818 156.096 79.1674 156.129C79.1437 156.197 79.12 156.262 79.0934 156.33C79.0858 156.353 79.0769 156.376 79.0667 156.398L79.0016 156.57L78.904 156.813L78.8418 156.961C78.7915 157.085 78.7382 157.206 78.682 157.328L78.6406 157.416C78.5488 157.615 78.4541 157.813 78.3446 158.008C78.3032 158.094 78.2588 158.177 78.2144 158.26L78.0664 158.538L77.9835 158.689L77.7112 159.154L77.658 159.243L77.4626 159.539C77.439 159.577 77.4153 159.615 77.3887 159.654C77.362 159.692 77.3443 159.722 77.3206 159.758L77.2466 159.867C77.1667 159.988 77.0809 160.11 76.998 160.231C76.702 160.657 76.3705 161.072 76.0302 161.468L75.7964 161.735C76.0332 161.246 76.2492 160.743 76.4386 160.231C77.7007 156.847 77.8766 153.154 76.9418 149.665H80.1825C80.1085 149.896 80.1115 150.077 80.1115 150.257Z" fill="#C7CCF9"/>
<path d="M134.864 113.345H137.513V115.112H134.864V113.345Z" fill="#E5E7FD"/>
<path d="M134.864 119.883H137.513V121.65H134.864V119.883Z" fill="#E5E7FD"/>
<path d="M128.418 123.15H131.067V124.917H128.418V123.15Z" fill="#E5E7FD"/>
<path d="M128.418 136.045H131.067V137.812H128.418V136.045Z" fill="#E5E7FD"/>
<path d="M116.855 142.491H119.504V144.258H116.855V142.491Z" fill="#E5E7FD"/>
<path d="M116.855 148.94H119.504V150.707H116.855V148.94Z" fill="#E5E7FD"/>
<path d="M108.722 145.143H111.371V146.91H108.722V145.143Z" fill="#E5E7FD"/>
<path d="M108.722 152.56H111.371V154.326H108.722V152.56Z" fill="#E5E7FD"/>
<path d="M116.855 155.386H119.504V157.153H116.855V155.386Z" fill="#E5E7FD"/>
<path d="M128.418 148.94H131.067V150.707H128.418V148.94Z" fill="#E5E7FD"/>
<path d="M128.418 155.386H131.067V157.153H128.418V155.386Z" fill="#E5E7FD"/>
<path d="M134.864 132.952H137.513V134.719H134.864V132.952Z" fill="#E5E7FD"/>
<path d="M134.864 139.49H137.513V141.257H134.864V139.49Z" fill="#E5E7FD"/>
<path d="M134.864 152.56H137.513V154.326H134.864V152.56Z" fill="#E5E7FD"/>
<rect x="46.7925" y="274.628" width="21.9188" height="5.21185" rx="2.60593" transform="rotate(-180 46.7925 274.628)" fill="#D2D6FA"/>
<rect x="288.625" y="274.628" width="239.71" height="5.21185" rx="2.60593" transform="rotate(-180 288.625 274.628)" fill="#D2D6FA"/>
<rect x="157.354" y="99.5918" width="55.7441" height="3.44793" rx="1.72397" fill="#BCBFF6"/>
<path d="M175.419 85.9602C176.179 87.8039 175.3 89.9145 173.457 90.6744L171.637 91.4244C170.877 89.5807 171.756 87.4701 173.599 86.7102L175.419 85.9602Z" fill="#D2D6FA"/>
<path d="M170.761 82.437C172.605 83.1969 173.483 85.3075 172.724 87.1512L171.974 88.9708C170.13 88.2109 169.251 86.1003 170.011 84.2566L170.761 82.437Z" fill="#BCBFF6"/>
<path d="M171.638 91.422L169.818 90.672C167.974 89.9121 167.096 87.8015 167.856 85.9578L169.675 86.7078C171.519 87.4677 172.398 89.5783 171.638 91.422Z" fill="#D2D6FA"/>
<path d="M177.932 93.1279C177.857 96.6447 174.985 99.4563 171.467 99.4563C167.95 99.4563 165.077 96.6447 165.002 93.1279C165.004 92.5911 165.07 92.0565 165.2 91.5356H177.734C177.864 92.0565 177.931 92.5911 177.932 93.1279Z" fill="#D2D6FA"/>
<rect x="164.218" y="89.8457" width="14.8187" height="1.69289" rx="0.846446" fill="#BCBFF6"/>
<path d="M177.897 92.3821H165.055C165.087 92.0967 165.138 91.8139 165.209 91.5356H177.743C177.814 91.8139 177.865 92.0967 177.897 92.3821Z" fill="#B5BBF4"/>
<path d="M206.358 88.9253C206.644 89.6176 206.642 90.3949 206.355 91.0863C206.067 91.7776 205.516 92.3263 204.824 92.6116L203.398 93.1992C202.804 91.7575 203.491 90.1071 204.933 89.5129L206.358 88.9253Z" fill="#D2D6FA"/>
<path d="M202.725 86.1736C204.166 86.7678 204.853 88.4182 204.259 89.8599L203.668 91.2938C202.976 91.0084 202.425 90.4597 202.137 89.7684C201.85 89.0771 201.848 88.2997 202.134 87.6074L202.721 86.1818L202.725 86.1736Z" fill="#BCBFF6"/>
<path d="M203.402 93.1983L201.976 92.6107C200.534 92.0165 199.847 90.3661 200.442 88.9244L201.867 89.512C202.559 89.7973 203.11 90.346 203.398 91.0373C203.686 91.7287 203.687 92.506 203.402 93.1983Z" fill="#D2D6FA"/>
<path d="M208.342 94.5339C208.342 97.3273 206.078 99.5918 203.285 99.5918C200.491 99.5918 198.227 97.3273 198.227 94.5339C198.226 94.336 198.238 94.1384 198.262 93.942C198.287 93.7195 198.328 93.4989 198.383 93.282H208.186C208.241 93.4989 208.282 93.7195 208.307 93.942C208.331 94.1384 208.343 94.336 208.342 94.5339Z" fill="#D2D6FA"/>
<rect x="197.605" y="91.9678" width="11.5928" height="1.32294" rx="0.661471" fill="#BCBFF6"/>
<path d="M208.307 93.9508H198.262C198.287 93.7282 198.328 93.5077 198.383 93.2908H208.185C208.241 93.5077 208.281 93.7282 208.307 93.9508Z" fill="#B5BBF4"/>
<path d="M184.627 75.8262H187.699C188.648 75.8262 189.418 76.596 189.418 77.5457V99.5918H182.907V77.5309C182.915 76.587 183.683 75.8261 184.627 75.8262Z" fill="#D2D6FA"/>
<circle cx="186.16" cy="87.7031" r="2.09836" fill="#B5BBF4"/>
<path d="M186.16 89.2155C186.081 89.23 186.001 89.2369 185.92 89.2362C185.136 89.1581 184.538 88.4976 184.539 87.7092C184.54 86.9208 185.138 86.2615 185.923 86.1849C186.004 86.1841 186.084 86.1911 186.163 86.2056C185.416 86.3203 184.865 86.9626 184.865 87.7179C184.865 88.4732 185.416 89.1156 186.163 89.2303L186.16 89.2155Z" fill="#D2D6FA"/>
<path d="M190.694 81.8608H192.982C193.69 81.8608 194.263 82.4346 194.263 83.1423V99.5918H189.413V83.1423C189.413 82.4346 189.986 81.8608 190.694 81.8608Z" fill="#BCBFF6"/>
<circle cx="191.837" cy="90.7248" r="1.56563" fill="#D2D6FA"/>
<path d="M191.842 91.8553C191.783 91.8598 191.724 91.8598 191.665 91.8553C191.034 91.8553 190.522 91.3439 190.522 90.7129C190.522 90.082 191.034 89.5705 191.665 89.5705C191.724 89.566 191.783 89.566 191.842 89.5705C191.285 89.6564 190.874 90.1358 190.874 90.6996C190.874 91.2634 191.285 91.7429 191.842 91.8287V91.8553Z" fill="#F0F1FC"/>
<path d="M67.6636 144.323H241.516C244.747 144.322 247.845 145.605 250.13 147.889C252.415 150.173 253.698 153.271 253.698 156.502V214.01H55.4819V156.502C55.4819 153.271 56.7655 150.173 59.0501 147.889C61.3347 145.605 64.4331 144.322 67.6636 144.323V144.323Z" fill="#A17C74"/>
<path d="M55.4819 210.751H253.695V214.01H55.4819V210.751Z" fill="#7B5649"/>
<rect x="38.855" y="214.01" width="231.467" height="35.9532" rx="16.88" fill="#A17C74"/>
<path d="M38.855 238.752H270.322V242.617H38.855L38.855 238.752Z" fill="#936E62"/>
<path d="M66.2813 269.408H60.4775L68.8621 249.966H78.025L66.2813 269.408Z" fill="#7B5649"/>
<path d="M242.896 269.408H248.699L240.318 249.966H231.155L242.896 269.408Z" fill="#7B5649"/>
<circle cx="233.561" cy="164.277" r="1.99773" fill="#7B5649"/>
<path d="M239.821 157.239C240.035 157.026 240.382 157.026 240.596 157.239C240.809 157.453 240.809 157.8 240.596 158.014L236.956 161.653C236.743 161.867 236.396 161.867 236.182 161.653C235.968 161.439 235.968 161.093 236.182 160.879L239.821 157.239Z" fill="#7B5649"/>
<path d="M229.53 167.533C229.744 167.319 230.091 167.319 230.305 167.533C230.518 167.747 230.518 168.093 230.305 168.307L226.665 171.947C226.452 172.16 226.105 172.16 225.891 171.947C225.677 171.733 225.677 171.386 225.891 171.172L229.53 167.533Z" fill="#7B5649"/>
<path d="M240.596 171.172C240.81 171.386 240.81 171.732 240.596 171.946C240.382 172.16 240.036 172.16 239.822 171.946L236.183 168.307C235.969 168.093 235.969 167.746 236.183 167.532C236.396 167.319 236.743 167.319 236.957 167.532L240.596 171.172Z" fill="#7B5649"/>
<path d="M230.304 160.881C230.518 161.095 230.518 161.442 230.304 161.656C230.09 161.87 229.743 161.87 229.529 161.656L225.89 158.016C225.676 157.803 225.676 157.456 225.89 157.242C226.104 157.028 226.451 157.028 226.664 157.242L230.304 160.881Z" fill="#7B5649"/>
<circle cx="233.561" cy="196.098" r="1.99773" fill="#7B5649"/>
<path d="M239.82 189.066C240.034 188.852 240.38 188.852 240.594 189.066C240.808 189.279 240.808 189.626 240.594 189.84L236.955 193.479C236.741 193.693 236.394 193.693 236.181 193.479C235.967 193.265 235.967 192.919 236.181 192.705L239.82 189.066Z" fill="#7B5649"/>
<path d="M229.529 199.356C229.743 199.142 230.089 199.142 230.303 199.356C230.517 199.57 230.517 199.917 230.303 200.13L226.664 203.77C226.45 203.984 226.103 203.984 225.89 203.77C225.676 203.556 225.676 203.209 225.89 202.995L229.529 199.356Z" fill="#7B5649"/>
<path d="M240.595 202.995C240.809 203.209 240.809 203.555 240.595 203.769C240.381 203.983 240.034 203.983 239.82 203.769L236.181 200.13C235.967 199.916 235.967 199.569 236.181 199.356C236.395 199.142 236.742 199.142 236.955 199.356L240.595 202.995Z" fill="#7B5649"/>
<path d="M230.302 192.701C230.516 192.915 230.516 193.262 230.302 193.476C230.088 193.689 229.741 193.689 229.527 193.476L225.888 189.836C225.674 189.622 225.674 189.276 225.888 189.062C226.102 188.848 226.449 188.848 226.663 189.062L230.302 192.701Z" fill="#7B5649"/>
<circle cx="194.234" cy="164.277" r="1.99773" fill="#7B5649"/>
<path d="M200.494 157.239C200.708 157.026 201.055 157.026 201.269 157.239C201.482 157.453 201.482 157.8 201.269 158.014L197.629 161.653C197.415 161.867 197.069 161.867 196.855 161.653C196.641 161.439 196.641 161.093 196.855 160.879L200.494 157.239Z" fill="#7B5649"/>
<path d="M190.203 167.533C190.417 167.319 190.763 167.319 190.977 167.533C191.191 167.747 191.191 168.093 190.977 168.307L187.338 171.947C187.124 172.16 186.777 172.16 186.563 171.947C186.35 171.733 186.35 171.386 186.563 171.172L190.203 167.533Z" fill="#7B5649"/>
<path d="M201.269 171.172C201.483 171.386 201.483 171.732 201.269 171.946C201.055 172.16 200.709 172.16 200.495 171.946L196.855 168.307C196.642 168.093 196.642 167.746 196.855 167.532C197.069 167.319 197.416 167.319 197.63 167.532L201.269 171.172Z" fill="#7B5649"/>
<path d="M190.977 160.881C191.19 161.095 191.19 161.442 190.977 161.655C190.763 161.869 190.416 161.869 190.202 161.655L186.563 158.016C186.349 157.802 186.349 157.456 186.563 157.242C186.777 157.028 187.123 157.028 187.337 157.242L190.977 160.881Z" fill="#7B5649"/>
<circle cx="194.234" cy="196.098" r="1.99773" fill="#7B5649"/>
<path d="M200.493 189.065C200.707 188.852 201.053 188.852 201.267 189.065C201.481 189.279 201.481 189.626 201.267 189.84L197.628 193.479C197.414 193.693 197.067 193.693 196.853 193.479C196.64 193.265 196.64 192.919 196.853 192.705L200.493 189.065Z" fill="#7B5649"/>
<path d="M190.201 199.356C190.415 199.142 190.762 199.142 190.976 199.356C191.189 199.57 191.189 199.917 190.976 200.13L187.336 203.77C187.122 203.984 186.776 203.984 186.562 203.77C186.348 203.556 186.348 203.209 186.562 202.995L190.201 199.356Z" fill="#7B5649"/>
<path d="M201.268 202.995C201.481 203.208 201.481 203.555 201.268 203.769C201.054 203.983 200.707 203.983 200.493 203.769L196.854 200.13C196.64 199.916 196.64 199.569 196.854 199.355C197.068 199.142 197.415 199.142 197.628 199.355L201.268 202.995Z" fill="#7B5649"/>
<path d="M190.978 192.701C191.192 192.915 191.192 193.262 190.978 193.476C190.764 193.689 190.418 193.689 190.204 193.476L186.564 189.836C186.351 189.622 186.351 189.276 186.564 189.062C186.778 188.848 187.125 188.848 187.339 189.062L190.978 192.701Z" fill="#7B5649"/>
<circle cx="154.906" cy="164.277" r="1.99773" fill="#7B5649"/>
<path d="M161.167 157.239C161.381 157.025 161.728 157.025 161.941 157.239C162.155 157.453 162.155 157.8 161.941 158.014L158.302 161.653C158.088 161.867 157.742 161.867 157.528 161.653C157.314 161.439 157.314 161.092 157.528 160.879L161.167 157.239Z" fill="#7B5649"/>
<path d="M150.876 167.533C151.089 167.319 151.436 167.319 151.65 167.533C151.864 167.746 151.864 168.093 151.65 168.307L148.011 171.946C147.797 172.16 147.45 172.16 147.236 171.946C147.022 171.732 147.022 171.386 147.236 171.172L150.876 167.533Z" fill="#7B5649"/>
<path d="M161.942 171.172C162.156 171.386 162.156 171.732 161.942 171.946C161.729 172.16 161.382 172.16 161.168 171.946L157.529 168.307C157.315 168.093 157.315 167.746 157.529 167.532C157.743 167.319 158.089 167.319 158.303 167.532L161.942 171.172Z" fill="#7B5649"/>
<path d="M151.652 160.881C151.866 161.095 151.866 161.442 151.652 161.655C151.439 161.869 151.092 161.869 150.878 161.655L147.239 158.016C147.025 157.802 147.025 157.456 147.239 157.242C147.453 157.028 147.799 157.028 148.013 157.242L151.652 160.881Z" fill="#7B5649"/>
<circle cx="154.906" cy="196.098" r="1.99773" fill="#7B5649"/>
<path d="M161.165 189.065C161.379 188.852 161.726 188.852 161.939 189.065C162.153 189.279 162.153 189.626 161.939 189.84L158.3 193.479C158.086 193.693 157.74 193.693 157.526 193.479C157.312 193.265 157.312 192.919 157.526 192.705L161.165 189.065Z" fill="#7B5649"/>
<path d="M150.874 199.356C151.088 199.142 151.435 199.142 151.648 199.356C151.862 199.57 151.862 199.916 151.648 200.13L148.009 203.77C147.795 203.983 147.449 203.983 147.235 203.77C147.021 203.556 147.021 203.209 147.235 202.995L150.874 199.356Z" fill="#7B5649"/>
<path d="M161.94 202.995C162.154 203.208 162.154 203.555 161.94 203.769C161.727 203.983 161.38 203.983 161.166 203.769L157.527 200.13C157.313 199.916 157.313 199.569 157.527 199.355C157.741 199.142 158.087 199.142 158.301 199.355L161.94 202.995Z" fill="#7B5649"/>
<path d="M151.651 192.701C151.865 192.915 151.865 193.262 151.651 193.476C151.437 193.689 151.09 193.689 150.877 193.476L147.237 189.836C147.023 189.622 147.023 189.276 147.237 189.062C147.451 188.848 147.798 188.848 148.012 189.062L151.651 192.701Z" fill="#7B5649"/>
<circle cx="115.579" cy="164.277" r="1.99773" fill="#7B5649"/>
<path d="M121.839 157.239C122.053 157.025 122.4 157.025 122.614 157.239C122.828 157.453 122.828 157.8 122.614 158.014L118.974 161.653C118.761 161.867 118.414 161.867 118.2 161.653C117.986 161.439 117.986 161.092 118.2 160.879L121.839 157.239Z" fill="#7B5649"/>
<path d="M111.548 167.533C111.762 167.319 112.109 167.319 112.323 167.533C112.537 167.746 112.537 168.093 112.323 168.307L108.683 171.946C108.47 172.16 108.123 172.16 107.909 171.946C107.695 171.732 107.695 171.386 107.909 171.172L111.548 167.533Z" fill="#7B5649"/>
<path d="M122.615 171.171C122.829 171.385 122.829 171.732 122.615 171.946C122.401 172.16 122.055 172.16 121.841 171.946L118.202 168.306C117.988 168.093 117.988 167.746 118.202 167.532C118.415 167.318 118.762 167.318 118.976 167.532L122.615 171.171Z" fill="#7B5649"/>
<path d="M112.325 160.878C112.539 161.092 112.539 161.438 112.325 161.652C112.111 161.866 111.765 161.866 111.551 161.652L107.912 158.013C107.698 157.799 107.698 157.453 107.912 157.239C108.125 157.025 108.472 157.025 108.686 157.239L112.325 160.878Z" fill="#7B5649"/>
<circle cx="115.579" cy="196.098" r="1.99773" fill="#7B5649"/>
<path d="M121.838 189.065C122.052 188.852 122.398 188.852 122.612 189.065C122.826 189.279 122.826 189.626 122.612 189.84L118.973 193.479C118.759 193.693 118.412 193.693 118.199 193.479C117.985 193.265 117.985 192.919 118.199 192.705L121.838 189.065Z" fill="#7B5649"/>
<path d="M111.547 199.356C111.761 199.142 112.107 199.142 112.321 199.356C112.535 199.57 112.535 199.916 112.321 200.13L108.682 203.77C108.468 203.983 108.121 203.983 107.908 203.77C107.694 203.556 107.694 203.209 107.908 202.995L111.547 199.356Z" fill="#7B5649"/>
<path d="M122.617 202.994C122.831 203.208 122.831 203.555 122.617 203.769C122.403 203.983 122.056 203.983 121.842 203.769L118.203 200.129C117.989 199.916 117.989 199.569 118.203 199.355C118.417 199.141 118.764 199.141 118.977 199.355L122.617 202.994Z" fill="#7B5649"/>
<path d="M112.324 192.701C112.538 192.915 112.538 193.261 112.324 193.475C112.11 193.689 111.763 193.689 111.549 193.475L107.91 189.836C107.696 189.622 107.696 189.275 107.91 189.062C108.124 188.848 108.471 188.848 108.684 189.062L112.324 192.701Z" fill="#7B5649"/>
<circle cx="76.2521" cy="164.277" r="1.99773" fill="#7B5649"/>
<path d="M82.5123 157.239C82.7261 157.025 83.0728 157.025 83.2866 157.239C83.5004 157.453 83.5004 157.799 83.2866 158.013L79.6473 161.653C79.4335 161.866 79.0868 161.866 78.873 161.653C78.6591 161.439 78.6591 161.092 78.873 160.878L82.5123 157.239Z" fill="#7B5649"/>
<path d="M72.2212 167.533C72.4351 167.319 72.7817 167.319 72.9956 167.533C73.2094 167.746 73.2094 168.093 72.9956 168.307L69.3563 171.946C69.1424 172.16 68.7958 172.16 68.5819 171.946C68.3681 171.732 68.3681 171.386 68.5819 171.172L72.2212 167.533Z" fill="#7B5649"/>
<path d="M83.2881 171.171C83.502 171.385 83.502 171.732 83.2881 171.946C83.0743 172.16 82.7276 172.16 82.5138 171.946L78.8745 168.306C78.6607 168.093 78.6607 167.746 78.8745 167.532C79.0883 167.318 79.435 167.318 79.6488 167.532L83.2881 171.171Z" fill="#7B5649"/>
<path d="M72.9981 160.881C73.2119 161.095 73.2119 161.441 72.9981 161.655C72.7843 161.869 72.4376 161.869 72.2238 161.655L68.5845 158.016C68.3707 157.802 68.3707 157.455 68.5845 157.242C68.7983 157.028 69.145 157.028 69.3588 157.242L72.9981 160.881Z" fill="#7B5649"/>
<circle cx="76.2521" cy="196.098" r="1.99773" fill="#7B5649"/>
<path d="M82.5108 189.065C82.7246 188.851 83.0713 188.851 83.2851 189.065C83.4989 189.279 83.4989 189.626 83.2851 189.839L79.6458 193.479C79.432 193.693 79.0853 193.693 78.8715 193.479C78.6577 193.265 78.6577 192.918 78.8715 192.704L82.5108 189.065Z" fill="#7B5649"/>
<path d="M72.2227 199.356C72.4365 199.142 72.7832 199.142 72.997 199.356C73.2108 199.569 73.2108 199.916 72.997 200.13L69.3577 203.769C69.1439 203.983 68.7972 203.983 68.5834 203.769C68.3696 203.555 68.3696 203.209 68.5834 202.995L72.2227 199.356Z" fill="#7B5649"/>
<path d="M83.2896 202.994C83.5034 203.208 83.5034 203.555 83.2896 203.769C83.0758 203.983 82.7291 203.983 82.5153 203.769L78.876 200.129C78.6622 199.916 78.6622 199.569 78.876 199.355C79.0898 199.141 79.4365 199.141 79.6503 199.355L83.2896 202.994Z" fill="#7B5649"/>
<path d="M72.9966 192.701C73.2105 192.915 73.2105 193.261 72.9966 193.475C72.7828 193.689 72.4361 193.689 72.2223 193.475L68.583 189.836C68.3692 189.622 68.3692 189.275 68.583 189.062C68.7968 188.848 69.1435 188.848 69.3573 189.062L72.9966 192.701Z" fill="#7B5649"/>
<circle cx="235.112" cy="125.882" r="24.9376" fill="#673315"/>
<path d="M157.564 138.878C158.855 137.981 160.629 138.3 161.526 139.591C162.423 140.882 162.104 142.655 160.813 143.553L152.705 149.189C151.414 150.086 149.641 149.767 148.744 148.476C147.846 147.186 148.165 145.412 149.456 144.515L157.564 138.878Z" fill="#EF927F"/>
<path d="M149.414 138.626C150.988 138.626 152.264 139.902 152.264 141.476C152.264 143.05 150.988 144.326 149.414 144.326H139.526C137.951 144.326 136.675 143.05 136.675 141.476C136.675 139.902 137.951 138.626 139.526 138.626H149.414Z" fill="#EF927F"/>
<path d="M152.802 131.502C150.41 133.712 149.613 137.159 150.793 140.195C151.972 143.23 154.888 145.235 158.144 145.249L217.129 145.451L231.264 145.516C235.585 145.455 239.061 141.946 239.081 137.625C239.101 133.304 235.658 129.762 231.338 129.661L158.215 129.395C156.209 129.383 154.273 130.137 152.802 131.502Z" fill="#F5A491"/>
<path d="M150.257 137.285C150.246 139.387 151.071 141.408 152.55 142.902C154.03 144.395 156.042 145.24 158.144 145.249H158.485L164.146 145.273L164.567 141.375L165.848 129.427L158.215 129.395C153.84 129.378 150.278 132.91 150.257 137.285Z" fill="#F5A491"/>
<ellipse cx="153.56" cy="137.145" rx="8.96167" ry="10.6368" transform="rotate(-84.48 153.56 137.145)" fill="#F5A491"/>
<path d="M164.567 141.378L164.146 145.276L231.264 145.513H231.732H231.797C231.93 145.513 232.063 145.492 232.194 145.48L232.282 145.465C232.401 145.465 232.525 145.436 232.646 145.415L232.732 145.4L233.108 145.323H233.167C233.602 145.218 234.028 145.077 234.44 144.903L234.49 144.876C234.606 144.829 234.718 144.776 234.831 144.717L234.905 144.681C235.014 144.628 235.121 144.569 235.224 144.507C235.246 144.497 235.267 144.487 235.286 144.474C235.408 144.403 235.52 144.332 235.636 144.258C237.864 142.802 239.212 140.323 239.223 137.661C239.223 137.628 239.223 137.596 239.223 137.56C239.172 135.193 235.935 134.642 234.996 136.82C233.746 139.751 230.86 141.646 227.674 141.63L164.567 141.378Z" fill="#EF927F"/>
<path d="M142.982 136.134C142.848 137.58 143.118 139.035 143.764 140.336C143.771 140.355 143.781 140.373 143.793 140.39C143.968 140.737 144.165 141.073 144.385 141.393L144.465 141.508C144.56 141.636 144.655 141.769 144.761 141.896C144.781 141.929 144.804 141.96 144.829 141.988C144.948 142.142 145.075 142.284 145.208 142.438C145.233 142.462 145.257 142.488 145.279 142.515C145.395 142.639 145.51 142.757 145.631 142.876L145.738 142.979C146.031 143.259 146.339 143.522 146.661 143.767L146.783 143.855C146.919 143.956 147.061 144.057 147.206 144.151C147.235 144.172 147.271 144.193 147.301 144.217C147.474 144.329 147.655 144.438 147.842 144.545L147.931 144.592C148.088 144.684 148.251 144.767 148.413 144.85L148.544 144.915C148.934 145.101 149.337 145.27 149.754 145.421L149.881 145.462C150.068 145.528 150.257 145.584 150.447 145.64C150.474 145.65 150.501 145.658 150.529 145.664C150.748 145.729 150.976 145.788 151.207 145.835H151.269C151.48 145.883 151.693 145.921 151.906 145.957L152.012 145.972C152.249 146.01 152.486 146.043 152.728 146.063C154.205 146.212 155.696 146.091 157.129 145.708C157.143 145.706 157.157 145.706 157.171 145.708H157.209C157.649 145.586 158.081 145.437 158.503 145.264L164.164 145.288L164.585 141.39H163.131L154.907 141.355C154.107 142.001 153.117 142.366 152.089 142.393C148.478 142.571 144.054 139.472 144.847 134.402C145.044 132.895 145.634 131.466 146.558 130.259C144.554 131.662 143.213 133.728 142.982 136.134Z" fill="#EF927F"/>
<path d="M127.966 194.101L113.582 206.262L126.051 207.605L139.505 198.096L127.966 194.101Z" fill="#F5A491"/>
<path d="M101.098 210.627C100.87 208.884 102.075 207.191 103.996 206.555L122.686 200.816C124.831 200.106 125.258 201.55 125.512 203.5L126.051 207.605C126.536 211.299 122.878 214.537 118.61 214.194L104.996 213.821C102.96 213.723 101.329 212.388 101.098 210.627Z" fill="#F5A491"/>
<path d="M172.889 152.128L236.966 189.123L228.245 204.228C226.186 207.795 221.624 209.017 218.057 206.957L160.439 173.692C154.497 170.248 152.466 162.644 155.898 156.696C159.332 150.748 166.935 148.704 172.889 152.128L172.889 152.128Z" fill="#95BFFF"/>
<path d="M157.425 154.285L122.309 197.368C121.966 197.788 121.979 198.396 122.342 198.8L128.738 205.96C129.135 206.404 129.813 206.454 130.271 206.072L173.377 170.045C175.953 167.893 177.435 164.704 177.418 161.347C177.402 157.991 175.889 154.816 173.292 152.69C170.977 150.794 168.004 149.897 165.027 150.197C162.051 150.496 159.316 151.967 157.425 154.285Z" fill="#95BFFF"/>
<path d="M247.409 148.615C247.295 149.603 247.11 150.582 246.855 151.545L235.875 193.302C234.645 197.982 231.606 201.981 227.426 204.42C223.247 206.859 218.269 207.537 213.59 206.306L198.886 202.438L216.514 135.418C217.375 132.138 219.504 129.335 222.433 127.626C225.361 125.917 228.849 125.442 232.128 126.305C242.064 128.903 248.577 138.412 247.409 148.615Z" fill="#194CC3"/>
<path d="M204.413 144.202C205.38 140.021 209.554 137.416 213.735 138.382L237.46 143.869C241.641 144.835 244.247 149.009 243.28 153.19C242.313 157.371 238.14 159.977 233.959 159.01L210.234 153.524C206.052 152.557 203.447 148.384 204.413 144.202Z" fill="#194CC3"/>
<path d="M168.888 189.108H236.959V202.095C236.959 208.675 231.624 214.01 225.044 214.01H168.888C162.276 214.002 156.919 208.639 156.919 202.027V201.091C156.919 194.479 162.276 189.116 168.888 189.108V189.108Z" fill="#9FC5FF"/>
<circle cx="218.932" cy="115.337" r="13.1081" fill="#673315"/>
<path d="M208.345 119.604C209.753 124.033 213.402 127.383 217.934 128.409C213.04 128.032 208.766 124.952 206.861 120.427C204.955 115.903 205.738 110.694 208.888 106.929C212.038 103.164 217.028 101.474 221.817 102.551C217.474 102.229 213.253 104.083 210.553 107.501C207.853 110.919 207.026 115.454 208.345 119.604Z" fill="#AD8E88"/>
<path d="M236.066 115.795C234.172 109.85 237.456 103.495 243.402 101.601L245.751 100.852C251.696 98.9583 258.052 102.243 259.946 108.188C261.84 114.134 258.555 120.489 252.61 122.383L250.261 123.131C244.315 125.025 237.96 121.741 236.066 115.795Z" fill="#673315"/>
<path d="M219.26 119.859L221.971 128.371C222.478 130.071 223.863 131.365 225.594 131.755C227.325 132.144 229.131 131.569 230.317 130.249C231.504 128.93 231.885 127.073 231.314 125.393L228.603 116.882C228.097 115.181 226.711 113.887 224.981 113.498C223.25 113.108 221.444 113.684 220.257 115.003C219.071 116.322 218.69 118.179 219.26 119.859Z" fill="#F5A491"/>
<path d="M219.26 119.859L221.347 126.409C224.636 126.071 227.816 125.035 230.672 123.369L228.601 116.882C228.094 115.181 226.708 113.887 224.978 113.498C223.247 113.108 221.441 113.684 220.254 115.003C219.068 116.322 218.687 118.179 219.257 119.859H219.26Z" fill="#EF927F"/>
<path d="M206.487 103.01L207.318 105.475L207.886 107.165L211.249 117.166C213.048 122.513 218.84 125.39 224.188 123.594C228.458 122.159 231.983 119.085 233.987 115.051C235.992 111.016 236.311 106.351 234.875 102.081L232.507 95.0398C230.878 90.2011 225.636 87.5979 220.796 89.2242L213.593 91.6481L211.843 92.2401C207.391 93.7363 204.994 98.5569 206.487 103.01Z" fill="#F5A491"/>
<path d="M225.061 123.272C224.765 123.387 224.469 123.496 224.173 123.594C218.825 125.39 213.033 122.513 211.234 117.166L207.872 107.165L207.304 105.475L206.472 103.013C204.977 98.5574 207.375 93.7331 211.829 92.2342L212.749 91.9382C208.577 93.626 206.441 98.2706 207.875 102.537L208.704 105.002L209.272 106.692L212.649 116.669C214.374 121.818 219.827 124.718 225.061 123.272Z" fill="#FFC4AF"/>
<path d="M206.487 103.01L207.318 105.475L207.886 107.165C211.893 107.879 215.835 105.617 217.239 101.797C218.644 97.9773 217.107 93.7002 213.593 91.6482L211.843 92.2401C207.391 93.7364 204.994 98.5569 206.487 103.01Z" fill="#EF927F"/>
<ellipse cx="213.861" cy="111.337" rx="0.970749" ry="0.873082" transform="rotate(-17.67 213.861 111.337)" fill="#230D30"/>
<ellipse cx="220.868" cy="109.106" rx="0.970749" ry="0.873082" transform="rotate(-17.67 220.868 109.106)" fill="#230D30"/>
<circle cx="237.746" cy="101.089" r="8.90544" fill="#673315"/>
<path d="M259.854 107.914C259.887 108.003 259.916 108.095 259.946 108.189C261.13 111.893 260.322 115.945 257.809 118.912C259.608 116.086 260.059 112.606 259.04 109.415C259.011 109.323 258.981 109.231 258.949 109.139C257.17 104.015 252 100.878 246.634 101.666C246.338 101.711 246.042 101.77 245.746 101.838C245.73 101.521 245.696 101.204 245.642 100.891C245.576 100.459 245.477 100.032 245.346 99.6154C244.63 97.3644 243.048 95.4904 240.949 94.4058C238.85 93.3212 236.407 93.1149 234.156 93.8324C232.614 94.3185 231.236 95.2195 230.172 96.4368C232.211 93.1151 236.171 91.5038 239.95 92.4594C243.728 93.415 246.446 96.7155 246.66 100.607C252.278 99.3217 257.963 102.47 259.854 107.914Z" fill="#441A07"/>
<circle cx="235.112" cy="105.126" r="4.32102" fill="#F5A491"/>
<path d="M236.358 104.777C236.587 105.492 236.364 106.276 235.792 106.763C235.654 106.872 235.471 106.906 235.302 106.854C235.134 106.802 235.002 106.671 234.949 106.502L234.212 104.188C234.158 104.011 234.198 103.819 234.318 103.677C234.437 103.536 234.62 103.465 234.804 103.49C235.529 103.579 236.136 104.081 236.358 104.777Z" fill="#EF927F"/>
<circle cx="228.42" cy="91.7902" r="9.38489" fill="#673315"/>
<path d="M237.737 92.9178C237.244 88.1756 233.273 84.557 228.505 84.5047C223.738 84.4525 219.689 87.9833 219.092 92.7136C218.718 89.1225 220.437 85.6355 223.514 83.7457C226.59 81.8559 230.478 81.8985 233.512 83.8552C236.547 85.8119 238.189 89.3358 237.737 92.9178Z" fill="#441A07"/>
<circle cx="213.297" cy="91.6127" r="9.38489" fill="#673315"/>
<circle cx="205.984" cy="101.43" r="9.38489" fill="#673315"/>
<path d="M219.601 84.6606C216.928 83.6242 213.929 83.8653 211.456 85.3155C208.984 86.7656 207.31 89.2657 206.91 92.104C206.816 92.7596 206.793 93.4235 206.842 94.084C206.575 94.1432 206.306 94.2142 206.04 94.3C205.516 94.4673 205.007 94.6792 204.519 94.9334C201.81 96.361 199.967 99.0198 199.581 102.058C199.195 105.095 200.314 108.13 202.58 110.19C198.874 108.747 196.48 105.126 196.605 101.151C196.729 97.1766 199.345 93.7118 203.133 92.5036C203.4 92.4177 203.669 92.3467 203.938 92.2875C203.667 88.4646 205.749 84.8612 209.196 83.1859C212.643 81.5106 216.762 82.1004 219.601 84.6754V84.6606Z" fill="#AD8E88"/>
<circle cx="215.049" cy="92.3586" r="5.01652" fill="#AD8E88"/>
<path d="M216.348 114.851C216.638 115.574 217.203 116.153 217.92 116.459C218.008 116.497 218.097 116.53 218.186 116.559C218.837 116.764 219.538 116.738 220.172 116.485L220.281 116.438C220.863 116.205 221.354 115.79 221.678 115.254C222.132 114.531 222.248 113.646 221.995 112.83C221.971 112.752 221.944 112.675 221.912 112.599C221.794 112.308 221.464 112.167 221.172 112.283L216.665 114.097C216.52 114.152 216.405 114.264 216.345 114.406C216.285 114.549 216.286 114.71 216.348 114.851Z" fill="#962F4A"/>
<path d="M220.06 116.041C220.115 116.183 220.185 116.318 220.27 116.444H220.284C221.702 115.873 222.446 114.311 221.995 112.851C221.775 112.871 221.56 112.924 221.356 113.008C220.782 113.238 220.322 113.687 220.079 114.256C219.836 114.825 219.829 115.467 220.06 116.041Z" fill="#E1617F"/>
<path d="M216.765 114.07C217.002 114.597 217.996 114.695 219.011 114.286C220.027 113.878 220.681 113.117 220.491 112.575L216.765 114.07Z" fill="white"/>
<path d="M228.287 136.678C231.097 132.566 236.708 131.511 240.82 134.321C244.932 137.131 245.987 142.743 243.177 146.855L224.118 174.742C221.308 178.854 215.696 179.909 211.585 177.099C207.473 174.289 206.417 168.677 209.228 164.565L228.287 136.678Z" fill="#F5A491"/>
<path d="M201.644 144.391C202.222 145.702 201.628 147.233 200.317 147.811C199.006 148.389 197.475 147.795 196.897 146.484L193.636 139.085C193.058 137.774 193.652 136.243 194.963 135.665C196.274 135.087 197.805 135.681 198.383 136.992L201.644 144.391Z" fill="#F5A491"/>
<path d="M184.776 128.858C184.874 125.232 187.892 122.372 191.518 122.469C195.143 122.567 198.004 125.585 197.906 129.211L197.604 140.436C197.507 144.061 194.489 146.922 190.863 146.824C187.237 146.727 184.377 143.708 184.474 140.083L184.776 128.858Z" fill="#AD8E88"/>
<path d="M183.8 129.521C183.898 125.895 186.916 123.035 190.542 123.133C194.167 123.23 197.028 126.248 196.93 129.874L196.628 141.099C196.531 144.724 193.513 147.585 189.887 147.487C186.261 147.39 183.401 144.371 183.498 140.746L183.8 129.521Z" fill="#441A07"/>
<path d="M183.363 145.353C183.335 146.443 184.195 147.35 185.284 147.38L194.459 147.626C194.592 147.63 194.725 147.619 194.856 147.593L186.865 147.38C186.341 147.366 185.844 147.145 185.484 146.765C185.124 146.384 184.93 145.877 184.944 145.353L185.512 124.955C185.536 124.018 186.219 123.228 187.143 123.067L185.941 123.035C185.418 123.02 184.91 123.215 184.53 123.575C184.149 123.935 183.928 124.432 183.914 124.955L183.363 145.353Z" fill="#673315"/>
<circle cx="191.801" cy="127.545" r="1.43837" fill="#AD8E88"/>
<circle cx="188.335" cy="127.45" r="0.748779" fill="#AD8E88"/>
<path d="M222.538 163.354C226.168 166.786 226.329 172.511 222.897 176.142C219.465 179.772 213.74 179.933 210.109 176.501L186.974 154.631C183.343 151.199 183.182 145.473 186.614 141.843C190.046 138.212 195.772 138.051 199.402 141.483L222.538 163.354Z" fill="#F5A491"/>
<ellipse cx="190.822" cy="145.474" rx="9.35043" ry="11.5532" transform="rotate(-58.0552 190.822 145.474)" fill="#F5A491"/>
<path d="M188.182 145.551C189.376 146.343 189.701 147.953 188.908 149.147C188.115 150.34 186.505 150.665 185.312 149.873L178.577 145.399C177.383 144.607 177.058 142.997 177.851 141.803C178.643 140.61 180.253 140.285 181.447 141.077L188.182 145.551Z" fill="#F5A491"/>
<path d="M177.853 141.807C178.118 141.406 178.492 141.087 178.93 140.887C178.885 140.943 178.841 141.002 178.803 141.062C178.421 141.634 178.283 142.335 178.419 143.009C178.554 143.684 178.952 144.277 179.525 144.657L179.643 144.737L180.827 145.528C180.97 146.136 181.168 146.731 181.419 147.303C182.239 149.144 183.481 150.766 185.044 152.039C185.526 152.439 186.034 152.806 186.566 153.137C186.989 153.4 187.424 153.643 187.862 153.859C187.878 153.878 187.896 153.896 187.915 153.912L189.721 155.617L211.053 175.784C214.145 178.697 218.847 179.067 222.356 176.671C218.854 179.817 213.524 179.749 210.103 176.515L186.968 154.643L186.915 154.59C186.48 154.374 186.045 154.131 185.619 153.868C182.576 151.962 180.566 149.132 179.877 146.262L178.569 145.394C177.385 144.599 177.065 142.997 177.853 141.807Z" fill="#FFC4AF"/>
<path d="M189.141 140.531C190.334 141.324 190.659 142.934 189.867 144.127C189.074 145.32 187.464 145.645 186.27 144.853L179.535 140.379C178.342 139.587 178.017 137.977 178.809 136.783C179.602 135.59 181.212 135.265 182.405 136.058L189.141 140.531Z" fill="#F5A491"/>
<path d="M193.032 137.368C194.225 138.16 194.55 139.77 193.758 140.964C192.965 142.157 191.355 142.482 190.162 141.69L182.99 136.926C181.796 136.134 181.471 134.524 182.264 133.33C183.057 132.137 184.667 131.812 185.86 132.605L193.032 137.368Z" fill="#F5A491"/>
<path d="M179.537 140.384C178.428 139.623 178.084 138.141 178.744 136.969C179.405 135.798 180.851 135.325 182.076 135.879C182.187 135.932 182.294 135.992 182.396 136.06L183.159 136.566C182.907 136.449 182.637 136.375 182.36 136.347C181.171 136.215 180.046 136.913 179.637 138.038C179.228 139.162 179.642 140.42 180.638 141.082" fill="#FFC4AF"/>
<path d="M185.862 132.606L186.625 133.112C185.634 132.656 184.463 132.869 183.696 133.645C182.928 134.421 182.728 135.594 183.195 136.581H183.168C182.916 136.464 182.646 136.39 182.369 136.362C182.253 136.218 182.154 136.061 182.073 135.894C181.578 134.842 181.842 133.588 182.721 132.827C183.6 132.065 184.879 131.981 185.85 132.621L185.862 132.606Z" fill="#FFC4AF"/>
<path d="M211.654 162.385C212.955 163.616 213.013 165.669 211.782 166.97C210.552 168.272 208.499 168.33 207.197 167.099L197.861 158.274C196.559 157.043 196.501 154.99 197.732 153.688C198.962 152.386 201.015 152.328 202.317 153.559L211.654 162.385Z" fill="#FFC4AF"/>
</svg>
