<svg width="72" height="72" viewBox="0 0 72 72" fill="none" xmlns="http://www.w3.org/2000/svg">
<path d="M69.3142 45.0367V45.7712C69.3149 46.4595 69.2394 47.1458 69.0892 47.8175C69.0185 48.1357 68.9309 48.4499 68.8267 48.7587C68.6535 49.2705 68.4363 49.7663 68.1775 50.2405C68.1423 50.3047 68.107 50.3682 68.0703 50.431C67.7344 51.0132 67.3365 51.5573 66.8835 52.0539C66.6901 52.2656 66.4862 52.4716 66.2738 52.6656C66.2414 52.696 66.2082 52.7256 66.175 52.7553L66.1652 52.7637L66.0516 52.8639C65.9986 52.9091 65.9457 52.9535 65.8921 52.9973C65.4083 53.3947 64.8857 53.7422 64.332 54.0345C64.1641 54.1234 63.9926 54.2074 63.819 54.2857C63.475 54.4419 63.1215 54.5765 62.7606 54.6886C62.6753 54.7154 62.5892 54.7408 62.5031 54.7648C61.6786 54.9962 60.8263 55.1133 59.97 55.1127H56.1802C55.669 55.1125 55.1786 55.3155 54.8172 55.6771C54.4557 56.0387 54.2528 56.5291 54.2532 57.0404V64.2318H22.0292V57.0411C22.0293 56.8226 21.9923 56.6058 21.9198 56.3997C21.9078 56.3651 21.8944 56.3291 21.8803 56.2974C21.6784 55.8161 21.2902 55.4371 20.8043 55.2467C20.5796 55.158 20.3402 55.1127 20.0987 55.1134H13.7243C13.6234 55.1134 13.5239 55.1134 13.4237 55.1091C12.0537 55.0674 10.7083 54.735 9.47655 54.134C9.40599 54.1008 9.34178 54.0677 9.27475 54.0324C8.70852 53.7401 8.17249 53.3927 7.67445 52.9952C7.61941 52.9514 7.56508 52.907 7.51075 52.8618L7.47406 52.8315C7.44725 52.8089 7.42043 52.7863 7.39433 52.7609L7.28214 52.6678C7.13678 52.5401 6.99566 52.4067 6.85878 52.2698C6.78869 52.1997 6.71954 52.1292 6.65133 52.0581C6.18425 51.5617 5.77039 51.0178 5.41653 50.4352C4.92373 49.6207 4.55377 48.7379 4.31862 47.8154C4.28381 47.6799 4.25205 47.543 4.22336 47.4047C4.08555 46.7468 4.01626 46.0765 4.01662 45.4043C4.01662 45.1051 4.03003 44.8081 4.05684 44.516C4.08489 44.2 4.12893 43.8856 4.18879 43.574C4.19937 43.5161 4.21136 43.459 4.22336 43.4018C4.23959 43.3207 4.25793 43.2402 4.27699 43.1598C4.32732 42.9481 4.38447 42.7388 4.44845 42.5318C4.48467 42.4161 4.52277 42.3011 4.56275 42.1868C4.78318 41.5572 5.06861 40.9523 5.41441 40.3819C5.43629 40.3459 5.45816 40.3113 5.48074 40.2746C5.50332 40.2379 5.51814 40.2146 5.53719 40.1843C6.00279 39.4569 6.56247 38.7943 7.2017 38.2135C7.36587 38.064 7.53545 37.9205 7.71043 37.7831C7.73725 37.7606 7.76406 37.7401 7.79087 37.7189L7.83462 37.6858C8.02937 37.5362 8.23023 37.3951 8.4372 37.2624C9.18631 36.774 9.99996 36.3925 10.8546 36.1292C10.9541 36.0982 11.055 36.0685 11.1559 36.041L11.1749 36.0361C11.4466 35.962 11.7232 35.8992 12.004 35.8498C12.2171 35.8112 12.4325 35.7799 12.6503 35.7559C13.0067 35.7168 13.365 35.6973 13.7236 35.6974H21.2072C21.7309 35.6974 22.2416 35.5344 22.6684 35.231C22.7291 35.1879 22.7884 35.1421 22.8448 35.0941C22.9013 35.0461 22.945 35.0052 22.9916 34.9586C23.4495 34.5016 23.7138 33.8858 23.7297 33.2391C23.7297 33.2179 23.7297 33.196 23.7297 33.1742C23.7297 33.1643 23.7297 33.1544 23.7297 33.1452C23.7185 32.1435 23.1169 31.2429 22.1957 30.8492C22.0406 30.7836 21.8794 30.7335 21.7145 30.6996C21.6834 30.6933 21.6517 30.6869 21.6199 30.682C21.4835 30.6593 21.3454 30.6479 21.2072 30.6481H8.58538H8.4372C8.23568 30.6432 8.03455 30.6279 7.83462 30.6022L7.79087 30.5973L7.74007 30.5902L7.71043 30.586C6.46147 30.4003 5.30567 29.8168 4.41458 28.9222C4.34896 28.8566 4.28475 28.7896 4.22265 28.7211C3.98161 28.4568 3.76527 28.1711 3.57632 27.8673C3.51235 27.7643 3.4512 27.6592 3.39287 27.5519C3.22957 27.2506 3.09332 26.9354 2.98574 26.61C2.52422 25.2195 2.59691 23.707 3.18966 22.3672C3.30215 22.1135 3.4323 21.8681 3.57915 21.6327C3.76809 21.3289 3.98443 21.0432 4.22548 20.7789C4.28757 20.7083 4.35178 20.6434 4.4174 20.5778C5.32844 19.6639 6.5149 19.0753 7.7937 18.9027L7.83674 18.8977C8.03667 18.8721 8.2378 18.8568 8.43932 18.8519C8.48636 18.8519 8.53575 18.8519 8.5875 18.8519C9.4917 18.853 10.3784 18.6024 11.1481 18.1279L11.1587 18.1216C11.3801 17.9843 11.5901 17.8296 11.7867 17.6587C11.8622 17.5938 11.9356 17.5268 12.0068 17.4569C12.2487 17.2214 12.4653 16.9613 12.6532 16.6808C12.727 16.5702 12.7976 16.4561 12.8648 16.3385C13.033 16.0365 13.1685 15.7174 13.2692 15.3867C13.3245 15.2042 13.3688 15.0185 13.4018 14.8307C13.4475 14.5779 13.4732 14.3219 13.4787 14.0651C13.4787 14.0319 13.4787 13.9988 13.4787 13.9649V8.98337C13.4785 8.47217 13.6815 7.98185 14.0429 7.62032C14.4043 7.25878 14.8945 7.05567 15.4057 7.05567H60.32C62.2778 7.05408 64.1083 8.02568 65.2041 9.64804C65.226 9.67909 65.2465 9.71013 65.2669 9.74118C65.4426 10.0103 65.5958 10.2935 65.7249 10.5879C65.8207 10.8055 65.903 11.0289 65.9711 11.2568C66.2262 12.1094 66.2858 13.0085 66.1454 13.8873C66.0961 14.2062 66.0198 14.5204 65.9175 14.8264C65.4441 16.2344 64.4579 17.4123 63.1551 18.1258C63.0069 18.2077 62.8549 18.2827 62.6992 18.3509C62.4888 18.444 62.273 18.5243 62.0529 18.5915C61.4923 18.7633 60.9091 18.8503 60.3228 18.8498H55.5247C55.1133 18.8486 54.705 18.9217 54.3195 19.0657L54.268 19.0854C54.1355 19.1375 54.0063 19.1978 53.8814 19.2661C53.7925 19.3148 53.7057 19.3677 53.6217 19.4241C52.6681 20.0598 52.0954 21.1301 52.0955 22.2762V22.3644C52.1029 22.6842 52.1556 23.0013 52.2521 23.3063C52.4868 24.0539 52.9701 24.6988 53.6217 25.1338C53.8243 25.2698 54.041 25.3833 54.268 25.4725C54.6682 25.6303 55.0946 25.711 55.5247 25.7103C55.5875 25.7103 55.6496 25.7103 55.7117 25.7146C56.463 25.7443 57.1941 25.9658 57.8355 26.3581C57.9118 26.4039 57.9858 26.4519 58.0585 26.5027C58.1093 26.538 58.1587 26.5733 58.2074 26.6114C58.3015 26.6829 58.3927 26.7579 58.4812 26.8365C58.7229 27.0508 58.9401 27.2912 59.1289 27.5533C59.6774 28.3106 59.9721 29.222 59.9707 30.157V33.1911C59.9693 34.4251 60.7002 35.5423 61.8314 36.0354C61.9019 36.0664 61.9725 36.0953 62.0494 36.1207C62.091 36.1356 62.1334 36.149 62.1757 36.1617C62.3436 36.2118 62.5172 36.2668 62.6957 36.3289C63.0549 36.451 63.4324 36.597 63.8183 36.7699C64.6966 37.1571 65.5189 37.6605 66.2632 38.2665C66.4884 38.4517 66.7041 38.6481 66.9096 38.8549C67.0615 39.0073 67.2085 39.1673 67.3506 39.3347C67.5808 39.6043 67.793 39.8888 67.9856 40.1864L68.0435 40.2767C68.4162 40.873 68.7082 41.5159 68.9121 42.1889C68.9469 42.3018 68.9793 42.4168 69.0094 42.5339C69.0623 42.7371 69.1096 42.9467 69.1506 43.1619C69.176 43.2974 69.1978 43.4357 69.2211 43.5761C69.2635 43.8781 69.2917 44.1921 69.3079 44.5181C69.3121 44.687 69.3142 44.8598 69.3142 45.0367Z" fill="#F3F4FE"/>
<path d="M54.4045 56.2974C54.306 56.5329 54.2554 56.7857 54.2556 57.0411V57.2386H22.0288V57.0411C22.0288 56.8226 21.9919 56.6057 21.9194 56.3997C21.9074 56.3651 21.894 56.3291 21.8799 56.2974L54.4045 56.2974Z" fill="#EDEEFE"/>
<path d="M69.0924 47.8154C69.0218 48.1336 68.9342 48.4478 68.83 48.7567H4.61048C4.49712 48.4481 4.39962 48.134 4.31836 47.8154H69.0924Z" fill="#EDEEFE"/>
<path d="M68.0418 40.2745H5.48047C5.49881 40.2442 5.51787 40.2145 5.53692 40.1842C5.72516 39.8894 5.92938 39.605 6.14867 39.3325H67.351C67.5812 39.6021 67.7934 39.8866 67.986 40.1842L68.0418 40.2745Z" fill="#EDEEFE"/>
<path d="M59.971 30.8491V31.7911H23.3193C23.0454 31.3734 22.6544 31.0458 22.1953 30.8491H59.971Z" fill="#EDEEFE"/>
<path d="M52.2533 23.3092H2.86133C2.94363 22.9864 3.0534 22.6712 3.18943 22.3672H52.0967C52.1041 22.687 52.1568 23.0042 52.2533 23.3092Z" fill="#EDEEFE"/>
<path d="M63.152 18.1257C63.0039 18.2076 62.8519 18.2826 62.6962 18.3508C62.4858 18.4439 62.2699 18.5242 62.0499 18.5914C61.4893 18.7632 60.9061 18.8502 60.3198 18.8497H55.5217C55.1112 18.8488 54.7039 18.922 54.3193 19.0656H6.99121C7.25353 18.992 7.52066 18.9369 7.79066 18.9005L7.8337 18.8955C8.03363 18.8699 8.23476 18.8545 8.43628 18.8497C8.48332 18.8497 8.53271 18.8497 8.58446 18.8497C9.48866 18.8508 10.3753 18.6001 11.1451 18.1257L63.152 18.1257Z" fill="#EDEEFE"/>
<path d="M65.7248 10.5851H13.4751V9.6438H65.2041C65.2259 9.67485 65.2464 9.70589 65.2668 9.73694C65.4426 10.0065 65.5958 10.2902 65.7248 10.5851Z" fill="#EDEEFE"/>
<path d="M35.7797 11.3372V38.2135H7.20294C7.36711 38.0639 7.53669 37.9205 7.71168 37.7831C7.73849 37.7605 7.76531 37.7401 7.79212 37.7189L7.83587 37.6857C8.03061 37.5361 8.23147 37.395 8.43845 37.2624C9.18755 36.7739 10.0012 36.3925 10.8558 36.1292C10.8558 36.1108 10.8558 36.0925 10.8558 36.0741L10.8601 36.1285C10.9596 36.0974 11.0605 36.0678 11.1614 36.0403C11.4394 35.9641 11.7216 35.9003 12.0081 35.849C12.2212 35.8105 12.4366 35.7792 12.6544 35.7552C13.0108 35.7161 13.3691 35.6965 13.7276 35.6966H21.207C22.5754 35.6971 23.6947 34.6063 23.7295 33.2383C23.7295 33.2172 23.7295 33.1953 23.7295 33.1734C23.7295 33.1635 23.7295 33.1537 23.7295 33.1445C23.7156 31.9578 22.8767 30.9413 21.7143 30.7024C21.6833 30.696 21.6515 30.6897 21.6198 30.6848C21.4833 30.662 21.3453 30.6507 21.207 30.6509H8.58521H8.43704C8.23552 30.646 8.03439 30.6307 7.83445 30.605L7.79071 30.6001L7.7399 30.593L7.71027 30.5888C7.25049 30.5201 6.80047 30.3972 6.36963 30.2226V19.2773C6.82608 19.0923 7.304 18.9655 7.79212 18.8998L7.83516 18.8949C8.03509 18.8692 8.23622 18.8539 8.43774 18.849C8.48478 18.849 8.53417 18.849 8.58592 18.849C9.76133 18.85 10.8974 18.4257 11.7844 17.6544C11.8599 17.5895 11.9333 17.5225 12.0046 17.4526C12.2464 17.2171 12.463 16.957 12.6509 16.6765C12.7247 16.5659 12.7953 16.4519 12.8626 16.3343C13.2501 15.6381 13.4609 14.8575 13.4764 14.0608C13.4764 14.0277 13.4764 13.9945 13.4764 13.9606V10.1857H34.5943C34.9042 10.1811 35.2033 10.2999 35.4256 10.5159C35.6479 10.7319 35.7753 11.0273 35.7797 11.3372Z" fill="#C7CCF9"/>
<path d="M34.3135 11.7344V38.2134H7.83447V37.6856C8.02922 37.5361 8.23008 37.3949 8.43705 37.2623C9.18616 36.7738 9.99982 36.3924 10.8544 36.1291C10.8544 36.1107 10.8544 36.0924 10.8544 36.074L10.8587 36.1284C10.9582 36.0973 11.0591 36.0677 11.16 36.0402C11.438 35.964 11.7202 35.9002 12.0067 35.849C12.2198 35.8104 12.4352 35.7791 12.653 35.7551C13.0094 35.716 13.3677 35.6964 13.7262 35.6966H21.207C22.5755 35.697 23.6947 34.6063 23.7295 33.2382C23.7295 33.2171 23.7295 33.1952 23.7295 33.1733C23.7295 33.1635 23.7295 33.1536 23.7295 33.1444C23.7156 31.9578 22.8768 30.9412 21.7143 30.7023C21.6833 30.696 21.6515 30.6896 21.6198 30.6847C21.4834 30.662 21.3453 30.6506 21.207 30.6508H8.58523H8.43705C8.23554 30.6459 8.03441 30.6306 7.83447 30.6049V18.8976C8.03441 18.8719 8.23554 18.8566 8.43705 18.8518C8.4841 18.8518 8.53349 18.8518 8.58523 18.8518C9.76124 18.8521 10.8976 18.4268 11.7844 17.6544C11.8599 17.5894 11.9333 17.5224 12.0046 17.4526C12.2464 17.217 12.4631 16.9569 12.6509 16.6764C12.7248 16.5659 12.7953 16.4518 12.8626 16.3342C13.2502 15.638 13.4609 14.8574 13.4764 14.0607C13.4764 14.0276 13.4764 13.9944 13.4764 13.9605V11.7344H34.3135Z" fill="#F0F1FC"/>
<path d="M34.3138 15.3826V38.2137H22.6714V35.2283C22.7867 35.1468 22.8948 35.0557 22.9946 34.9559C23.4524 34.4989 23.7167 33.8831 23.7326 33.2364C23.7326 33.2152 23.7326 33.1933 23.7326 33.1714C23.7326 33.1616 23.7326 33.1517 23.7326 33.1425C23.7251 32.3362 23.3315 31.5824 22.6742 31.1153V28.6147C22.6742 27.8152 23.2987 27.1668 24.0692 27.1668C24.8397 27.1668 25.4634 26.5191 25.4634 25.7196V17.0555C25.463 16.8067 25.5165 16.5607 25.6201 16.3344C25.8771 15.7598 26.4456 15.3879 27.075 15.3826L34.3138 15.3826Z" fill="#E5E7FD"/>
<path d="M15.9442 30.6487H8.58554H8.43737C8.23585 30.6438 8.03472 30.6285 7.83478 30.6028L7.79104 30.5979L7.74023 30.5908C7.75762 30.4403 7.78378 30.291 7.81856 30.1435C7.8235 30.1209 7.82914 30.0976 7.83478 30.0729C7.91259 29.7627 8.0265 29.4627 8.17418 29.1789C8.5242 28.5066 9.05213 27.9433 9.70039 27.5504C9.98507 27.3774 10.2898 27.2397 10.6078 27.1405L10.6233 27.1362L10.7546 27.0981C10.8039 27.0847 10.854 27.072 10.9041 27.0607C11.0227 27.0332 11.144 27.0106 11.2668 26.9944L11.3204 26.9866L11.391 26.9789L11.4404 26.9739C11.5011 26.9683 11.5625 26.9634 11.6246 26.9605C11.6598 26.9605 11.6951 26.957 11.7297 26.9563H11.8369C12.6596 26.9553 13.4635 27.2011 14.145 27.6619C14.2268 27.7176 14.3073 27.7755 14.3849 27.8376C14.4117 27.8581 14.4371 27.8792 14.4625 27.8997C14.6662 28.0681 14.8536 28.2555 15.022 28.4592L15.0841 28.5368C15.1462 28.6145 15.2041 28.6949 15.2598 28.7767C15.638 29.3352 15.8731 29.978 15.9442 30.6487Z" fill="#BAC3F7"/>
<path d="M38.8826 39.2974C38.8826 39.8965 38.3435 40.3819 37.6781 40.3819H5.41455C5.45477 40.3156 5.49569 40.25 5.53733 40.1844C6.00243 39.4566 6.56216 38.7939 7.20184 38.2136H37.6781C38.3435 38.2136 38.8826 38.6991 38.8826 39.2974Z" fill="#C7CCF9"/>
<path d="M24.728 38.2135V33.5403C24.7284 33.4487 24.8029 33.3745 24.8945 33.3745H28.6871C28.7788 33.3741 28.853 33.2997 28.853 33.208V30.1034C28.853 30.0114 28.9275 29.9368 29.0195 29.9368H29.7956C29.8397 29.9368 29.882 29.9193 29.9131 29.888C29.9443 29.8568 29.9616 29.8144 29.9615 29.7703V28.7282C29.9615 28.6362 30.036 28.5616 30.128 28.5616H31.2231C31.3148 28.5616 31.3892 28.4875 31.3896 28.3958V26.3496C31.3896 26.3055 31.4072 26.2632 31.4384 26.2321C31.4697 26.201 31.512 26.1836 31.5561 26.1838H32.2808C32.3727 26.1838 32.4473 26.1092 32.4473 26.0172V25.3455C32.4473 25.3015 32.4648 25.2594 32.4959 25.2283C32.527 25.1972 32.5691 25.1797 32.6131 25.1797H33.3385C33.4302 25.1797 33.5046 25.2538 33.505 25.3455V26.0179C33.505 26.1096 33.5791 26.1841 33.6708 26.1845H34.145C34.2367 26.1845 34.3111 26.2586 34.3115 26.3503V38.2135H24.728Z" fill="#DBDFFC"/>
<path d="M13.7629 30.6489H8.58523H8.43706C8.23554 30.644 8.03441 30.6287 7.83447 30.603V25.946C8.20667 26.0366 8.57268 26.1509 8.93027 26.2883L9.10738 26.3588C9.21886 26.4059 9.3294 26.4529 9.43901 26.4999C9.48981 26.5225 9.5392 26.5465 9.5893 26.5705C9.73042 26.6382 9.87154 26.7102 10.0127 26.7864C10.0515 26.8069 10.091 26.8288 10.1291 26.8506C10.1841 26.881 10.2385 26.9127 10.2921 26.9445C10.3457 26.9762 10.3972 27.0073 10.4494 27.0397L10.4678 27.0517C10.5158 27.0814 10.5637 27.1117 10.6089 27.1427C10.9575 27.3687 11.2899 27.6186 11.6038 27.8907C12.4958 28.6611 13.2292 29.5979 13.7629 30.6489Z" fill="#BAC3F7"/>
<path d="M15.9442 30.6489H15.7375C15.1587 28.9912 13.5949 27.8808 11.839 27.8809C11.76 27.8809 11.6817 27.8809 11.6041 27.8879C11.2663 27.9065 10.9322 27.9667 10.6092 28.0671C10.3171 27.8771 10.0141 27.7044 9.70176 27.5499C9.10693 27.2541 8.48096 27.0254 7.83545 26.8683V25.9412C8.20764 26.0317 8.57366 26.146 8.93125 26.2834L9.10835 26.3539C9.21984 26.401 9.33038 26.448 9.43998 26.4951C9.49079 26.5176 9.54018 26.5416 9.59028 26.5656C9.7314 26.6334 9.87252 26.7053 10.0136 26.7815C10.0524 26.802 10.092 26.8239 10.1301 26.8457C10.1851 26.8761 10.2394 26.9078 10.2931 26.9396C10.3467 26.9713 10.3982 27.0024 10.4504 27.0348L10.4687 27.0468C10.5167 27.0765 10.5647 27.1068 10.6099 27.1379L10.6254 27.1336L10.7566 27.0955C10.806 27.0821 10.8561 27.0694 10.9062 27.0581C11.0248 27.0306 11.1461 27.008 11.2689 26.9918L11.3225 26.984L11.3931 26.9763L11.4425 26.9713C11.5032 26.9657 11.5645 26.9608 11.6266 26.9579C11.6619 26.9579 11.6972 26.9544 11.7318 26.9537H11.839C12.6616 26.9527 13.4656 27.1985 14.147 27.6593C14.2289 27.7157 14.3093 27.7743 14.3869 27.835C14.4138 27.8555 14.4392 27.8766 14.4646 27.8971C14.6683 28.0655 14.8556 28.2529 15.0241 28.4566L15.0862 28.5342C15.1469 28.6119 15.2054 28.6923 15.2619 28.7741C15.6398 29.3336 15.8741 29.9775 15.9442 30.6489Z" fill="#A8B7F4"/>
<path d="M19.0994 35.823V35.9197C19.0994 35.9197 19.0994 35.9959 19.0952 36.034C19.0952 36.0601 19.0952 36.0869 19.0902 36.113V36.1497C19.0906 36.1558 19.0906 36.1619 19.0902 36.168V36.2097V36.2287V36.2499V36.2746C19.0902 36.2746 19.0902 36.2972 19.0867 36.3085C19.0832 36.3197 19.0867 36.3226 19.0867 36.3296C19.0867 36.3557 19.0804 36.3818 19.0761 36.4072C19.0719 36.4326 19.0705 36.4496 19.067 36.4707L19.0627 36.4947C19.0585 36.5208 19.0543 36.5462 19.0493 36.5716C19.0423 36.6126 19.0338 36.6528 19.0246 36.693C19.025 36.6982 19.025 36.7034 19.0246 36.7085C19.0246 36.7234 19.0183 36.7375 19.0147 36.7523C19.0112 36.7671 19.0112 36.7671 19.0091 36.7749C19.007 36.7826 19.002 36.8066 18.9978 36.8221L18.9872 36.8638C18.9872 36.8708 18.9837 36.8779 18.9816 36.8849C18.9717 36.9216 18.9618 36.9555 18.9505 36.9943L18.9357 37.0451C18.9308 37.0613 18.9258 37.0769 18.9202 37.0931C18.9047 37.1411 18.8884 37.189 18.8708 37.2342C18.8659 37.2462 18.8616 37.2589 18.8567 37.2709C18.8549 37.2764 18.8528 37.2818 18.8503 37.2871L18.8348 37.328C18.8305 37.3403 18.8255 37.3523 18.82 37.364L18.8115 37.3859L18.8052 37.4C18.803 37.4073 18.8001 37.4144 18.7967 37.4212C18.7847 37.4508 18.772 37.4798 18.7586 37.5087L18.7487 37.5299C18.7269 37.5771 18.7043 37.6244 18.6782 37.671C18.6683 37.6914 18.6577 37.7112 18.6471 37.7309L18.6119 37.7973L18.5921 37.8333L18.5272 37.944L18.5145 37.9652L18.4679 38.0358C18.4623 38.0449 18.4566 38.0541 18.4503 38.0633C18.4439 38.0725 18.4397 38.0802 18.434 38.088L18.4164 38.1141C18.3973 38.143 18.3769 38.1719 18.3571 38.2009C18.2866 38.3025 18.2075 38.4013 18.1264 38.4958L18.0707 38.5593C17.234 39.4969 16.0158 40.0024 14.7611 39.9326C13.5065 39.8628 12.3519 39.2254 11.6243 38.2009C11.5947 38.1585 11.565 38.1155 11.5368 38.0725C11.4794 37.9859 11.4258 37.897 11.3759 37.8057C11.2997 37.6688 11.2319 37.5275 11.1727 37.3824C11.1217 37.2612 11.0774 37.1373 11.0401 37.0112C11.0161 36.935 10.9956 36.8581 10.9773 36.7805C10.939 36.6234 10.9105 36.4641 10.8919 36.3035C10.8841 36.2414 10.8778 36.1779 10.8735 36.1144C10.8735 36.0961 10.8735 36.0777 10.8735 36.0594L10.8778 36.1137C10.9773 36.0827 11.0782 36.053 11.1791 36.0255C11.4571 35.9493 11.7393 35.8856 12.0258 35.8343C12.2389 35.7957 12.4543 35.7644 12.6721 35.7405C13.0285 35.7013 13.3868 35.6818 13.7453 35.6819H19.1185C19.0987 35.7369 19.0994 35.78 19.0994 35.823Z" fill="#C7CCF9"/>
<path d="M7.83398 23.1567H34.3137V24.479H7.83398V23.1567Z" fill="#ECEDFC"/>
<path d="M7.83398 20.8826H34.3137V22.2049H7.83398V20.8826Z" fill="#ECEDFC"/>
<path d="M34.3137 18.6084V19.9307H7.83398V18.8977C8.03392 18.872 8.23505 18.8567 8.43657 18.8518C8.48361 18.8518 8.533 18.8518 8.58474 18.8518C9.10106 18.8517 9.61407 18.7695 10.1046 18.6084L34.3137 18.6084Z" fill="#ECEDFC"/>
<path d="M34.3138 16.3342V17.6544H11.7847C11.8602 17.5895 11.9335 17.5225 12.0048 17.4526C12.2467 17.2171 12.4633 16.957 12.6511 16.6764C12.725 16.5659 12.7956 16.4518 12.8628 16.3342H34.3138Z" fill="#ECEDFC"/>
<path d="M34.3139 14.0608V15.3824H13.2651C13.3955 14.9535 13.4667 14.5089 13.4768 14.0608L34.3139 14.0608Z" fill="#ECEDFC"/>
<path d="M13.4751 11.7866H34.3136V13.1089H13.4751L13.4751 11.7866Z" fill="#ECEDFC"/>
<path d="M21.7143 11.4644V30.7004C21.6832 30.6941 21.6515 30.6877 21.6197 30.6828C21.4833 30.6601 21.3452 30.6487 21.2069 30.6489H20.0166V11.4644L21.7143 11.4644Z" fill="#C7CCF9"/>
<path d="M21.2069 35.6946C21.3774 35.6947 21.5474 35.6774 21.7143 35.6431V38.2136H20.0166V35.6946H21.2069Z" fill="#C7CCF9"/>
<path d="M12.6729 30.649H8.58539H8.43722C8.2357 30.6441 8.03457 30.6288 7.83463 30.6031L7.79089 30.5982L7.74008 30.5911L7.71045 30.5869V29.1672H7.83463C7.94824 29.1672 8.06113 29.1722 8.17403 29.1785C8.32738 29.1865 8.47979 29.1978 8.63126 29.2124H8.63549C8.93937 29.2434 9.23878 29.2891 9.53372 29.3493L9.64379 29.3726C9.78962 29.405 9.93474 29.4405 10.0791 29.4791L10.1871 29.5087C10.2577 29.5278 10.3212 29.5483 10.3875 29.568L10.4002 29.5723C10.5371 29.6153 10.6719 29.6605 10.8059 29.7091L10.8207 29.7148C10.8849 29.7381 10.9484 29.7628 11.012 29.7853C11.0515 29.8009 11.091 29.8164 11.1298 29.8333C11.1919 29.858 11.2533 29.8834 11.3139 29.9109C11.3246 29.9147 11.335 29.9192 11.345 29.9243C11.4085 29.9519 11.4706 29.9808 11.5327 30.0097L11.6322 30.0563C11.6703 30.0746 11.7091 30.093 11.7465 30.1127L11.8283 30.1544C11.8685 30.1741 11.9088 30.1946 11.9483 30.2172C11.9878 30.2397 12.0449 30.2687 12.0929 30.2955C12.1077 30.3025 12.1219 30.311 12.136 30.3195C12.1621 30.3336 12.1875 30.3484 12.2129 30.3632C12.3138 30.4204 12.4126 30.4797 12.5106 30.5417L12.5861 30.5897C12.6151 30.6109 12.6447 30.6292 12.6729 30.649Z" fill="#C7CCF9"/>
<path d="M16.7555 38.2136H7.71045V37.7832C7.73726 37.7607 7.76407 37.7402 7.79089 37.719L7.83463 37.6859C8.02938 37.5363 8.23024 37.3952 8.43722 37.2625C9.18632 36.7741 9.99998 36.3927 10.8546 36.1293C10.8546 36.111 10.8546 36.0926 10.8546 36.0743L10.8588 36.1286C10.9583 36.0976 11.0592 36.0679 11.1601 36.0404C11.4381 35.9642 11.7204 35.9005 12.0068 35.8492C12.2199 35.8106 12.4354 35.7793 12.6532 35.7553C13.0096 35.7162 13.3679 35.6966 13.7264 35.6968H16.4027C16.6378 36.515 16.7566 37.3623 16.7555 38.2136Z" fill="#C7CCF9"/>
<path d="M19.0997 35.823V35.9197C19.0997 35.9197 19.0997 35.9959 19.0955 36.034C19.0955 36.0601 19.0955 36.0869 19.0905 36.113V36.1497C19.0909 36.1558 19.0909 36.1619 19.0905 36.168V36.2097V36.228V36.2492V36.2739C19.0905 36.2739 19.0905 36.2965 19.087 36.3078C19.0835 36.319 19.087 36.3219 19.087 36.3289C19.087 36.355 19.0806 36.3811 19.0764 36.4065C19.0722 36.4319 19.0708 36.4489 19.0672 36.47L19.063 36.494C19.0588 36.5201 19.0545 36.5455 19.0496 36.5709C19.0425 36.6119 19.0341 36.6521 19.0249 36.6923C19.0252 36.6975 19.0252 36.7027 19.0249 36.7078C19.0249 36.7226 19.0186 36.7368 19.015 36.7516L18.9981 36.8221L18.9875 36.8638C18.9875 36.8708 18.984 36.8779 18.9819 36.8849C18.972 36.9216 18.9621 36.9555 18.9508 36.9943L18.936 37.0451C18.9318 37.0599 18.9268 37.0754 18.9219 37.0903C18.917 37.1051 18.917 37.1051 18.9141 37.1121C18.9052 37.1408 18.8953 37.1698 18.8845 37.1989C18.8823 37.2071 18.8795 37.2152 18.876 37.2229C18.876 37.2229 18.876 37.23 18.8725 37.2342C18.869 37.2384 18.8633 37.2589 18.8584 37.2709C18.8566 37.2764 18.8545 37.2818 18.852 37.2871C18.8422 37.3132 18.8323 37.3386 18.8217 37.364L18.8132 37.3859L18.8069 37.4C18.7892 37.4438 18.7702 37.4868 18.7504 37.5299C18.7307 37.5729 18.706 37.6244 18.6799 37.671C18.67 37.6914 18.6594 37.7112 18.6488 37.7309C18.6382 37.7507 18.6255 37.7754 18.6135 37.7973L18.5938 37.8333C18.5726 37.8707 18.5514 37.9038 18.5289 37.944L18.5162 37.9652C18.5014 37.9906 18.4858 38.0146 18.4696 38.0358C18.464 38.0449 18.4583 38.0541 18.452 38.0633C18.4456 38.0725 18.4414 38.0795 18.4357 38.088L18.4181 38.1141C18.3988 38.1428 18.379 38.1717 18.3588 38.2009H11.6055C11.5759 38.1585 11.5463 38.1155 11.518 38.0725C11.4606 37.9859 11.407 37.897 11.3572 37.8057C11.2815 37.6686 11.2137 37.5272 11.1539 37.3824C11.1038 37.2617 11.0601 37.1375 11.0213 37.0112C10.9987 36.935 10.9775 36.8581 10.9585 36.7805C10.921 36.6233 10.8924 36.464 10.8731 36.3035C10.8661 36.2407 10.8597 36.1772 10.8555 36.1137C10.955 36.0827 11.0559 36.053 11.1568 36.0255C11.4348 35.9493 11.717 35.8856 12.0035 35.8343C12.2166 35.7957 12.432 35.7644 12.6498 35.7405C13.0062 35.7013 13.3645 35.6818 13.723 35.6819H19.0962C19.099 35.7369 19.0997 35.78 19.0997 35.823Z" fill="#BAC3F7"/>
<path d="M12.6729 30.6488H8.58539H8.43722C8.2357 30.6439 8.03457 30.6286 7.83463 30.6029L7.79089 30.5979L7.74008 30.5909L7.71045 30.5867V29.167H7.83463C7.94824 29.167 8.06113 29.1719 8.17403 29.1783C8.32738 29.1863 8.47979 29.1976 8.63126 29.2122H8.63549C8.93937 29.2432 9.23878 29.2888 9.53372 29.349L9.64379 29.3723C9.78962 29.4048 9.93474 29.4403 10.0791 29.4789L10.1871 29.5085C10.2577 29.5276 10.3212 29.548 10.3875 29.5678L10.4002 29.572C10.5371 29.615 10.6719 29.6602 10.8059 29.7089L10.8207 29.7145C10.8849 29.7378 10.9484 29.7625 11.012 29.7851C11.0515 29.8006 11.091 29.8161 11.1298 29.8331C11.1919 29.8578 11.2533 29.8832 11.3139 29.9107C11.3246 29.9144 11.335 29.9189 11.345 29.9241C11.4085 29.9516 11.4706 29.9805 11.5327 30.0095L11.6322 30.056C11.6703 30.0744 11.7091 30.0927 11.7465 30.1125L11.8283 30.1541C11.8685 30.1739 11.9088 30.1943 11.9483 30.2169C11.9878 30.2395 12.0449 30.2684 12.0929 30.2952C12.1077 30.3023 12.1219 30.3108 12.136 30.3192C12.1621 30.3333 12.1875 30.3482 12.2129 30.363C12.3138 30.4201 12.4126 30.4794 12.5106 30.5415L12.5861 30.5895C12.6151 30.6106 12.6447 30.629 12.6729 30.6488Z" fill="#BAC3F7"/>
<path d="M16.7555 38.2134H7.71045V37.783C7.73726 37.7604 7.76407 37.74 7.79089 37.7188L7.83463 37.6856C8.02938 37.536 8.23024 37.3949 8.43722 37.2623C9.18632 36.7738 9.99998 36.3924 10.8546 36.1291C10.8546 36.1107 10.8546 36.0924 10.8546 36.074L10.8588 36.1284C10.9583 36.0973 11.0592 36.0677 11.1601 36.0402C11.4381 35.964 11.7204 35.9002 12.0068 35.8489C12.2199 35.8104 12.4354 35.7791 12.6532 35.7551C13.0096 35.716 13.3679 35.6964 13.7264 35.6965H16.4027C16.6378 36.5148 16.7566 37.3621 16.7555 38.2134Z" fill="#BAC3F7"/>
<path d="M12.5861 30.5924C12.6151 30.6107 12.644 30.629 12.6729 30.6488H10.1554C9.40754 30.3785 8.62715 30.2086 7.83463 30.1436H7.81841L7.71045 30.1351V29.1685H7.83463C7.94824 29.1685 8.06184 29.1734 8.17473 29.1797C8.32761 29.1877 8.47979 29.1993 8.63126 29.2143H8.63549C8.93706 29.2444 9.23687 29.2901 9.53372 29.3512L9.64379 29.3745C9.79056 29.4065 9.93568 29.442 10.0791 29.481L10.1871 29.5107C10.2577 29.5297 10.3212 29.5502 10.3875 29.5699L10.4002 29.5742C10.5371 29.6165 10.6726 29.6617 10.8059 29.7111L10.8207 29.7167C10.8849 29.74 10.9484 29.7647 11.012 29.7873C11.0515 29.8028 11.091 29.8183 11.1298 29.8352C11.1919 29.8599 11.2533 29.8853 11.3139 29.9129C11.3246 29.9166 11.335 29.9211 11.345 29.9263C11.4085 29.9538 11.4706 29.9827 11.5327 30.0116L11.6322 30.0582C11.6703 30.0766 11.7091 30.0949 11.7465 30.1147L11.8283 30.1563C11.8685 30.1761 11.9088 30.1965 11.9483 30.2191C11.9878 30.2417 12.0449 30.2706 12.0929 30.2974C12.1077 30.3045 12.1219 30.3129 12.136 30.3214C12.1621 30.3355 12.1875 30.3503 12.2129 30.3652C12.3138 30.4223 12.4126 30.4816 12.5106 30.5437L12.5861 30.5924Z" fill="#C7CCF9"/>
<path d="M19.0996 35.823V35.9197C19.0996 35.9197 19.0996 35.9959 19.0953 36.034C19.0953 36.0601 19.0953 36.0869 19.0904 36.113V36.1497C19.0908 36.1558 19.0908 36.1619 19.0904 36.168V36.2097V36.2259V36.2471V36.2718C19.0904 36.2718 19.0904 36.2943 19.0869 36.3056C19.0833 36.3169 19.0869 36.3197 19.0869 36.3268C19.0869 36.3529 19.0805 36.379 19.0763 36.4044C19.072 36.4298 19.0678 36.463 19.0629 36.4919C19.0579 36.5208 19.0544 36.5434 19.0495 36.5688C19.0424 36.6097 19.0339 36.65 19.0248 36.6902C19.0251 36.6954 19.0251 36.7005 19.0248 36.7057C19.0198 36.7276 19.0149 36.7502 19.0092 36.772C19.0036 36.7939 19.0022 36.8038 18.998 36.8193L18.9874 36.8609C18.9874 36.868 18.9838 36.8751 18.9817 36.8821C18.9719 36.9188 18.962 36.9527 18.9507 36.9915C18.9457 37.0098 18.9401 37.0275 18.9345 37.0451C18.9288 37.0627 18.9253 37.0754 18.9203 37.0903C18.9154 37.1051 18.9154 37.1051 18.9126 37.1121C18.9036 37.1408 18.8938 37.1698 18.8829 37.1989C18.8808 37.2071 18.8779 37.2152 18.8745 37.2229C18.8688 37.2391 18.8632 37.2547 18.8568 37.2709C18.855 37.2764 18.8529 37.2818 18.8505 37.2871L18.835 37.328L18.8117 37.3859L18.7969 37.4212C18.7849 37.4508 18.7722 37.4798 18.7588 37.5087L18.7489 37.5298C18.727 37.5771 18.7044 37.6244 18.6783 37.671C18.6684 37.6914 18.6579 37.7112 18.6473 37.7309L18.612 37.7973L18.5922 37.8333L18.5273 37.944L18.5146 37.9652L18.4681 38.0358C18.4624 38.0449 18.4568 38.0541 18.4504 38.0633C18.4441 38.0725 18.4398 38.0795 18.4342 38.088L18.4165 38.1141C18.3975 38.143 18.377 38.1719 18.3573 38.2009C18.2867 38.3025 18.2077 38.4013 18.1265 38.4958L18.0708 38.5593C18.1272 38.4429 18.1788 38.3229 18.2239 38.2009C18.5248 37.3941 18.5667 36.5136 18.3439 35.6819H19.1165C19.0989 35.7369 19.0996 35.78 19.0996 35.823Z" fill="#C7CCF9"/>
<path d="M32.1528 27.0227H32.7843V27.4439H32.1528V27.0227Z" fill="#E5E7FD"/>
<path d="M32.1528 28.5813H32.7843V29.0025H32.1528V28.5813Z" fill="#E5E7FD"/>
<path d="M30.6162 29.3604H31.2477V29.7816H30.6162V29.3604Z" fill="#E5E7FD"/>
<path d="M30.6162 32.4346H31.2477V32.8558H30.6162V32.4346Z" fill="#E5E7FD"/>
<path d="M27.8594 33.9714H28.4909V34.3927H27.8594V33.9714Z" fill="#E5E7FD"/>
<path d="M27.8594 35.509H28.4909V35.9303H27.8594V35.509Z" fill="#E5E7FD"/>
<path d="M25.9204 34.6038H26.5519V35.025H25.9204V34.6038Z" fill="#E5E7FD"/>
<path d="M25.9204 36.3718H26.5519V36.7931H25.9204V36.3718Z" fill="#E5E7FD"/>
<path d="M27.8594 37.0457H28.4909V37.4669H27.8594V37.0457Z" fill="#E5E7FD"/>
<path d="M30.6162 35.509H31.2477V35.9303H30.6162V35.509Z" fill="#E5E7FD"/>
<path d="M30.6162 37.0457H31.2477V37.4669H30.6162V37.0457Z" fill="#E5E7FD"/>
<path d="M32.1528 31.6973H32.7843V32.1185H32.1528V31.6973Z" fill="#E5E7FD"/>
<path d="M32.1528 33.2559H32.7843V33.6771H32.1528V33.2559Z" fill="#E5E7FD"/>
<path d="M32.1528 36.3718H32.7843V36.7931H32.1528V36.3718Z" fill="#E5E7FD"/>
<rect x="11.1558" y="65.4744" width="5.22567" height="1.24256" rx="0.621281" transform="rotate(-180 11.1558 65.4744)" fill="#D2D6FA"/>
<rect x="68.811" y="65.4744" width="57.1494" height="1.24256" rx="0.621281" transform="rotate(-180 68.811 65.4744)" fill="#D2D6FA"/>
<rect x="37.5151" y="23.7439" width="13.29" height="0.822023" rx="0.411012" fill="#BCBFF6"/>
<path d="M41.8218 20.4939C42.0029 20.9334 41.7935 21.4366 41.3539 21.6178L40.9201 21.7966C40.7389 21.3571 40.9484 20.8539 41.388 20.6727L41.8218 20.4939Z" fill="#D2D6FA"/>
<path d="M40.7114 19.6541C41.151 19.8352 41.3604 20.3384 41.1793 20.778L41.0005 21.2118C40.5609 21.0306 40.3514 20.5274 40.5326 20.0879L40.7114 19.6541Z" fill="#BCBFF6"/>
<path d="M40.9205 21.7961L40.4867 21.6173C40.0471 21.4361 39.8377 20.933 40.0188 20.4934L40.4527 20.6722C40.8922 20.8534 41.1017 21.3566 40.9205 21.7961Z" fill="#D2D6FA"/>
<path d="M42.4211 22.2029C42.4032 23.0413 41.7184 23.7116 40.8798 23.7116C40.0411 23.7116 39.3563 23.0413 39.3384 22.2029C39.3388 22.0749 39.3547 21.9474 39.3857 21.8232H42.3739C42.4048 21.9474 42.4207 22.0749 42.4211 22.2029Z" fill="#D2D6FA"/>
<rect x="39.1514" y="21.4202" width="3.53294" height="0.403603" rx="0.201801" fill="#BCBFF6"/>
<path d="M42.4127 22.025H39.3511C39.3587 21.957 39.3709 21.8896 39.3878 21.8232H42.376C42.3928 21.8896 42.4051 21.957 42.4127 22.025Z" fill="#B5BBF4"/>
<path d="M49.1982 21.2007C49.2663 21.3657 49.266 21.5511 49.1973 21.7159C49.1287 21.8807 48.9975 22.0115 48.8324 22.0795L48.4925 22.2196C48.3509 21.8759 48.5146 21.4824 48.8584 21.3408L49.1982 21.2007Z" fill="#D2D6FA"/>
<path d="M48.332 20.5447C48.6757 20.6863 48.8395 21.0798 48.6979 21.4235L48.557 21.7654C48.3919 21.6973 48.2606 21.5665 48.192 21.4017C48.1234 21.2369 48.1231 21.0516 48.1911 20.8865L48.3312 20.5466L48.332 20.5447Z" fill="#BCBFF6"/>
<path d="M48.493 22.2195L48.1531 22.0794C47.8094 21.9378 47.6456 21.5443 47.7873 21.2006L48.1272 21.3407C48.2922 21.4087 48.4235 21.5395 48.4921 21.7043C48.5607 21.8691 48.561 22.0545 48.493 22.2195Z" fill="#D2D6FA"/>
<path d="M49.671 22.538C49.671 23.204 49.1311 23.7438 48.4652 23.7438C47.7992 23.7438 47.2593 23.204 47.2593 22.538C47.2592 22.4908 47.262 22.4437 47.2677 22.3969C47.2738 22.3438 47.2834 22.2912 47.2967 22.2395H49.6336C49.6469 22.2912 49.6565 22.3438 49.6626 22.3969C49.6683 22.4437 49.6711 22.4908 49.671 22.538Z" fill="#D2D6FA"/>
<rect x="47.1113" y="21.9263" width="2.76384" height="0.315403" rx="0.157701" fill="#BCBFF6"/>
<path d="M49.6624 22.399H47.2676C47.2736 22.346 47.2833 22.2934 47.2965 22.2417H49.6335C49.6467 22.2934 49.6564 22.346 49.6624 22.399Z" fill="#B5BBF4"/>
<path d="M44.0169 18.0779H44.7493C44.9757 18.0779 45.1593 18.2614 45.1593 18.4878V23.7438H43.6069V18.4843C43.6089 18.2593 43.7918 18.0779 44.0169 18.0779Z" fill="#D2D6FA"/>
<ellipse cx="44.3826" cy="20.9095" rx="0.500271" ry="0.50027" fill="#B5BBF4"/>
<path d="M44.3825 21.2699C44.3637 21.2734 44.3445 21.275 44.3254 21.2749C44.1383 21.2562 43.9959 21.0988 43.9961 20.9108C43.9963 20.7228 44.139 20.5656 44.3261 20.5474C44.3452 20.5472 44.3644 20.5489 44.3832 20.5523C44.2053 20.5797 44.0739 20.7328 44.0739 20.9129C44.0739 21.093 44.2053 21.2461 44.3832 21.2734L44.3825 21.2699Z" fill="#D2D6FA"/>
<path d="M45.4637 19.5166H46.0092C46.1779 19.5166 46.3147 19.6534 46.3147 19.8221V23.7439H45.1582V19.8221C45.1582 19.6534 45.295 19.5166 45.4637 19.5166Z" fill="#BCBFF6"/>
<circle cx="45.7361" cy="21.6299" r="0.373262" fill="#D2D6FA"/>
<path d="M45.7375 21.8993C45.7235 21.9004 45.7093 21.9004 45.6952 21.8993C45.5448 21.8993 45.4229 21.7773 45.4229 21.6269C45.4229 21.4765 45.5448 21.3546 45.6952 21.3546C45.7093 21.3535 45.7235 21.3535 45.7375 21.3546C45.6047 21.375 45.5067 21.4893 45.5067 21.6238C45.5067 21.7582 45.6047 21.8725 45.7375 21.8929V21.8993Z" fill="#F0F1FC"/>
<path d="M16.1318 34.4082H57.5801C58.3503 34.408 59.089 34.7138 59.6337 35.2584C60.1784 35.8029 60.4844 36.5416 60.4844 37.3117V51.0223H13.2275V37.3117C13.2275 36.5416 13.5335 35.8029 14.0782 35.2584C14.6229 34.7138 15.3616 34.408 16.1318 34.4082V34.4082Z" fill="#A17C74"/>
<path d="M13.2275 50.2454H60.4837V51.0222H13.2275V50.2454Z" fill="#7B5649"/>
<rect x="9.26367" y="51.0222" width="55.1843" height="8.57163" rx="4.28582" fill="#A17C74"/>
<path d="M9.26367 56.9211H64.4479V57.8427H9.26367L9.26367 56.9211Z" fill="#936E62"/>
<path d="M15.8021 64.2298H14.4185L16.4174 59.5947H18.602L15.8021 64.2298Z" fill="#7B5649"/>
<path d="M57.909 64.2298H59.2927L57.2944 59.5947H55.1099L57.909 64.2298Z" fill="#7B5649"/>
<circle cx="55.6833" cy="39.1655" r="0.47628" fill="#7B5649"/>
<path d="M57.1758 37.4878C57.2267 37.4368 57.3094 37.4368 57.3604 37.4878C57.4113 37.5388 57.4113 37.6214 57.3604 37.6724L56.4927 38.5401C56.4417 38.591 56.3591 38.591 56.3081 38.5401C56.2571 38.4891 56.2571 38.4064 56.3081 38.3555L57.1758 37.4878Z" fill="#7B5649"/>
<path d="M54.7226 39.9419C54.7736 39.8909 54.8563 39.8909 54.9072 39.9419C54.9582 39.9929 54.9582 40.0755 54.9072 40.1265L54.0396 40.9942C53.9886 41.0451 53.906 41.0451 53.855 40.9942C53.804 40.9432 53.804 40.8605 53.855 40.8096L54.7226 39.9419Z" fill="#7B5649"/>
<path d="M57.3608 40.8093C57.4118 40.8603 57.4118 40.9429 57.3608 40.9939C57.3098 41.0449 57.2272 41.0449 57.1762 40.9939L56.3086 40.1263C56.2576 40.0753 56.2576 39.9926 56.3086 39.9417C56.3595 39.8907 56.4422 39.8907 56.4932 39.9417L57.3608 40.8093Z" fill="#7B5649"/>
<path d="M54.9067 38.3559C54.9577 38.4069 54.9577 38.4896 54.9067 38.5405C54.8557 38.5915 54.7731 38.5915 54.7221 38.5405L53.8545 37.6729C53.8035 37.6219 53.8035 37.5393 53.8545 37.4883C53.9054 37.4373 53.9881 37.4373 54.0391 37.4883L54.9067 38.3559Z" fill="#7B5649"/>
<circle cx="55.6833" cy="46.7522" r="0.47628" fill="#7B5649"/>
<path d="M57.1758 45.0755C57.2267 45.0245 57.3094 45.0245 57.3604 45.0755C57.4113 45.1264 57.4113 45.2091 57.3604 45.2601L56.4927 46.1277C56.4417 46.1787 56.3591 46.1787 56.3081 46.1277C56.2571 46.0767 56.2571 45.9941 56.3081 45.9431L57.1758 45.0755Z" fill="#7B5649"/>
<path d="M54.7222 47.5288C54.7731 47.4778 54.8558 47.4778 54.9068 47.5288C54.9577 47.5798 54.9577 47.6625 54.9068 47.7134L54.0391 48.5811C53.9881 48.6321 53.9055 48.6321 53.8545 48.5811C53.8035 48.5301 53.8035 48.4475 53.8545 48.3965L54.7222 47.5288Z" fill="#7B5649"/>
<path d="M57.3603 48.3962C57.4113 48.4472 57.4113 48.5299 57.3603 48.5808C57.3094 48.6318 57.2267 48.6318 57.1757 48.5808L56.3081 47.7132C56.2571 47.6622 56.2571 47.5796 56.3081 47.5286C56.3591 47.4776 56.4417 47.4776 56.4927 47.5286L57.3603 48.3962Z" fill="#7B5649"/>
<path d="M54.9062 45.9421C54.9572 45.9931 54.9572 46.0757 54.9062 46.1267C54.8553 46.1777 54.7726 46.1777 54.7216 46.1267L53.854 45.2591C53.803 45.2081 53.803 45.1255 53.854 45.0745C53.905 45.0235 53.9876 45.0235 54.0386 45.0745L54.9062 45.9421Z" fill="#7B5649"/>
<ellipse cx="46.3073" cy="39.1655" rx="0.476278" ry="0.47628" fill="#7B5649"/>
<path d="M47.7998 37.4878C47.8508 37.4368 47.9334 37.4368 47.9844 37.4878C48.0354 37.5388 48.0354 37.6214 47.9844 37.6724L47.1167 38.5401C47.0658 38.591 46.9831 38.591 46.9321 38.5401C46.8812 38.4891 46.8812 38.4064 46.9321 38.3555L47.7998 37.4878Z" fill="#7B5649"/>
<path d="M45.3462 39.9419C45.3972 39.8909 45.4798 39.8909 45.5308 39.9419C45.5818 39.9929 45.5818 40.0755 45.5308 40.1265L44.6631 40.9942C44.6122 41.0451 44.5295 41.0451 44.4785 40.9942C44.4275 40.9432 44.4275 40.8605 44.4785 40.8096L45.3462 39.9419Z" fill="#7B5649"/>
<path d="M47.9848 40.8093C48.0358 40.8603 48.0358 40.9429 47.9848 40.9939C47.9339 41.0449 47.8512 41.0449 47.8002 40.9939L46.9326 40.1263C46.8816 40.0753 46.8816 39.9926 46.9326 39.9417C46.9836 39.8907 47.0662 39.8907 47.1172 39.9417L47.9848 40.8093Z" fill="#7B5649"/>
<path d="M45.5307 38.3559C45.5817 38.4069 45.5817 38.4896 45.5307 38.5405C45.4798 38.5915 45.3971 38.5915 45.3461 38.5405L44.4785 37.6729C44.4275 37.6219 44.4275 37.5393 44.4785 37.4883C44.5295 37.4373 44.6121 37.4373 44.6631 37.4883L45.5307 38.3559Z" fill="#7B5649"/>
<ellipse cx="46.3073" cy="46.7522" rx="0.476278" ry="0.47628" fill="#7B5649"/>
<path d="M47.7993 45.0755C47.8503 45.0245 47.9329 45.0245 47.9839 45.0755C48.0349 45.1264 48.0349 45.2091 47.9839 45.2601L47.1163 46.1277C47.0653 46.1787 46.9826 46.1787 46.9317 46.1277C46.8807 46.0767 46.8807 45.9941 46.9317 45.9431L47.7993 45.0755Z" fill="#7B5649"/>
<path d="M45.3462 47.5288C45.3972 47.4778 45.4798 47.4778 45.5308 47.5288C45.5818 47.5798 45.5818 47.6625 45.5308 47.7134L44.6631 48.5811C44.6122 48.6321 44.5295 48.6321 44.4785 48.5811C44.4275 48.5301 44.4275 48.4475 44.4785 48.3965L45.3462 47.5288Z" fill="#7B5649"/>
<path d="M47.9844 48.3962C48.0353 48.4472 48.0353 48.5299 47.9844 48.5808C47.9334 48.6318 47.8507 48.6318 47.7998 48.5808L46.9321 47.7132C46.8811 47.6622 46.8811 47.5796 46.9321 47.5286C46.9831 47.4776 47.0657 47.4776 47.1167 47.5286L47.9844 48.3962Z" fill="#7B5649"/>
<path d="M45.5312 45.9421C45.5822 45.9931 45.5822 46.0757 45.5312 46.1267C45.4803 46.1777 45.3976 46.1777 45.3466 46.1267L44.479 45.2591C44.428 45.2081 44.428 45.1255 44.479 45.0745C44.53 45.0235 44.6126 45.0235 44.6636 45.0745L45.5312 45.9421Z" fill="#7B5649"/>
<circle cx="36.9314" cy="39.1655" r="0.47628" fill="#7B5649"/>
<path d="M38.4238 37.4878C38.4748 37.4368 38.5574 37.4368 38.6084 37.4878C38.6594 37.5388 38.6594 37.6214 38.6084 37.6724L37.7408 38.5401C37.6898 38.591 37.6071 38.591 37.5562 38.5401C37.5052 38.4891 37.5052 38.4064 37.5562 38.3555L38.4238 37.4878Z" fill="#7B5649"/>
<path d="M35.9702 39.9417C36.0212 39.8907 36.1038 39.8907 36.1548 39.9417C36.2058 39.9926 36.2058 40.0753 36.1548 40.1263L35.2872 40.9939C35.2362 41.0449 35.1535 41.0449 35.1026 40.9939C35.0516 40.9429 35.0516 40.8603 35.1026 40.8093L35.9702 39.9417Z" fill="#7B5649"/>
<path d="M38.6089 40.8093C38.6598 40.8603 38.6598 40.9429 38.6089 40.9939C38.5579 41.0449 38.4752 41.0449 38.4243 40.9939L37.5566 40.1263C37.5056 40.0753 37.5056 39.9926 37.5566 39.9417C37.6076 39.8907 37.6902 39.8907 37.7412 39.9417L38.6089 40.8093Z" fill="#7B5649"/>
<path d="M36.1557 38.3559C36.2067 38.4069 36.2067 38.4896 36.1557 38.5405C36.1048 38.5915 36.0221 38.5915 35.9711 38.5405L35.1035 37.6729C35.0525 37.6219 35.0525 37.5393 35.1035 37.4883C35.1545 37.4373 35.2371 37.4373 35.2881 37.4883L36.1557 38.3559Z" fill="#7B5649"/>
<circle cx="36.9314" cy="46.7522" r="0.47628" fill="#7B5649"/>
<path d="M38.4233 45.0755C38.4743 45.0245 38.557 45.0245 38.6079 45.0755C38.6589 45.1264 38.6589 45.2091 38.6079 45.2601L37.7403 46.1277C37.6893 46.1787 37.6067 46.1787 37.5557 46.1277C37.5047 46.0767 37.5047 45.9941 37.5557 45.9431L38.4233 45.0755Z" fill="#7B5649"/>
<path d="M35.9702 47.5288C36.0212 47.4778 36.1038 47.4778 36.1548 47.5288C36.2058 47.5798 36.2058 47.6625 36.1548 47.7134L35.2872 48.5811C35.2362 48.6321 35.1535 48.6321 35.1026 48.5811C35.0516 48.5301 35.0516 48.4475 35.1026 48.3965L35.9702 47.5288Z" fill="#7B5649"/>
<path d="M38.6084 48.3962C38.6594 48.4472 38.6594 48.5299 38.6084 48.5808C38.5574 48.6318 38.4748 48.6318 38.4238 48.5808L37.5561 47.7132C37.5052 47.6622 37.5052 47.5796 37.5561 47.5286C37.6071 47.4776 37.6898 47.4776 37.7407 47.5286L38.6084 48.3962Z" fill="#7B5649"/>
<path d="M36.1553 45.9421C36.2062 45.9931 36.2062 46.0757 36.1553 46.1267C36.1043 46.1777 36.0216 46.1777 35.9706 46.1267L35.103 45.2591C35.052 45.2081 35.052 45.1255 35.103 45.0745C35.154 45.0235 35.2366 45.0235 35.2876 45.0745L36.1553 45.9421Z" fill="#7B5649"/>
<circle cx="27.5554" cy="39.1655" r="0.47628" fill="#7B5649"/>
<path d="M29.0478 37.4876C29.0988 37.4366 29.1815 37.4366 29.2324 37.4876C29.2834 37.5385 29.2834 37.6212 29.2324 37.6722L28.3648 38.5398C28.3138 38.5908 28.2312 38.5908 28.1802 38.5398C28.1292 38.4888 28.1292 38.4062 28.1802 38.3552L29.0478 37.4876Z" fill="#7B5649"/>
<path d="M26.5942 39.9417C26.6452 39.8907 26.7278 39.8907 26.7788 39.9417C26.8298 39.9926 26.8298 40.0753 26.7788 40.1263L25.9112 40.9939C25.8602 41.0449 25.7776 41.0449 25.7266 40.9939C25.6756 40.9429 25.6756 40.8603 25.7266 40.8093L26.5942 39.9417Z" fill="#7B5649"/>
<path d="M29.2329 40.8093C29.2839 40.8603 29.2839 40.9429 29.2329 40.9939C29.1819 41.0449 29.0993 41.0449 29.0483 40.9939L28.1806 40.1263C28.1297 40.0753 28.1297 39.9926 28.1806 39.9417C28.2316 39.8907 28.3143 39.8907 28.3652 39.9417L29.2329 40.8093Z" fill="#7B5649"/>
<path d="M26.7793 38.3552C26.8303 38.4062 26.8303 38.4888 26.7793 38.5398C26.7283 38.5908 26.6457 38.5908 26.5947 38.5398L25.727 37.6722C25.676 37.6212 25.676 37.5385 25.727 37.4876C25.778 37.4366 25.8607 37.4366 25.9116 37.4876L26.7793 38.3552Z" fill="#7B5649"/>
<circle cx="27.5554" cy="46.7522" r="0.47628" fill="#7B5649"/>
<path d="M29.0473 45.0755C29.0983 45.0245 29.181 45.0245 29.232 45.0755C29.2829 45.1264 29.2829 45.2091 29.232 45.2601L28.3643 46.1277C28.3133 46.1787 28.2307 46.1787 28.1797 46.1277C28.1287 46.0767 28.1287 45.9941 28.1797 45.9431L29.0473 45.0755Z" fill="#7B5649"/>
<path d="M26.5937 47.5288C26.6447 47.4778 26.7274 47.4778 26.7783 47.5288C26.8293 47.5798 26.8293 47.6625 26.7783 47.7134L25.9107 48.5811C25.8597 48.6321 25.7771 48.6321 25.7261 48.5811C25.6751 48.5301 25.6751 48.4475 25.7261 48.3965L26.5937 47.5288Z" fill="#7B5649"/>
<path d="M29.2329 48.3962C29.2839 48.4472 29.2839 48.5299 29.2329 48.5808C29.1819 48.6318 29.0993 48.6318 29.0483 48.5808L28.1806 47.7132C28.1297 47.6622 28.1297 47.5796 28.1806 47.5286C28.2316 47.4776 28.3143 47.4776 28.3652 47.5286L29.2329 48.3962Z" fill="#7B5649"/>
<path d="M26.7793 45.9421C26.8303 45.9931 26.8303 46.0757 26.7793 46.1267C26.7283 46.1777 26.6457 46.1777 26.5947 46.1267L25.727 45.2591C25.676 45.2081 25.676 45.1255 25.727 45.0745C25.778 45.0235 25.8607 45.0235 25.9116 45.0745L26.7793 45.9421Z" fill="#7B5649"/>
<circle cx="18.1794" cy="39.1655" r="0.47628" fill="#7B5649"/>
<path d="M19.6719 37.4876C19.7228 37.4366 19.8055 37.4366 19.8565 37.4876C19.9074 37.5385 19.9074 37.6212 19.8565 37.6722L18.9888 38.5398C18.9378 38.5908 18.8552 38.5908 18.8042 38.5398C18.7532 38.4888 18.7532 38.4062 18.8042 38.3552L19.6719 37.4876Z" fill="#7B5649"/>
<path d="M17.2182 39.9417C17.2692 39.8907 17.3519 39.8907 17.4028 39.9417C17.4538 39.9926 17.4538 40.0753 17.4028 40.1263L16.5352 40.9939C16.4842 41.0449 16.4016 41.0449 16.3506 40.9939C16.2996 40.9429 16.2996 40.8603 16.3506 40.8093L17.2182 39.9417Z" fill="#7B5649"/>
<path d="M19.8569 40.8093C19.9079 40.8603 19.9079 40.9429 19.8569 40.9939C19.8059 41.0449 19.7233 41.0449 19.6723 40.9939L18.8047 40.1263C18.7537 40.0753 18.7537 39.9926 18.8047 39.9417C18.8556 39.8907 18.9383 39.8907 18.9893 39.9417L19.8569 40.8093Z" fill="#7B5649"/>
<path d="M17.4033 38.3559C17.4543 38.4069 17.4543 38.4896 17.4033 38.5405C17.3523 38.5915 17.2697 38.5915 17.2187 38.5405L16.351 37.6729C16.3001 37.6219 16.3001 37.5393 16.351 37.4883C16.402 37.4373 16.4847 37.4373 16.5357 37.4883L17.4033 38.3559Z" fill="#7B5649"/>
<circle cx="18.1794" cy="46.7522" r="0.47628" fill="#7B5649"/>
<path d="M19.6714 45.0752C19.7223 45.0242 19.805 45.0242 19.856 45.0752C19.907 45.1262 19.907 45.2088 19.856 45.2598L18.9883 46.1275C18.9373 46.1784 18.8547 46.1784 18.8037 46.1275C18.7527 46.0765 18.7527 45.9938 18.8037 45.9429L19.6714 45.0752Z" fill="#7B5649"/>
<path d="M17.2187 47.5286C17.2697 47.4776 17.3524 47.4776 17.4033 47.5286C17.4543 47.5796 17.4543 47.6622 17.4033 47.7132L16.5357 48.5808C16.4847 48.6318 16.4021 48.6318 16.3511 48.5808C16.3001 48.5299 16.3001 48.4472 16.3511 48.3962L17.2187 47.5286Z" fill="#7B5649"/>
<path d="M19.8569 48.3962C19.9079 48.4472 19.9079 48.5299 19.8569 48.5808C19.8059 48.6318 19.7233 48.6318 19.6723 48.5808L18.8047 47.7132C18.7537 47.6622 18.7537 47.5796 18.8047 47.5286C18.8556 47.4776 18.9383 47.4776 18.9893 47.5286L19.8569 48.3962Z" fill="#7B5649"/>
<path d="M17.4033 45.9421C17.4543 45.9931 17.4543 46.0757 17.4033 46.1267C17.3523 46.1777 17.2697 46.1777 17.2187 46.1267L16.351 45.2591C16.3001 45.2081 16.3001 45.1255 16.351 45.0745C16.402 45.0235 16.4847 45.0235 16.5357 45.0745L17.4033 45.9421Z" fill="#7B5649"/>
<ellipse cx="56.0533" cy="30.0115" rx="5.94538" ry="5.94539" fill="#673315"/>
<path d="M37.5649 33.1102C37.8726 32.8963 38.2955 32.9724 38.5094 33.2801C38.7233 33.5878 38.6472 34.0107 38.3395 34.2246L36.4064 35.5683C36.0987 35.7822 35.6758 35.7062 35.4619 35.3984C35.248 35.0907 35.3241 34.6678 35.6318 34.4539L37.5649 33.1102Z" fill="#EF927F"/>
<path d="M35.6218 33.05C35.997 33.05 36.3013 33.3543 36.3013 33.7295C36.3013 34.1048 35.9971 34.409 35.6218 34.409H33.2644C32.8891 34.409 32.5849 34.1048 32.5849 33.7295C32.5849 33.3543 32.8891 33.05 33.2644 33.05H35.6218Z" fill="#EF927F"/>
<path d="M36.4302 31.3515C35.8599 31.8783 35.6699 32.7003 35.9511 33.4239C36.2323 34.1475 36.9275 34.6255 37.7038 34.6291L51.7664 34.677L55.1363 34.6926C56.1664 34.678 56.9952 33.8414 57 32.8113C57.0048 31.7811 56.1838 30.9368 55.154 30.9127L37.7207 30.8492C37.2423 30.8464 36.7808 31.0261 36.4302 31.3515Z" fill="#F5A491"/>
<path d="M35.8233 32.7303C35.8206 33.2315 36.0173 33.7132 36.37 34.0693C36.7227 34.4254 37.2025 34.6268 37.7037 34.629H37.7848L39.1346 34.6347L39.2348 33.7054L39.5404 30.8569L37.7206 30.8491C36.6775 30.8452 35.8283 31.6871 35.8233 32.7303Z" fill="#F5A491"/>
<ellipse cx="36.6105" cy="32.6969" rx="2.13656" ry="2.53593" transform="rotate(-84.48 36.6105 32.6969)" fill="#F5A491"/>
<path d="M39.2345 33.7062L39.1343 34.6355L55.1359 34.6919H55.2474H55.2629C55.2946 34.6919 55.3264 34.687 55.3574 34.6841L55.3786 34.6806C55.4068 34.6806 55.4365 34.6736 55.4654 34.6686L55.4859 34.6651L55.5755 34.6467H55.5896C55.6932 34.6215 55.7947 34.588 55.893 34.5465L55.905 34.5402C55.9325 34.5289 55.9593 34.5162 55.9861 34.5021L56.0038 34.4936C56.0299 34.4809 56.0553 34.4668 56.08 34.452C56.0851 34.4498 56.0901 34.4472 56.0948 34.4442C56.1237 34.4273 56.1505 34.4104 56.178 34.3927C56.7094 34.0456 57.0307 33.4546 57.0332 32.8199C57.0332 32.8122 57.0332 32.8044 57.0332 32.7959C57.0212 32.2315 56.2493 32.1002 56.0256 32.6195C55.7275 33.3182 55.0396 33.77 54.28 33.7662L39.2345 33.7062Z" fill="#EF927F"/>
<path d="M34.0886 32.4558C34.0565 32.8006 34.121 33.1475 34.2749 33.4577C34.2767 33.4623 34.279 33.4665 34.282 33.4704C34.3235 33.5533 34.3706 33.6332 34.4231 33.7096L34.4421 33.7372C34.4647 33.7675 34.4873 33.7993 34.5127 33.8296C34.5174 33.8374 34.5228 33.8447 34.5289 33.8515C34.5571 33.8882 34.5875 33.922 34.6192 33.9587C34.6252 33.9645 34.6309 33.9706 34.6362 33.9771C34.6637 34.0067 34.6912 34.0349 34.7201 34.0631L34.7455 34.0878C34.8153 34.1545 34.8888 34.2172 34.9657 34.2755L34.9946 34.2967C35.0271 34.3207 35.0609 34.3447 35.0955 34.3673C35.1026 34.3722 35.111 34.3771 35.1181 34.3828C35.1595 34.4096 35.2025 34.4357 35.2472 34.4611L35.2684 34.4724C35.3058 34.4943 35.3446 34.514 35.3834 34.5338L35.4144 34.5493C35.5076 34.5938 35.6035 34.634 35.703 34.67L35.7334 34.6798C35.7778 34.6954 35.823 34.7088 35.8681 34.7222C35.8746 34.7245 35.8812 34.7264 35.8879 34.7278C35.9401 34.7433 35.9944 34.7575 36.0495 34.7687H36.0643C36.1144 34.78 36.1652 34.7892 36.216 34.7977L36.2414 34.8012C36.2978 34.8104 36.3543 34.8181 36.4122 34.8231C36.7641 34.8585 37.1196 34.8298 37.4614 34.7384C37.4646 34.7378 37.468 34.7378 37.4713 34.7384H37.4804C37.5852 34.7092 37.6882 34.6738 37.7888 34.6326L39.1386 34.6382L39.2388 33.7089H38.8923L36.9315 33.7005C36.7409 33.8546 36.5048 33.9416 36.2597 33.9481C35.3989 33.9905 34.344 33.2517 34.5331 32.043C34.58 31.6836 34.7207 31.343 34.941 31.0552C34.4633 31.3896 34.1437 31.8821 34.0886 32.4558Z" fill="#EF927F"/>
<path d="M30.5083 46.2756L27.0791 49.1749L30.0518 49.4953L33.2595 47.2282L30.5083 46.2756Z" fill="#F5A491"/>
<path d="M24.1028 50.2159C24.0484 49.8003 24.3356 49.3967 24.7935 49.245L29.2494 47.8768C29.761 47.7075 29.8626 48.0518 29.9233 48.5168L30.0517 49.4955C30.1674 50.3761 29.2953 51.148 28.2778 51.0661L25.032 50.9772C24.5466 50.954 24.1578 50.6357 24.1028 50.2159Z" fill="#F5A491"/>
<path d="M41.2183 36.2691L56.495 45.0891L54.416 48.6901C53.925 49.5406 52.8375 49.832 51.987 49.341L38.2502 41.41C36.8337 40.5891 36.3493 38.7762 37.1676 37.3581C37.9864 35.94 39.7989 35.4527 41.2183 36.2691L41.2183 36.2691Z" fill="#95BFFF"/>
<path d="M37.5319 36.7834L29.1599 47.0548C29.078 47.155 29.0812 47.2999 29.1677 47.3963L30.6925 49.1031C30.7872 49.209 30.9488 49.2209 31.058 49.13L41.3351 40.5407C41.9492 40.0276 42.3024 39.2673 42.2985 38.4671C42.2945 37.6668 41.9338 36.91 41.3146 36.4031C40.7628 35.9512 40.054 35.7373 39.3444 35.8086C38.6347 35.88 37.9826 36.2307 37.5319 36.7834Z" fill="#95BFFF"/>
<path d="M58.9848 35.4315C58.9576 35.6672 58.9135 35.9006 58.8529 36.13L56.2351 46.0853C55.9418 47.2011 55.2172 48.1546 54.2207 48.7361C53.2243 49.3176 52.0376 49.4793 50.9219 49.1857L47.4165 48.2635L51.6191 32.2852C51.8244 31.5033 52.332 30.835 53.0303 30.4275C53.7285 30.0201 54.56 29.9068 55.3418 30.1127C57.7105 30.732 59.2632 32.999 58.9848 35.4315Z" fill="#194CC3"/>
<path d="M48.7345 34.3794C48.965 33.3826 49.9599 32.7613 50.9568 32.9918L56.6132 34.2998C57.61 34.5303 58.2313 35.5253 58.0008 36.5221C57.7703 37.5189 56.7753 38.1402 55.7785 37.9096L50.1221 36.6017C49.1252 36.3712 48.504 35.3762 48.7345 34.3794Z" fill="#194CC3"/>
<path d="M40.2646 45.0854H56.4934V48.1816C56.4934 49.7505 55.2215 51.0224 53.6526 51.0224H40.2646C38.6881 51.0204 37.4111 49.7419 37.4111 48.1654V47.9424C37.4111 46.3659 38.6881 45.0874 40.2646 45.0854V45.0854Z" fill="#9FC5FF"/>
<ellipse cx="52.1959" cy="27.4977" rx="3.1251" ry="3.1251" fill="#673315"/>
<path d="M49.6716 28.5152C50.0073 29.5709 50.8773 30.3698 51.9578 30.6144C50.7909 30.5244 49.772 29.79 49.3178 28.7114C48.8635 27.6328 49.05 26.3908 49.8011 25.4931C50.5521 24.5955 51.7417 24.1928 52.8835 24.4495C51.848 24.3727 50.8418 24.8148 50.1981 25.6296C49.5545 26.4444 49.3572 27.5256 49.6716 28.5152Z" fill="#AD8E88"/>
<path d="M56.2805 27.6068C55.8289 26.1894 56.612 24.6742 58.0294 24.2227L58.5895 24.0443C60.0069 23.5927 61.5221 24.3757 61.9736 25.7932C62.4252 27.2107 61.6421 28.7258 60.2247 29.1774L59.6646 29.3558C58.2472 29.8073 56.7321 29.0243 56.2805 27.6068Z" fill="#673315"/>
<path d="M52.274 28.5757L52.9204 30.605C53.0411 31.0103 53.3714 31.3188 53.7841 31.4117C54.1967 31.5046 54.6274 31.3674 54.9102 31.0529C55.193 30.7384 55.2839 30.2956 55.1479 29.8951L54.5016 27.8658C54.3808 27.4605 54.0505 27.152 53.6379 27.0591C53.2252 26.9662 52.7946 27.1034 52.5118 27.4179C52.2289 27.7324 52.138 28.1752 52.274 28.5757Z" fill="#F5A491"/>
<path d="M52.2742 28.5757L52.7717 30.1372C53.5559 30.0566 54.314 29.8096 54.995 29.4125L54.5011 27.8658C54.3803 27.4605 54.05 27.152 53.6374 27.0591C53.2247 26.9662 52.7941 27.1034 52.5113 27.4179C52.2284 27.7324 52.1375 28.1752 52.2735 28.5757H52.2742Z" fill="#EF927F"/>
<path d="M49.2288 24.5589L49.4271 25.1466L49.5625 25.5495L50.3641 27.9338C50.7931 29.2085 52.1739 29.8945 53.449 29.4663C54.467 29.1241 55.3074 28.3914 55.7853 27.4295C56.2631 26.4676 56.3392 25.3553 55.9969 24.3373L55.4324 22.6587C55.044 21.5051 53.7942 20.8845 52.6404 21.2722L50.9229 21.8501L50.5059 21.9912C49.4445 22.3479 48.8729 23.4972 49.2288 24.5589Z" fill="#F5A491"/>
<path d="M53.657 29.3894C53.5865 29.4169 53.5159 29.443 53.4453 29.4663C52.1703 29.8945 50.7895 29.2085 50.3605 27.9337L49.5589 25.5495L49.4234 25.1466L49.2251 24.5595C48.8687 23.4973 49.4403 22.3471 50.5023 21.9897L50.7217 21.9192C49.7271 22.3216 49.2178 23.4289 49.5596 24.4459L49.7572 25.0337L49.8926 25.4366L50.6977 27.8152C51.1092 29.0429 52.409 29.7343 53.657 29.3894Z" fill="#FFC4AF"/>
<path d="M49.2288 24.5589L49.4271 25.1467L49.5625 25.5496C50.5178 25.7197 51.4575 25.1803 51.7924 24.2697C52.1273 23.359 51.7608 22.3393 50.9229 21.8501L50.5059 21.9912C49.4445 22.3479 48.8729 23.4972 49.2288 24.5589Z" fill="#EF927F"/>
<ellipse cx="50.9868" cy="26.5441" rx="0.231437" ry="0.208152" transform="rotate(-17.67 50.9868 26.5441)" fill="#230D30"/>
<ellipse cx="52.6572" cy="26.0121" rx="0.231437" ry="0.208152" transform="rotate(-17.67 52.6572 26.0121)" fill="#230D30"/>
<ellipse cx="56.6813" cy="24.1009" rx="2.12315" ry="2.12315" fill="#673315"/>
<path d="M61.952 25.7278C61.9597 25.749 61.9668 25.7709 61.9738 25.7935C62.2561 26.6764 62.0636 27.6425 61.4644 28.3499C61.8933 27.676 62.0009 26.8465 61.7579 26.0856C61.7509 26.0637 61.7438 26.0418 61.736 26.02C61.312 24.7982 60.0795 24.0503 58.8 24.2383C58.7295 24.2489 58.6589 24.263 58.5884 24.2792C58.5846 24.2036 58.5764 24.1282 58.5637 24.0535C58.5479 23.9504 58.5243 23.8488 58.4931 23.7493C58.3222 23.2127 57.9451 22.7659 57.4448 22.5073C56.9444 22.2487 56.3618 22.1996 55.8252 22.3706C55.4577 22.4865 55.1291 22.7013 54.8755 22.9915C55.3614 22.1996 56.3057 21.8154 57.2065 22.0433C58.1073 22.2711 58.7554 23.058 58.8064 23.9857C60.1457 23.6793 61.5011 24.43 61.952 25.7278Z" fill="#441A07"/>
<circle cx="56.0531" cy="25.0634" r="1.03018" fill="#F5A491"/>
<path d="M56.3502 24.9799C56.4049 25.1505 56.3518 25.3372 56.2154 25.4534C56.1824 25.4795 56.1387 25.4876 56.0985 25.4752C56.0584 25.4628 56.0269 25.4314 56.0143 25.3913L55.8386 24.8395C55.8258 24.7973 55.8353 24.7514 55.8638 24.7178C55.8923 24.6841 55.936 24.6672 55.9798 24.673C56.1526 24.6942 56.2972 24.8141 56.3502 24.9799Z" fill="#EF927F"/>
<circle cx="54.4577" cy="21.8839" r="2.23746" fill="#673315"/>
<path d="M56.679 22.1527C56.5614 21.0221 55.6147 20.1594 54.4781 20.147C53.3414 20.1345 52.3761 20.9763 52.2337 22.104C52.1446 21.2479 52.5546 20.4165 53.2881 19.966C54.0215 19.5154 54.9484 19.5256 55.6718 19.9921C56.3952 20.4586 56.7868 21.2987 56.679 22.1527Z" fill="#441A07"/>
<circle cx="50.8522" cy="21.8415" r="2.23746" fill="#673315"/>
<circle cx="49.1086" cy="24.182" r="2.23746" fill="#673315"/>
<path d="M52.3552 20.1841C51.718 19.937 51.0029 19.9945 50.4135 20.3402C49.8241 20.6859 49.4248 21.282 49.3295 21.9586C49.3071 22.115 49.3017 22.2732 49.3133 22.4307C49.2498 22.4448 49.1856 22.4617 49.1221 22.4822C48.9971 22.5221 48.8758 22.5726 48.7594 22.6332C48.1136 22.9736 47.6742 23.6074 47.5822 24.3317C47.4902 25.0559 47.757 25.7795 48.2973 26.2706C47.4138 25.9266 46.843 25.0632 46.8727 24.1156C46.9023 23.168 47.526 22.342 48.4292 22.0539C48.4927 22.0334 48.5569 22.0165 48.6211 22.0024C48.5565 21.091 49.0527 20.2319 49.8745 19.8325C50.6963 19.4331 51.6784 19.5737 52.3552 20.1876V20.1841Z" fill="#AD8E88"/>
<circle cx="51.2697" cy="22.0192" r="1.19599" fill="#AD8E88"/>
<path d="M51.5796 27.3818C51.6488 27.5542 51.7835 27.692 51.9543 27.765C51.9755 27.7742 51.9967 27.7819 52.0178 27.789C52.173 27.8378 52.3402 27.8316 52.4913 27.7713L52.5174 27.76C52.6561 27.7046 52.773 27.6055 52.8504 27.4778C52.9587 27.3054 52.9863 27.0943 52.9259 26.8999C52.9203 26.8812 52.9137 26.8629 52.9062 26.8449C52.8781 26.7755 52.7993 26.7418 52.7298 26.7694L51.6551 27.2019C51.6207 27.215 51.5931 27.2417 51.5789 27.2757C51.5646 27.3097 51.5649 27.3481 51.5796 27.3818Z" fill="#962F4A"/>
<path d="M52.4644 27.6654C52.4775 27.6991 52.4943 27.7313 52.5144 27.7614H52.518C52.856 27.6253 53.0333 27.2529 52.9258 26.9048C52.8734 26.9097 52.8221 26.9223 52.7734 26.9422C52.6365 26.9971 52.527 27.1041 52.469 27.2398C52.4111 27.3754 52.4094 27.5285 52.4644 27.6654Z" fill="#E1617F"/>
<path d="M51.6792 27.1957C51.7356 27.3213 51.9727 27.3446 52.2147 27.2472C52.4568 27.1498 52.6127 26.9685 52.5675 26.8394L51.6792 27.1957Z" fill="white"/>
<path d="M54.4261 32.5856C55.096 31.6053 56.4339 31.3537 57.4142 32.0237C58.3945 32.6936 58.6461 34.0315 57.9761 35.0118L53.4322 41.6604C52.7622 42.6407 51.4244 42.8923 50.4441 42.2223C49.4638 41.5523 49.2122 40.2145 49.8822 39.2342L54.4261 32.5856Z" fill="#F5A491"/>
<path d="M48.0743 34.4243C48.212 34.7369 48.0704 35.1019 47.7578 35.2397C47.4453 35.3775 47.0802 35.2358 46.9424 34.9233L46.1648 33.1594C46.0271 32.8468 46.1687 32.4818 46.4813 32.344C46.7938 32.2062 47.1589 32.3479 47.2966 32.6604L48.0743 34.4243Z" fill="#F5A491"/>
<path d="M44.0526 30.7212C44.0759 29.8568 44.7955 29.1748 45.6599 29.1981C46.5243 29.2213 47.2062 29.9409 47.183 30.8053L47.111 33.4814C47.0878 34.3458 46.3682 35.0277 45.5038 35.0045C44.6394 34.9812 43.9575 34.2617 43.9807 33.3972L44.0526 30.7212Z" fill="#AD8E88"/>
<path d="M43.8197 30.8794C43.843 30.015 44.5626 29.333 45.427 29.3563C46.2914 29.3795 46.9733 30.0991 46.9501 30.9635L46.8781 33.6396C46.8549 34.504 46.1353 35.1859 45.2709 35.1627C44.4065 35.1394 43.7246 34.4199 43.7478 33.5554L43.8197 30.8794Z" fill="#441A07"/>
<path d="M43.716 34.6539C43.7093 34.9137 43.9141 35.1299 44.1739 35.1372L46.3613 35.1958C46.393 35.1967 46.4247 35.1941 46.4558 35.188L44.5507 35.1372C44.4259 35.1339 44.3075 35.0811 44.2216 34.9904C44.1357 34.8998 44.0894 34.7787 44.0928 34.6539L44.2282 29.7909C44.234 29.5673 44.3967 29.379 44.617 29.3407L44.3306 29.3329C44.2057 29.3295 44.0847 29.3759 43.994 29.4618C43.9033 29.5476 43.8505 29.666 43.8472 29.7909L43.716 34.6539Z" fill="#673315"/>
<circle cx="45.7277" cy="30.4081" r="0.342922" fill="#AD8E88"/>
<circle cx="44.9012" cy="30.3855" r="0.178516" fill="#AD8E88"/>
<path d="M53.0553 38.9455C53.9209 39.7637 53.9592 41.1287 53.141 41.9942C52.3228 42.8598 50.9578 42.8982 50.0922 42.0799L44.5765 36.8658C43.711 36.0476 43.6726 34.6826 44.4908 33.817C45.3091 32.9515 46.674 32.9131 47.5396 33.7313L53.0553 38.9455Z" fill="#F5A491"/>
<ellipse cx="45.4938" cy="34.6827" rx="2.22924" ry="2.75439" transform="rotate(-58.0553 45.4938 34.6827)" fill="#F5A491"/>
<path d="M44.8647 34.7011C45.1492 34.89 45.2267 35.2739 45.0377 35.5584C44.8488 35.8429 44.4649 35.9204 44.1804 35.7314L42.5746 34.6649C42.29 34.476 42.2126 34.0921 42.4015 33.8076C42.5905 33.5231 42.9744 33.4456 43.2589 33.6346L44.8647 34.7011Z" fill="#F5A491"/>
<path d="M42.4017 33.8086C42.4651 33.7128 42.5541 33.6368 42.6586 33.5891C42.648 33.6025 42.6374 33.6166 42.6282 33.6307C42.5373 33.7672 42.5044 33.9343 42.5367 34.0951C42.569 34.2559 42.6638 34.3972 42.8004 34.488L42.8286 34.5071L43.1109 34.6955C43.1449 34.8406 43.1921 34.9823 43.252 35.1189C43.4476 35.5577 43.7437 35.9444 44.1163 36.2478C44.2312 36.3432 44.3524 36.4306 44.479 36.5096C44.5799 36.5724 44.6836 36.6302 44.7881 36.6818C44.7919 36.6863 44.7962 36.6906 44.8008 36.6945L45.2312 37.1009L50.3172 41.9088C51.0542 42.6035 52.1754 42.6916 53.0118 42.1205C52.1768 42.8704 50.9062 42.8541 50.0907 42.0831L44.575 36.8687L44.5623 36.856C44.4586 36.8045 44.3548 36.7467 44.2532 36.6839C43.5279 36.2295 43.0488 35.5549 42.8844 34.8705L42.5725 34.6637C42.2903 34.474 42.214 34.0921 42.4017 33.8086Z" fill="#FFC4AF"/>
<path d="M45.0932 33.504C45.3777 33.693 45.4552 34.0768 45.2662 34.3614C45.0773 34.6459 44.6934 34.7234 44.4089 34.5344L42.8031 33.4679C42.5186 33.2789 42.4411 32.8951 42.6301 32.6106C42.819 32.326 43.2029 32.2486 43.4874 32.4375L45.0932 33.504Z" fill="#F5A491"/>
<path d="M46.0209 32.7501C46.3055 32.9391 46.3829 33.3229 46.194 33.6075C46.005 33.892 45.6212 33.9695 45.3366 33.7805L43.6268 32.6449C43.3423 32.4559 43.2648 32.0721 43.4538 31.7876C43.6427 31.503 44.0266 31.4256 44.3111 31.6145L46.0209 32.7501Z" fill="#F5A491"/>
<path d="M42.8034 33.4689C42.539 33.2875 42.457 32.9342 42.6145 32.6549C42.7719 32.3756 43.1167 32.2628 43.4088 32.395C43.4352 32.4074 43.4607 32.4218 43.485 32.4381L43.667 32.5587C43.6069 32.5308 43.5425 32.5132 43.4765 32.5065C43.193 32.475 42.9248 32.6415 42.8273 32.9095C42.7298 33.1776 42.8284 33.4775 43.0658 33.6355" fill="#FFC4AF"/>
<path d="M44.3113 31.6147L44.4934 31.7354C44.257 31.6267 43.9779 31.6775 43.7949 31.8625C43.612 32.0475 43.5643 32.3272 43.6756 32.5623H43.6692C43.6091 32.5344 43.5447 32.5168 43.4787 32.5101C43.451 32.4758 43.4274 32.4384 43.4082 32.3986C43.29 32.1478 43.3531 31.8489 43.5627 31.6673C43.7722 31.4857 44.077 31.4656 44.3085 31.6182L44.3113 31.6147Z" fill="#FFC4AF"/>
<path d="M50.4605 38.7144C50.7709 39.0078 50.7846 39.4972 50.4912 39.8076C50.1978 40.118 49.7083 40.1317 49.398 39.8383L47.1721 37.7341C46.8617 37.4407 46.848 36.9513 47.1414 36.6409C47.4348 36.3305 47.9242 36.3168 48.2346 36.6102L50.4605 38.7144Z" fill="#FFC4AF"/>
</svg>
