<svg width="25" height="24" viewBox="0 0 25 24" fill="none" xmlns="http://www.w3.org/2000/svg">
<g clip-path="url(#clip0_1461_4408)">
<path d="M5.3174 4.79577L11.3666 6.63274L11.6688 5.63783L5.18817 3.66992L2.30798 5.33197L2.82767 6.2325L5.3174 4.79577Z" fill="#717171"/>
<path d="M5.3174 6.63073L11.3666 8.4677L11.6688 7.47279L5.18817 5.50488L2.30798 7.16693L2.82767 8.06746L5.3174 6.63073Z" fill="#717171"/>
<path d="M5.3174 8.46472L11.3666 10.3017L11.6688 9.30678L5.18817 7.33887L2.30798 9.00091L2.82767 9.90145L5.3174 8.46472Z" fill="#717171"/>
<path d="M5.3174 10.2997L11.3666 12.1366L11.6688 11.1417L5.18817 9.17383L2.30798 10.8359L2.82767 11.7364L5.3174 10.2997Z" fill="#717171"/>
<path d="M5.3174 12.1346L11.3666 13.9716L11.6688 12.9767L5.18817 11.0088L2.30798 12.6708L2.82761 13.5713L5.3174 12.1346Z" fill="#717171"/>
<path d="M5.3174 13.9696L11.3666 15.8066L11.6688 14.8117L5.18817 12.8438L2.30798 14.5057L2.82761 15.4063L5.3174 13.9696Z" fill="#717171"/>
<path d="M5.3174 15.8046L11.3666 17.6415L11.6688 16.6466L5.18817 14.6787L2.30798 16.3407L2.82761 17.2412L5.3174 15.8046Z" fill="#717171"/>
<path d="M5.3174 17.6395L11.3666 19.4765L11.6688 18.4816L5.18817 16.5137L2.30798 18.1757L2.82761 19.0762L5.3174 17.6395Z" fill="#717171"/>
<path d="M15.1989 4.79577L21.2481 6.63274L21.5502 5.63783L15.0696 3.66992L12.1895 5.33197L12.7091 6.2325L15.1989 4.79577Z" fill="#717171"/>
<path d="M15.1989 2.96081L21.2481 4.79778L21.5502 3.80287L15.0696 1.83496L12.1895 3.49701L12.7091 4.39754L15.1989 2.96081Z" fill="#717171"/>
<path d="M15.1989 1.12585L21.2481 2.96281L21.5502 1.96791L15.0696 0L12.1895 1.66205L12.7091 2.56258L15.1989 1.12585Z" fill="#717171"/>
<path d="M15.1989 6.63073L21.2481 8.4677L21.5502 7.47279L15.0696 5.50488L12.1895 7.16693L12.7091 8.06746L15.1989 6.63073Z" fill="#717171"/>
<path d="M15.1989 8.46472L21.2481 10.3017L21.5502 9.30678L15.0696 7.33887L12.1895 9.00091L12.7091 9.90145L15.1989 8.46472Z" fill="#717171"/>
<path d="M15.1989 10.2997L21.2481 12.1366L21.5502 11.1417L15.0696 9.17383L12.1895 10.8359L12.7091 11.7364L15.1989 10.2997Z" fill="#717171"/>
<path d="M15.1989 12.1346L21.2481 13.9716L21.5502 12.9767L15.0696 11.0088L12.1895 12.6708L12.7091 13.5713L15.1989 12.1346Z" fill="#717171"/>
<path d="M15.1989 13.9696L21.2481 15.8066L21.5502 14.8117L15.0696 12.8438L12.1895 14.5057L12.7091 15.4063L15.1989 13.9696Z" fill="#717171"/>
<path d="M15.1989 15.8046L21.2481 17.6415L21.5502 16.6466L15.0696 14.6787L12.1895 16.3407L12.7091 17.2412L15.1989 15.8046Z" fill="#717171"/>
<path d="M15.1989 17.6395L21.2481 19.4765L21.5502 18.4816L15.0696 16.5137L12.1895 18.1757L12.7091 19.0762L15.1989 17.6395Z" fill="#717171"/>
<path d="M21.2593 23.006V21.2744L21.5502 20.3165L15.0696 18.3486L12.1894 20.0106L12.4803 20.5146V23.006H11.3779V21.2744L11.6688 20.3165L5.18816 18.3486L2.30798 20.0106L2.5988 20.5146V23.006H1.06287V24.0004H23.937V23.006H21.2593ZM6.68251 23.006V20.892L9.85804 21.6541V23.006H6.68251ZM16.5641 23.006V20.892L19.7395 21.6541V23.006H16.5641Z" fill="#717171"/>
</g>
<defs>
<clipPath id="clip0_1461_4408">
<rect width="24" height="24" fill="white" transform="translate(0.5)"/>
</clipPath>
</defs>
</svg>
