<svg width="23" height="23" viewBox="0 0 23 23" fill="none" xmlns="http://www.w3.org/2000/svg">
<path fill-rule="evenodd" clip-rule="evenodd" d="M5.20224 1.71747C4.92714 1.53958 4.71831 1.48854 4.5679 1.50222C4.42612 1.5151 4.23512 1.59353 3.9992 1.78319C3.76767 1.96931 3.54126 2.22393 3.33621 2.4997C3.13355 2.77224 2.96681 3.04494 2.85019 3.25128C2.81024 3.32196 2.77666 3.38399 2.75 3.43451V11.5054H23V13.0054H21.75V17.2553V17.566L21.5303 17.7856L19.25 20.066V22.2554H17.75V20.5053H5.25V22.2554H3.75V20.066L1.46967 17.7856L1.25 17.566V17.2553V13.0054H0V11.5054H1.25V3.2553V3.08665L1.32219 2.93424L2 3.2553C1.32219 2.93424 1.32227 2.93408 1.32235 2.93391L1.32253 2.93353L1.32297 2.9326L1.32417 2.93009L1.32781 2.92251L1.34004 2.89744C1.35035 2.87648 1.36499 2.84715 1.38373 2.81062C1.42118 2.73763 1.47528 2.63539 1.54433 2.51321C1.68161 2.27034 1.88205 1.94148 2.13251 1.60465C2.38058 1.27104 2.69322 0.908469 3.05936 0.614123C3.4211 0.323317 3.88636 0.0579879 4.4321 0.00837528C5.04109 -0.0469872 5.58695 0.179953 6.01674 0.457873C6.45012 0.738117 6.83003 1.11114 7.13477 1.46055C7.44287 1.81381 7.69538 2.16764 7.86986 2.43072C7.95765 2.56309 8.02701 2.6745 8.07513 2.75405C8.09921 2.79387 8.11805 2.82583 8.13129 2.8486L8.14694 2.87572L8.15154 2.88381L8.15303 2.88644L8.15357 2.8874L8.15378 2.88778C8.15388 2.88795 8.15397 2.88811 7.5 3.2553L8.15397 2.88811L8.25 3.05914V3.2553V3.50543H10V5.00543H5V3.50543H6.75V3.46245C6.71511 3.40626 6.6714 3.33759 6.6198 3.25978C6.46909 3.03255 6.25637 2.73549 6.00432 2.44649C5.7489 2.15364 5.47373 1.89303 5.20224 1.71747ZM2.75 16.9446V13.0054H20.25V16.9446L18.1893 19.0053H4.81066L2.75 16.9446Z" fill="black"/>
</svg>
