<svg width="22" height="24" viewBox="0 0 22 24" fill="none" xmlns="http://www.w3.org/2000/svg">
<path fill-rule="evenodd" clip-rule="evenodd" d="M6 1.5H3.25V0H12.75V1.5H7.5V3H7.75C8.7165 3 9.5 3.7835 9.5 4.75V6.57501C11.2117 6.92247 12.5 8.43578 12.5 10.25V20.25C12.5 22.3211 10.8211 24 8.75 24H3.75C1.67893 24 0 22.3211 0 20.25V10.25C0 8.26294 1.54549 6.63685 3.5 6.5082V4.75C3.5 3.7835 4.2835 3 5.25 3H6V1.5ZM5 4.75C5 4.61193 5.11193 4.5 5.25 4.5H7.75C7.88807 4.5 8 4.61193 8 4.75V6.5H5V4.75ZM1.5 10.25C1.5 9.00736 2.50736 8 3.75 8H8.75C9.99264 8 11 9.00736 11 10.25V10.5H10.0528C9.70728 10.5 9.36952 10.6023 9.08205 10.7939L5.0859 13.458C5.04483 13.4854 4.99658 13.5 4.94722 13.5H1.5V10.25ZM1.5 15V20.25C1.5 21.4926 2.50736 22.5 3.75 22.5H8.75C9.99264 22.5 11 21.4926 11 20.25V12H10.0528C10.0034 12 9.95517 12.0146 9.9141 12.042L5.91795 14.7061C5.63048 14.8977 5.29272 15 4.94722 15H1.5ZM21.25 3.75C21.25 5.40685 19.9069 6.75 18.25 6.75C16.5931 6.75 15.25 5.40685 15.25 3.75C15.25 2.09315 16.5931 0.75 18.25 0.75C19.9069 0.75 21.25 2.09315 21.25 3.75ZM18.25 5.25C19.0784 5.25 19.75 4.57843 19.75 3.75C19.75 2.92157 19.0784 2.25 18.25 2.25C17.4216 2.25 16.75 2.92157 16.75 3.75C16.75 4.57843 17.4216 5.25 18.25 5.25ZM18.25 11.75C18.25 11.1977 18.6977 10.75 19.25 10.75C19.8023 10.75 20.25 11.1977 20.25 11.75C20.25 12.3023 19.8023 12.75 19.25 12.75C18.6977 12.75 18.25 12.3023 18.25 11.75ZM19.25 13.75C20.3546 13.75 21.25 12.8546 21.25 11.75C21.25 10.6454 20.3546 9.75 19.25 9.75C18.1454 9.75 17.25 10.6454 17.25 11.75C17.25 12.8546 18.1454 13.75 19.25 13.75Z" fill="black"/>
</svg>
