<svg width="24" height="26" viewBox="0 0 24 26" fill="none" xmlns="http://www.w3.org/2000/svg">
<path fill-rule="evenodd" clip-rule="evenodd" d="M5.5 2.25H4.95943L4.78849 2.76283L3.29276 7.25H0V8.75H2.68934L2.46967 8.96967L0.46967 10.9697L0.25 11.1893V11.5V17V17.75V18.25C0.25 19.6307 1.36929 20.75 2.75 20.75C4.13071 20.75 5.25 19.6307 5.25 18.25V17.75H17.75V19C17.75 20.2426 18.7574 21.25 20 21.25C21.2426 21.25 22.25 20.2426 22.25 19V17.75V17V12V11.7369L22.0857 11.5315L20.1748 9.14297L20.0539 8.75H22.5V7.25H19.5924L18.2168 2.77944L18.0539 2.25H17.5H5.5ZM18.4845 8.75L16.9461 3.75H6.04057L4.3739 8.75H18.4845ZM1.75 18.25V17.75H3.75V18.25C3.75 18.8023 3.30228 19.25 2.75 19.25C2.19772 19.25 1.75 18.8023 1.75 18.25ZM19.25 19V17.75H20.75V19C20.75 19.4142 20.4142 19.75 20 19.75C19.5858 19.75 19.25 19.4142 19.25 19ZM7 13.75H15.5V12.25H7V13.75ZM3.31066 10.25L1.75 11.8107V16.25H20.75V12.2631L19.1395 10.25H3.31066ZM5 13C5 13.5523 4.55228 14 4 14C3.44772 14 3 13.5523 3 13C3 12.4477 3.44772 12 4 12C4.55228 12 5 12.4477 5 13ZM18 14C18.5523 14 19 13.5523 19 13C19 12.4477 18.5523 12 18 12C17.4477 12 17 12.4477 17 13C17 13.5523 17.4477 14 18 14Z" fill="black"/>
</svg>
