<svg width="20" height="25" viewBox="0 0 20 25" fill="none" xmlns="http://www.w3.org/2000/svg">
<path fill-rule="evenodd" clip-rule="evenodd" d="M10.75 1.5C8.40279 1.5 6.5 3.40279 6.5 5.75V6.5H9.75C10.6316 6.5 11.361 7.15193 11.4823 8H15V5.75C15 3.40279 13.0972 1.5 10.75 1.5ZM16.5 8V5.75C16.5 2.57436 13.9256 0 10.75 0C7.57436 0 5 2.57436 5 5.75V6.5H4.75C2.12665 6.5 0 8.62665 0 11.25V16.75C0 18.2688 1.23122 19.5 2.75 19.5H4V21.75C4 23.2688 5.23122 24.5 6.75 24.5H14.999C16.3773 24.5 17.5427 23.4797 17.7248 22.1135L19.3425 9.98129C19.4823 8.93219 18.6662 8 17.6078 8H16.5ZM5.5 19.5V21.75C5.5 22.4404 6.05964 23 6.75 23H14.999C15.6255 23 16.1552 22.5362 16.238 21.9152L17.2267 14.5H11.5V16.75C11.5 18.2688 10.2688 19.5 8.75 19.5H5.5ZM17.4267 13L17.8556 9.78304C17.8756 9.63317 17.759 9.5 17.6078 9.5H11.5V13H17.4267ZM10 8.25V14.5H1.5V11.25C1.5 9.45507 2.95507 8 4.75 8H9.75C9.88807 8 10 8.11193 10 8.25ZM1.5 16.75V16H10V16.75C10 17.4404 9.44036 18 8.75 18H2.75C2.05964 18 1.5 17.4404 1.5 16.75Z" fill="black"/>
</svg>
