<svg width="22" height="20" viewBox="0 0 22 20" fill="none" xmlns="http://www.w3.org/2000/svg">
<path fill-rule="evenodd" clip-rule="evenodd" d="M7.5 11C8.28938 11.7996 8.69587 13.3365 8.87716 14.2549C8.96066 14.6779 9.32515 15 9.75632 15C10.1821 15 10.5431 14.6862 10.6215 14.2677C10.8165 13.2266 11.2549 11.3509 12 10.5C12.6517 9.75569 13.7613 9.36665 14.5565 9.17327C15.0863 9.04445 15.5 8.58531 15.5 8.04012C15.5 7.46209 15.0382 6.98772 14.4638 6.92289C13.5309 6.8176 12.2019 6.5713 11.5 6C10.4385 5.13597 9.89533 3.59433 9.65675 2.69826C9.55049 2.29916 9.19641 2 8.7834 2C8.34197 2 7.97415 2.3403 7.91767 2.77811C7.79847 3.70206 7.53129 5.2163 7 6C6.28304 7.05758 4.63629 7.61025 3.69449 7.84964C3.29717 7.95063 3 8.30155 3 8.7115C3 9.15403 3.34553 9.52224 3.78391 9.5827C4.81655 9.72513 6.60596 10.0944 7.5 11ZM17 15C17 16.3807 15.8807 17.5 14.5 17.5C13.1193 17.5 12 16.3807 12 15C12 13.6193 13.1193 12.5 14.5 12.5C15.8807 12.5 17 13.6193 17 15ZM17.5 12.5C18.3284 12.5 19 11.8284 19 11C19 10.1716 18.3284 9.5 17.5 9.5C16.6716 9.5 16 10.1716 16 11C16 11.8284 16.6716 12.5 17.5 12.5Z" fill="#0047B3"/>
</svg>
