<svg width="24" height="26" viewBox="0 0 24 26" fill="none" xmlns="http://www.w3.org/2000/svg">
<path fill-rule="evenodd" clip-rule="evenodd" d="M16.5 2.5H16L15.8077 2.96154L13.3077 8.96154L12.875 10H14H16.75V14H9.25V10.75V10H8.5H6.90139L5.12404 7.33397L3.87596 8.16603L5.09861 10H4.5H3.75V10.75V14H2H0V15.5H1.25V25.75H2.75V23.3588L3.04699 23.7236L3.27209 24H3.62857H19.9143H20.25V25.75H21.75V15.5H23V14H18.25V10H21.5H22.5406L22.2115 9.01283L20.2115 3.01283L20.0406 2.5H19.5H16.5ZM7.75 11.5V14H5.25V11.5H7.75ZM20.25 21.0596V15.5H2.75V20.9833L3.98505 22.5H19.468L20.25 21.0596ZM15.125 8.5L17 4H18.9594L20.4594 8.5H15.125Z" fill="black"/>
</svg>
