<svg width="24" height="32" viewBox="0 0 24 32" fill="none" xmlns="http://www.w3.org/2000/svg">
<path fill-rule="evenodd" clip-rule="evenodd" d="M3.75 7C3.75 6.86193 3.86193 6.75 4 6.75H10.5H13.25L13.25 27H3.75V7ZM17.25 27H14.75L14.75 6.75H17C17.1381 6.75 17.25 6.86193 17.25 7V27ZM20.5 27H18.75V7C18.75 6.0335 17.9665 5.25 17 5.25H10.5H4C3.0335 5.25 2.25 6.0335 2.25 7V27H0V28.5H20.5V27ZM11 16.75C11.5523 16.75 12 16.3023 12 15.75C12 15.1977 11.5523 14.75 11 14.75C10.4477 14.75 10 15.1977 10 15.75C10 16.3023 10.4477 16.75 11 16.75Z" fill="black"/>
</svg>
