<svg width="18" height="17" viewBox="0 0 18 17" fill="none" xmlns="http://www.w3.org/2000/svg">
<path d="M4.0451 13.6C4.39516 12.6096 5.33971 11.9 6.45 11.9C7.56027 11.9 8.50488 12.6096 8.85491 13.6H17.5V15.3H8.85491C8.50488 16.2904 7.56027 17 6.45 17C5.33971 17 4.39516 16.2904 4.0451 15.3H0.5V13.6H4.0451ZM9.1451 7.65C9.49513 6.65959 10.4397 5.95 11.55 5.95C12.6603 5.95 13.6049 6.65959 13.9549 7.65H17.5V9.35H13.9549C13.6049 10.3404 12.6603 11.05 11.55 11.05C10.4397 11.05 9.49513 10.3404 9.1451 9.35H0.5V7.65H9.1451ZM4.0451 1.7C4.39516 0.709589 5.33971 0 6.45 0C7.56027 0 8.50488 0.709589 8.85491 1.7H17.5V3.4H8.85491C8.50488 4.39041 7.56027 5.1 6.45 5.1C5.33971 5.1 4.39516 4.39041 4.0451 3.4H0.5V1.7H4.0451ZM6.45 3.4C6.91944 3.4 7.3 3.01944 7.3 2.55C7.3 2.08056 6.91944 1.7 6.45 1.7C5.98056 1.7 5.6 2.08056 5.6 2.55C5.6 3.01944 5.98056 3.4 6.45 3.4ZM11.55 9.35C12.0195 9.35 12.4 8.96946 12.4 8.5C12.4 8.03055 12.0195 7.65 11.55 7.65C11.0805 7.65 10.7 8.03055 10.7 8.5C10.7 8.96946 11.0805 9.35 11.55 9.35ZM6.45 15.3C6.91944 15.3 7.3 14.9195 7.3 14.45C7.3 13.9805 6.91944 13.6 6.45 13.6C5.98056 13.6 5.6 13.9805 5.6 14.45C5.6 14.9195 5.98056 15.3 6.45 15.3Z" fill="#717171"/>
</svg>
