<svg width="13" height="12" viewBox="0 0 13 12" fill="none" xmlns="http://www.w3.org/2000/svg">
<path fill-rule="evenodd" clip-rule="evenodd" d="M9.5 4C10.0523 4 10.5 3.55228 10.5 3C10.5 2.44772 10.0523 2 9.5 2C8.94771 2 8.5 2.44772 8.5 3C8.5 3.55228 8.94771 4 9.5 4ZM0 4H6.67071C7.08254 5.16519 8.19378 6 9.5 6C11.1569 6 12.5 4.65685 12.5 3C12.5 1.34315 11.1569 0 9.5 0C8.19378 0 7.08254 0.834808 6.67071 2H0V4ZM3.5 8C2.94772 8 2.5 8.44771 2.5 9C2.5 9.55228 2.94772 10 3.5 10C4.05229 10 4.5 9.55228 4.5 9C4.5 8.44771 4.05229 8 3.5 8ZM13 8L6.32929 8C5.91746 6.83481 4.80622 6 3.5 6C1.84315 6 0.5 7.34314 0.5 9C0.5 10.6569 1.84315 12 3.5 12C4.80622 12 5.91746 11.1652 6.32929 10L13 10V8Z" fill="black"/>
</svg>
