<svg width="27" height="23" viewBox="0 0 27 23" fill="none" xmlns="http://www.w3.org/2000/svg">
<path d="M3.29661 6.9313C3.68624 6.9313 4.07205 7.00808 4.43199 7.15724C4.79194 7.3064 5.11897 7.52502 5.39439 7.80061C5.66982 8.07621 5.88824 8.40337 6.03717 8.76341C6.18611 9.12345 6.26264 9.5093 6.2624 9.89893V14.4231H20.7358V9.89709C20.7362 9.34049 20.8931 8.79522 21.1888 8.32363C21.4844 7.85204 21.9068 7.47316 22.4076 7.23031C22.9085 6.98747 23.4675 6.89046 24.0209 6.95039C24.5743 7.01031 25.0996 7.22474 25.5368 7.56916C25.9741 7.91359 26.3056 8.3741 26.4934 8.89805C26.6812 9.42199 26.7179 9.98822 26.599 10.532C26.4802 11.0758 26.2108 11.5751 25.8216 11.973C25.4323 12.3709 24.939 12.6511 24.3979 12.7818V21.3181C24.3974 21.5501 24.3051 21.7723 24.1411 21.9363C23.9771 22.1003 23.7548 22.1927 23.5229 22.1931H3.47714C3.24522 22.1927 3.02295 22.1003 2.85896 21.9363C2.69497 21.7723 2.60262 21.5501 2.60214 21.3181V12.7818C1.89511 12.6131 1.27469 12.1905 0.858684 11.5944C0.44268 10.9984 0.260068 10.2703 0.345526 9.54841C0.430984 8.82656 0.778561 8.16123 1.32225 7.67877C1.86594 7.19631 2.56972 6.93032 3.29661 6.9313ZM5.2474 5.28446C5.11042 5.22661 4.97089 5.17498 4.82924 5.12972V2.60051C4.83021 2.05964 5.04525 1.54114 5.42736 1.15834C5.80947 0.775539 6.32758 0.559564 6.86845 0.557617H20.1279C20.6691 0.559078 21.1877 0.774838 21.5702 1.15769C21.9527 1.54055 22.168 2.05932 22.169 2.60051V5.12972C22.0273 5.17497 21.8878 5.22661 21.7508 5.28446C20.8437 5.66753 20.0698 6.30965 19.5258 7.13045C18.9819 7.95126 18.6922 8.91426 18.6929 9.89893V12.3802H8.30529V9.89893C8.30531 8.91443 8.01529 7.95173 7.47146 7.13106C6.92762 6.3104 6.15407 5.66813 5.2474 5.28446Z" fill="black"/>
</svg>
