<svg width="31" height="30" viewBox="0 0 31 30" fill="none" xmlns="http://www.w3.org/2000/svg">
<path fill-rule="evenodd" clip-rule="evenodd" d="M28.75 0V3H31V5H29V19.5C29 20.6046 28.1046 21.5 27 21.5H4C2.89543 21.5 2 20.6046 2 19.5V5H0V3H27.25V0H28.75ZM4 5H27V19.5H19.8764V12C19.8764 10.8954 18.9809 10 17.8764 10H13.5C12.3954 10 11.5 10.8954 11.5 12V19.5H4V5ZM13.5 19.5H17.8764V12H13.5V19.5ZM12.5 25.5H19V23.5H12.5V25.5ZM10.5 30H21V28H10.5V30ZM23.5 9C24.0523 9 24.5 8.55229 24.5 8C24.5 7.44772 24.0523 7 23.5 7C22.9477 7 22.5 7.44772 22.5 8C22.5 8.55229 22.9477 9 23.5 9Z" fill="black"/>
</svg>
