<svg width="23" height="25" viewBox="0 0 23 25" fill="none" xmlns="http://www.w3.org/2000/svg">
<path fill-rule="evenodd" clip-rule="evenodd" d="M6.00182 1.59486C6.19831 1.52482 6.58883 1.48047 7.20775 1.50886C7.80335 1.53617 8.53223 1.62599 9.35406 1.76465C10.9962 2.0417 12.9484 2.50307 14.8319 2.99907C16.7122 3.49426 18.5096 4.02014 19.838 4.42258C20.5018 4.6237 21.0478 4.79377 21.4274 4.91343L21.5 4.93634V9.83376L21.422 9.85742C21.0338 9.97506 20.476 10.1423 19.7991 10.3402C18.4445 10.7363 16.6153 11.2547 14.7133 11.745C12.8082 12.236 10.8434 12.6955 9.21354 12.9769C8.39756 13.1178 7.68102 13.2113 7.10577 13.244C6.49898 13.2786 6.15277 13.2377 6.01002 13.1849C4.99048 12.8081 4.26234 12.4415 3.64798 11.9563C3.03611 11.473 2.4981 10.8412 1.90528 9.88349C1.63414 9.44546 1.5 8.91683 1.5 8.35947V6.24821C1.5 5.77855 1.59368 5.33543 1.78917 4.95643C2.29314 3.97932 2.77691 3.36301 3.38471 2.88674C4.00518 2.40053 4.80205 2.02252 6.00182 1.59486ZM22.4816 3.67507L22.25 4.3884C22.4816 3.67507 22.4815 3.67504 22.4814 3.67499L22.4808 3.67481L22.4788 3.67414L22.471 3.67161L22.4406 3.66181L22.3234 3.62415C22.2209 3.5913 22.0705 3.54339 21.8784 3.48283C21.4942 3.36172 20.9428 3.18998 20.2729 2.98702C18.9337 2.58129 17.1176 2.04988 15.2139 1.54853C13.3132 1.04799 11.3109 0.573602 9.60361 0.285552C8.75071 0.141656 7.95613 0.0415986 7.27646 0.0104314C6.62013 -0.0196661 5.98359 0.00891317 5.49818 0.181939C4.25258 0.625935 3.27285 1.06872 2.45951 1.70605C1.6335 2.35332 1.02626 3.16329 0.456046 4.26883C0.131948 4.89719 0 5.58441 0 6.24821V8.35947C0 9.15204 0.19049 9.96319 0.629863 10.673C1.28253 11.7274 1.92881 12.5099 2.71832 13.1334C3.50534 13.755 4.39567 14.1874 5.48998 14.5919C5.50368 14.5969 5.51753 14.6019 5.53152 14.6067L6.83303 19.8127C7.02779 20.5918 7.72776 21.1383 8.53078 21.1383H9.06778L8.4285 21.9743C7.81359 22.7784 6.85912 23.25 5.84684 23.25H2V24.75H5.84684C7.32632 24.75 8.72133 24.0607 9.62004 22.8854L11.0204 21.0542C12.5644 20.6639 13.5122 18.9807 12.9046 17.4011L11.6089 14.0321C12.7413 13.7852 13.9309 13.4957 15.0877 13.1975C17.0104 12.7018 18.856 12.1788 20.22 11.7799C20.9023 11.5804 21.4648 11.4118 21.857 11.293C22.0531 11.2335 22.2067 11.1865 22.3114 11.1544L22.4311 11.1175L22.462 11.1079L22.47 11.1054L22.4721 11.1048L22.4726 11.1046C22.4728 11.1046 22.4729 11.1045 22.25 10.3884L22.4729 11.1045L23 10.9405V10.3884V4.3884V3.84339L22.4816 3.67507ZM8.28824 19.4489L7.11247 14.7458L7.19103 14.7416C7.84642 14.7043 8.62531 14.6006 9.46876 14.455C9.68073 14.4184 9.89777 14.379 10.119 14.337L11.5046 17.9395C11.8195 18.7583 11.2152 19.6383 10.3379 19.6383H8.53078C8.41606 19.6383 8.31606 19.5602 8.28824 19.4489ZM7.25 10.8883C9.183 10.8883 10.75 9.32127 10.75 7.38827C10.75 5.45528 9.183 3.88827 7.25 3.88827C5.317 3.88827 3.75 5.45528 3.75 7.38827C3.75 9.32127 5.317 10.8883 7.25 10.8883ZM9.25 7.38827C9.25 8.49284 8.35457 9.38827 7.25 9.38827C6.14543 9.38827 5.25 8.49284 5.25 7.38827C5.25 6.2837 6.14543 5.38827 7.25 5.38827C8.35457 5.38827 9.25 6.2837 9.25 7.38827Z" fill="black"/>
</svg>
