<svg width="24" height="20" viewBox="0 0 24 20" fill="none" xmlns="http://www.w3.org/2000/svg">
<path d="M22.5 4L19.5 1.5L16.5 1L14 1.5L12 3L11.5 2.5L7 1L3 2L1 4.5L0.5 7L2 10.5L6 15L12 19L15.5 16.5L20.5 12.5L23 7L22.5 4Z" fill="#DF4058"/>
<path d="M12.0002 3.66405L10.9247 2.68139C8.4001 0.37473 3.77096 1.17073 2.09991 4.07072C1.31538 5.43471 1.13838 7.40404 2.57092 9.91737C3.95096 12.3374 6.82205 15.236 12.0002 18.3933C17.1784 15.236 20.048 12.3374 21.4295 9.91737C22.862 7.40271 22.6865 5.43471 21.9005 4.07072C20.2295 1.17073 15.6003 0.373397 13.0757 2.68006L12.0002 3.66405ZM12.0002 20C-11 6.49071 4.91849 -4.05326 11.7362 1.52406C11.8262 1.59739 11.9147 1.67339 12.0002 1.75206C12.0848 1.67346 12.1729 1.59785 12.2642 1.52539C19.0804 -4.05592 35.0004 6.48938 12.0002 20Z" fill="#FFFAFC"/>
</svg>
