<svg width="24" height="26" viewBox="0 0 24 26" fill="none" xmlns="http://www.w3.org/2000/svg">
<path fill-rule="evenodd" clip-rule="evenodd" d="M11.3723 2.5413C11.4114 2.51006 11.451 2.49934 11.4861 2.50003C11.5212 2.50073 11.5606 2.51306 11.5986 2.54598C12.4473 3.28093 14.0999 4.79298 15.6167 6.64493C17.1508 8.5179 18.4636 10.6406 18.7647 12.602C19.0281 14.3177 19.1418 15.2516 18.7757 16.8175C17.8485 20.7839 15.3089 23.6231 11.4834 23.7386C7.53349 23.8578 4.70078 20.9084 3.73603 16.8161C3.36715 15.2514 3.47734 14.3157 3.7469 12.605C4.0626 10.6015 5.46106 8.46694 7.09839 6.59628C8.71655 4.74752 10.4782 3.25642 11.3723 2.5413ZM12.5806 1.41209C11.9653 0.879224 11.0717 0.861001 10.4354 1.36987C9.50699 2.1124 7.66974 3.66601 5.96967 5.60835C4.28877 7.5288 2.64961 9.93178 2.26518 12.3715C1.98768 14.1326 1.83846 15.3041 2.27606 17.1603C3.34288 21.6856 6.62883 25.3858 11.5287 25.2379C16.2642 25.095 19.2139 21.5326 20.2364 17.159C20.6703 15.3024 20.5173 14.1328 20.2474 12.3744C19.8829 10.0006 18.3525 7.61777 16.7772 5.69447C15.1846 3.75015 13.4618 2.17522 12.5806 1.41209ZM12.2561 13.1125V11.4882H10.7561V13.1125C10.7561 13.1731 10.7341 13.2316 10.6942 13.2771L7.68906 16.7116C7.40993 17.0306 7.25607 17.4401 7.25607 17.864V19.4882H8.75607V17.864C8.75607 17.8034 8.77805 17.7449 8.81792 17.6993L11.8231 14.2649C12.1022 13.9459 12.2561 13.5364 12.2561 13.1125ZM15.2561 13.673V12.4882H13.7561V13.673C13.7561 13.7243 13.7403 13.7744 13.7109 13.8164L10.5724 18.2999C10.3665 18.594 10.2561 18.9444 10.2561 19.3035V20.4882H11.7561V19.3035C11.7561 19.2522 11.7718 19.2021 11.8013 19.1601L14.9397 14.6766C15.1456 14.3824 15.2561 14.0321 15.2561 13.673Z" fill="black"/>
</svg>
