<svg width="31" height="31" viewBox="0 0 31 31" fill="none" xmlns="http://www.w3.org/2000/svg">
<path fill-rule="evenodd" clip-rule="evenodd" d="M0.75 2.75C0.75 1.64543 1.64543 0.75 2.75 0.75H28.25C29.3546 0.75 30.25 1.64543 30.25 2.75V28.75C30.25 29.8546 29.3546 30.75 28.25 30.75H2.75C1.64543 30.75 0.75 29.8546 0.75 28.75V8.25V2.75ZM28.25 2.75H2.75V7.25H11.8358L14.3358 4.75C15.1168 3.96895 16.3832 3.96895 17.1642 4.75L19.6642 7.25H28.25V2.75ZM28.25 9.25H19.6642C19.1338 9.25 18.6251 9.03929 18.25 8.66421L15.75 6.16421L13.25 8.66421C12.8749 9.03929 12.3662 9.25 11.8358 9.25H2.75V28.75H11.25V22.75C11.25 21.6454 12.1454 20.75 13.25 20.75H17.75C18.8546 20.75 19.75 21.6454 19.75 22.75V28.75H28.25V9.25ZM17.75 28.75H13.25V22.75H17.75V28.75ZM6.75 14.25C7.30228 14.25 7.75 13.8023 7.75 13.25C7.75 12.6977 7.30228 12.25 6.75 12.25C6.19772 12.25 5.75 12.6977 5.75 13.25C5.75 13.8023 6.19772 14.25 6.75 14.25ZM24.75 13.25C24.75 13.8023 24.3023 14.25 23.75 14.25C23.1977 14.25 22.75 13.8023 22.75 13.25C22.75 12.6977 23.1977 12.25 23.75 12.25C24.3023 12.25 24.75 12.6977 24.75 13.25ZM15.75 14.25C16.3023 14.25 16.75 13.8023 16.75 13.25C16.75 12.6977 16.3023 12.25 15.75 12.25C15.1977 12.25 14.75 12.6977 14.75 13.25C14.75 13.8023 15.1977 14.25 15.75 14.25ZM7.75 17.25C7.75 17.8023 7.30228 18.25 6.75 18.25C6.19772 18.25 5.75 17.8023 5.75 17.25C5.75 16.6977 6.19772 16.25 6.75 16.25C7.30228 16.25 7.75 16.6977 7.75 17.25ZM23.75 18.25C24.3023 18.25 24.75 17.8023 24.75 17.25C24.75 16.6977 24.3023 16.25 23.75 16.25C23.1977 16.25 22.75 16.6977 22.75 17.25C22.75 17.8023 23.1977 18.25 23.75 18.25ZM7.75 21.25C7.75 21.8023 7.30228 22.25 6.75 22.25C6.19772 22.25 5.75 21.8023 5.75 21.25C5.75 20.6977 6.19772 20.25 6.75 20.25C7.30228 20.25 7.75 20.6977 7.75 21.25ZM23.75 22.25C24.3023 22.25 24.75 21.8023 24.75 21.25C24.75 20.6977 24.3023 20.25 23.75 20.25C23.1977 20.25 22.75 20.6977 22.75 21.25C22.75 21.8023 23.1977 22.25 23.75 22.25Z" fill="#717171"/>
</svg>
