<svg width="31" height="31" viewBox="0 0 31 31" fill="none" xmlns="http://www.w3.org/2000/svg">
<path fill-rule="evenodd" clip-rule="evenodd" d="M13.612 0.806835C14.779 -0.282311 16.5944 -0.266945 17.7428 0.841796L30.8769 13.523L29.4877 14.9618L28.1823 13.7015V29.2424V30.2424H27.1823H4.18232H3.18232V29.2424V13.277L1.36464 14.9735L0 13.5114L13.612 0.806835ZM16.3536 2.2806L26.1823 11.7704V28.2424H20.6823V18.2424C20.6823 16.5856 19.3392 15.2424 17.6823 15.2424H13.1823C11.5255 15.2424 10.1823 16.5856 10.1823 18.2424V28.2424H5.18232V11.4103L14.9767 2.26895C15.3656 1.9059 15.9708 1.91102 16.3536 2.2806ZM12.1823 28.2424H18.6823V18.2424C18.6823 17.6902 18.2346 17.2424 17.6823 17.2424H13.1823C12.63 17.2424 12.1823 17.6902 12.1823 18.2424V28.2424Z" fill="#717171"/>
</svg>
