<svg width="24" height="26" viewBox="0 0 24 26" fill="none" xmlns="http://www.w3.org/2000/svg">
<path fill-rule="evenodd" clip-rule="evenodd" d="M4.57997 4.82754C3.94226 3.12677 2.3164 2 0.5 2V2.25098H0.25V25.251H1.75V17.5008L6.50012 17.5L7.3151 17.4999L7.24741 16.6877L7.15052 15.5252C6.87733 12.2475 6.1531 9.02305 4.99832 5.94328L4.57997 4.82754ZM1.75 16.0008L5.6849 16.0001L5.6557 15.6498C5.39397 12.5096 4.70013 9.42046 3.59381 6.46991L3.17546 5.35417C2.91277 4.6536 2.39441 4.10154 1.75 3.78785V16.0008ZM11.5 17.251C10.1193 17.251 9 18.818 9 20.751C9 22.684 10.1193 24.251 11.5 24.251C12.8807 24.251 14 22.684 14 20.751C14 18.818 12.8807 17.251 11.5 17.251ZM10.75 2.25098V15.8358C9.79919 16.0551 9.03276 16.6747 8.51163 17.4042C7.85762 18.3199 7.5 19.5079 7.5 20.751C7.5 21.9941 7.85762 23.1821 8.51163 24.0977C9.16358 25.0104 10.1995 25.751 11.5 25.751C12.8005 25.751 13.8364 25.0104 14.4884 24.0977C15.1424 23.1821 15.5 21.9941 15.5 20.751C15.5 19.5079 15.1424 18.3199 14.4884 17.4042C13.9672 16.6747 13.2008 16.0551 12.25 15.8358V2.25098H10.75ZM20.3078 4.10575C20.1332 3.98107 19.9453 3.88421 19.75 3.81517V13.5182L20.7158 11.3349C21.068 10.5385 21.25 9.67736 21.25 8.80656V5.93665C21.25 5.21001 20.8991 4.5281 20.3078 4.10575ZM17.6922 4.10575C17.8668 3.98107 18.0547 3.88421 18.25 3.81517V13.6131L17.2599 11.3147C16.9235 10.5338 16.75 9.6924 16.75 8.84208V5.93665C16.75 5.21001 17.1009 4.5281 17.6922 4.10575ZM15.8823 11.9082L18.25 17.4046V25.7509H19.75V17.2261L22.0875 11.9417C22.5244 10.9542 22.75 9.88635 22.75 8.80656V5.93665C22.75 4.72558 22.1651 3.58907 21.1796 2.88515C19.8758 1.95382 18.1242 1.95382 16.8204 2.88515C15.8349 3.58907 15.25 4.72558 15.25 5.93665V8.84208C15.25 9.89648 15.4652 10.9398 15.8823 11.9082Z" fill="black"/>
</svg>
