<svg width="18" height="20" viewBox="0 0 18 20" fill="none" xmlns="http://www.w3.org/2000/svg">
<path fill-rule="evenodd" clip-rule="evenodd" d="M0 4V11.8C0 11.932 0.0246983 12.0598 0.0798712 12.1797C0.539219 13.1783 2.966 18 7 18C11.0725 18 13.0974 13.086 13.4454 12.1522C13.4829 12.0515 13.5 11.9452 13.5 11.8377V4C13.5 4 11.6432 4.25641 10.5 4C9.58613 3.79502 8.69781 3.12605 8.02281 2.61773C7.56323 2.27163 7.20253 2 7 2C6.80506 2 6.41503 2.25509 5.90993 2.58543C5.11951 3.10238 4.04731 3.80363 3 4C1.84849 4.21591 0 4 0 4ZM6.53033 13.0303L12.0303 7.53033L10.9697 6.46967L6 11.4393L3.53033 8.96967L2.46967 10.0303L5.46967 13.0303L6 13.5607L6.53033 13.0303Z" fill="black"/>
</svg>
