<svg width="26" height="25" viewBox="0 0 26 25" fill="none" xmlns="http://www.w3.org/2000/svg">
<g clip-path="url(#clip0_1461_4434)">
<path d="M25.4862 10.3123L24.236 5.31156C24.1872 5.12598 24.0211 4.99413 23.8307 4.99413H17.7654L13.3067 0.130145C13.1504 -0.0407777 12.8525 -0.0407777 12.6914 0.130145L8.23273 4.99413H2.16252C1.97206 4.99413 1.80602 5.12598 1.75719 5.31156L0.51189 10.3123C0.482588 10.4393 0.507006 10.5662 0.590026 10.6688C0.668162 10.7713 0.79025 10.8299 0.917222 10.8299H1.33232V24.5819C1.33232 24.8114 1.51789 24.997 1.74742 24.997H8.41342H10.0787V23.3317H10.4938C10.7233 23.3317 10.9089 23.1462 10.9089 22.9166C10.9089 22.6871 10.7233 22.5015 10.4938 22.5015H10.0787V17.9159C10.0787 17.6864 10.2643 17.5008 10.4938 17.5008H15.4945C15.724 17.5008 15.9096 17.6864 15.9096 17.9159V22.5015H15.4945C15.265 22.5015 15.0794 22.6871 15.0794 22.9166C15.0794 23.1462 15.265 23.3317 15.4945 23.3317H15.9096V24.997H17.5749H24.2409C24.4704 24.997 24.656 24.8114 24.656 24.5819V10.8299H25.0711C25.1981 10.8299 25.3202 10.7713 25.3983 10.6688C25.4911 10.5662 25.5204 10.4344 25.4862 10.3123ZM7.99837 24.1619H2.16257V23.3269H7.99837V24.1619ZM7.99837 22.4967H2.16257V10.8299H7.99837V22.4967ZM7.99837 9.99485H1.74747H1.44957L2.48976 5.82921H7.99837V9.99485ZM15.0843 15.8307H14.6692H11.3338H10.9187C10.6891 15.8307 10.5036 15.6451 10.5036 15.4156C10.5036 15.186 10.6891 15.0005 10.9187 15.0005V12.085C10.9187 11.8555 11.1042 11.6699 11.3338 11.6699H14.6692C14.8987 11.6699 15.0843 11.8555 15.0843 12.085V15.0005C15.3138 15.0005 15.4994 15.186 15.4994 15.4156C15.4994 15.6451 15.3138 15.8307 15.0843 15.8307ZM12.999 9.15977C11.6219 9.15977 10.4987 8.03656 10.4987 6.65941C10.4987 5.28226 11.6219 4.15905 12.999 4.15905C14.3762 4.15905 15.4994 5.28226 15.4994 6.65941C15.4994 8.04145 14.3762 9.15977 12.999 9.15977ZM23.8356 24.1619H17.9998V23.3269H23.8356V24.1619ZM23.8356 22.4967H17.9998V10.8299H23.8356V22.4967ZM24.2507 9.99485H17.9998V5.82921H23.5084L24.5486 9.99485H24.2507Z" fill="#717171"/>
<path d="M7.16326 14.9966V12.0811C7.16326 11.8516 6.97769 11.666 6.74816 11.666H3.41272C3.18319 11.666 2.99762 11.8516 2.99762 12.0811V14.9966C2.76809 14.9966 2.58252 15.1821 2.58252 15.4117C2.58252 15.6412 2.76809 15.8268 2.99762 15.8268H3.41272H6.74816H7.16326C7.39278 15.8268 7.57836 15.6412 7.57836 15.4117C7.58329 15.1821 7.39278 14.9966 7.16326 14.9966ZM4.66778 14.9966H4.6629H3.8327V12.4962H4.66778V14.9966ZM6.33306 14.9966H5.49798V12.4962H6.33306V14.9966Z" fill="#717171"/>
<path d="M7.16326 19.9966V17.0811C7.16326 16.8516 6.97769 16.666 6.74816 16.666H3.41272C3.18319 16.666 2.99762 16.8516 2.99762 17.0811V19.9966C2.76809 19.9966 2.58252 20.1821 2.58252 20.4117C2.58252 20.6412 2.76809 20.8268 2.99762 20.8268H3.41272H6.74816H7.16326C7.39278 20.8268 7.57836 20.6412 7.57836 20.4117C7.58329 20.1821 7.39278 19.9966 7.16326 19.9966ZM4.66778 19.9966H4.6629H3.8327V17.4962H4.66778V19.9966ZM6.33306 19.9966H5.49798V17.4962H6.33306V19.9966Z" fill="#717171"/>
<path d="M23.0004 14.9966V12.0811C23.0004 11.8516 22.8148 11.666 22.5853 11.666H19.2499C19.0204 11.666 18.8348 11.8516 18.8348 12.0811V14.9966C18.6053 14.9966 18.4197 15.1821 18.4197 15.4117C18.4197 15.6412 18.6053 15.8268 18.8348 15.8268H19.2499H22.5853H23.0004C23.2299 15.8268 23.4155 15.6412 23.4155 15.4117C23.4155 15.1821 23.2299 14.9966 23.0004 14.9966ZM20.5001 14.9966H19.665V12.4962H20.5001V14.9966ZM22.1653 14.9966H21.3303V12.4962H22.1653V14.9966Z" fill="#717171"/>
<path d="M23.0004 19.9966V17.0811C23.0004 16.8516 22.8148 16.666 22.5853 16.666H19.2499C19.0204 16.666 18.8348 16.8516 18.8348 17.0811V19.9966C18.6053 19.9966 18.4197 20.1821 18.4197 20.4117C18.4197 20.6412 18.6053 20.8268 18.8348 20.8268H19.2499H22.5853H23.0004C23.2299 20.8268 23.4155 20.6412 23.4155 20.4117C23.4155 20.1821 23.2299 19.9966 23.0004 19.9966ZM20.5001 19.9966H19.665V17.4962H20.5001V19.9966ZM22.1653 19.9966H21.3303V17.4962H22.1653V19.9966Z" fill="#717171"/>
<path d="M13.4141 5.05371V6.24529H14.6056C14.4543 5.66415 14.0001 5.2051 13.4141 5.05371Z" fill="#717171"/>
<path d="M14.2491 12.4961H13.4141V14.9965H14.2491V12.4961Z" fill="#717171"/>
<path d="M10.9138 18.3271V18.332V22.9177V24.998H15.0795V22.9128V18.3271H10.9138ZM14.2493 21.6626H13.8342C13.6046 21.6626 13.4191 21.477 13.4191 21.2475C13.4191 21.018 13.6046 20.8324 13.8342 20.8324H14.2493C14.4788 20.8324 14.6644 21.018 14.6644 21.2475C14.6644 21.477 14.4788 21.6626 14.2493 21.6626Z" fill="#717171"/>
<path d="M12.584 12.4961H11.7489V14.9965H12.584V12.4961Z" fill="#717171"/>
<path d="M11.3923 6.24529H12.5839V5.05371C11.9978 5.2051 11.5437 5.66415 11.3923 6.24529Z" fill="#717171"/>
<path d="M11.3923 7.08008C11.5437 7.66122 11.9979 8.12027 12.5839 8.27166V7.08008H11.3923Z" fill="#717171"/>
<path d="M13.4141 7.08008V8.27166C13.9952 8.12027 14.4543 7.66122 14.6056 7.08008H13.4141Z" fill="#717171"/>
</g>
<defs>
<clipPath id="clip0_1461_4434">
<rect width="25" height="25" fill="white" transform="translate(0.5)"/>
</clipPath>
</defs>
</svg>
