<svg width="24" height="26" viewBox="0 0 24 26" fill="none" xmlns="http://www.w3.org/2000/svg">
<path fill-rule="evenodd" clip-rule="evenodd" d="M1.75 1C0.783502 1 0 1.7835 0 2.75V7.75V8.20156L0.399084 8.41284L8.4312 12.6651C8.94339 12.9363 9.55661 12.9363 10.0688 12.6651L18.1009 8.41284L18.5 8.20156V7.75V2.75C18.5 1.7835 17.7165 1 16.75 1H1.75ZM1.5 2.75C1.5 2.61193 1.61193 2.5 1.75 2.5H16.75C16.8881 2.5 17 2.61193 17 2.75V7.29844L9.36697 11.3395C9.2938 11.3782 9.2062 11.3782 9.13303 11.3395L1.5 7.29844V2.75ZM9.25 24.75C12.2876 24.75 14.75 22.2876 14.75 19.25C14.75 16.2124 12.2876 13.75 9.25 13.75C6.21243 13.75 3.75 16.2124 3.75 19.25C3.75 22.2876 6.21243 24.75 9.25 24.75ZM13.25 19.25C13.25 21.4591 11.4591 23.25 9.25 23.25C7.04086 23.25 5.25 21.4591 5.25 19.25C5.25 17.0409 7.04086 15.25 9.25 15.25C11.4591 15.25 13.25 17.0409 13.25 19.25Z" fill="black"/>
</svg>
