<svg width="22" height="22" viewBox="0 0 22 22" fill="none" xmlns="http://www.w3.org/2000/svg">
<path fill-rule="evenodd" clip-rule="evenodd" d="M15.9142 13.7655L4.91421 2.76554C4.91421 2.76554 10.7072 -2.72422 15.9142 1.76554C21.1212 6.2553 15.9142 13.7655 15.9142 13.7655ZM14.2072 6.77557C15.0356 6.77557 15.7072 6.10399 15.7072 5.27557C15.7072 4.44714 15.0356 3.77557 14.2072 3.77557C13.3788 3.77557 12.7072 4.44714 12.7072 5.27557C12.7072 6.10399 13.3788 6.77557 14.2072 6.77557ZM2.00025 6.5L11.9539 16L10.4539 16.5L12.9539 20H10.9539L10.9539 22H8.95388L8.95387 20H6.95387L8.95387 16.5C8.95387 16.5 6.00006 16 4.00014 13.5C2.00022 11 1.50024 7 2.00025 6.5ZM7.62939e-05 2.48299L18.5001 20.983L19.9143 19.5688L1.41429 1.06877L7.62939e-05 2.48299Z" fill="#0047B3"/>
</svg>
