<svg width="22" height="22" viewBox="0 0 22 22" fill="none" xmlns="http://www.w3.org/2000/svg">
<path fill-rule="evenodd" clip-rule="evenodd" d="M1.29289 2.41421L19.7929 20.9142L21.2071 19.5L2.70711 1L1.29289 2.41421ZM19 13.7071C20.6569 13.7071 22 12.364 22 10.7071C22 9.05025 20.6569 7.70711 19 7.70711C17.3431 7.70711 16 9.05025 16 10.7071C16 12.364 17.3431 13.7071 19 13.7071ZM6 10.7071C6 12.364 4.65685 13.7071 3 13.7071C1.34315 13.7071 0 12.364 0 10.7071C0 9.05025 1.34315 7.70711 3 7.70711C4.65685 7.70711 6 9.05025 6 10.7071ZM6 2.70701L10.5 7.20711C10.5 7.20711 11.5 4.7071 10 3.20701C8.5 1.70693 6 2.70701 6 2.70701ZM16.4998 19.2071L8.49981 11.2071L4.99981 15.7071C4.99981 15.7071 4.72228 17.8092 5.49981 18.7071C6.07146 19.3672 6.64153 19.5462 7.49981 19.7071C8.20724 19.8398 8.73487 19.5297 9.26604 19.2176C9.78394 18.9133 10.3052 18.607 10.9998 18.7071C11.3354 18.7555 11.5735 18.8588 11.8195 18.9656C12.0215 19.0533 12.2288 19.1433 12.4998 19.2071C14.0204 19.5649 16.4998 19.2071 16.4998 19.2071ZM15 7.70711C16.6569 7.70711 18 6.36396 18 4.70711C18 3.05025 16.6569 1.70711 15 1.70711C13.3431 1.70711 12 3.05025 12 4.70711C12 6.36396 13.3431 7.70711 15 7.70711Z" fill="#0047B3"/>
</svg>
