<svg width="16" height="16" viewBox="0 0 16 16" fill="none" xmlns="http://www.w3.org/2000/svg">
<path fill-rule="evenodd" clip-rule="evenodd" d="M11.4362 10.8023C12.411 9.66558 13 8.18819 13 6.57324C13 2.98339 10.0899 0.0732422 6.5 0.0732422C2.91015 0.0732422 0 2.98339 0 6.57324C0 10.1631 2.91015 13.0732 6.5 13.0732C8.11495 13.0732 9.59234 12.4843 10.7291 11.5095L15.1464 15.9268L15.8536 15.2197L11.4362 10.8023ZM12 6.57324C12 9.61081 9.53757 12.0732 6.5 12.0732C3.46243 12.0732 1 9.61081 1 6.57324C1 3.53568 3.46243 1.07324 6.5 1.07324C9.53757 1.07324 12 3.53568 12 6.57324Z" fill="#252525"/>
</svg>
