<svg width="24" height="24" viewBox="0 0 24 24" fill="none" xmlns="http://www.w3.org/2000/svg">
<g clip-path="url(#clip0_102_19840)">
<path d="M21.1042 8.08359H21.2092V0H17.9992V5.65603L12 0.965672L0 10.3476V24H6.43125V21.1803H3.20738V11.6136L12 4.73831L20.7926 11.6136V21.1803V24H24V10.3476L21.1042 8.08359Z" fill="#727272"/>
<path d="M8.82056 24H15.1794V13.6126H8.82056V24ZM13.292 17.4368C13.9451 17.4368 14.4747 17.9375 14.4747 18.555C14.4747 19.1725 13.9451 19.6732 13.292 19.6732C12.6387 19.6732 12.1092 19.1725 12.1092 18.555C12.1092 17.9375 12.6387 17.4368 13.292 17.4368Z" fill="#727272"/>
</g>
<defs>
<clipPath id="clip0_102_19840">
<rect width="24" height="24" fill="white"/>
</clipPath>
</defs>
</svg>
