<svg width="13" height="24" viewBox="0 0 13 24" fill="none" xmlns="http://www.w3.org/2000/svg">
<path fill-rule="evenodd" clip-rule="evenodd" d="M9.5 0H0V1.5H5.75V2.5H5C4.0335 2.5 3.25 3.2835 3.25 4.25V5.57501C1.53832 5.92247 0.25 7.43578 0.25 9.25V19.75C0.25 21.8211 1.92893 23.5 4 23.5H9C11.0711 23.5 12.75 21.8211 12.75 19.75V9.25C12.75 7.43578 11.4617 5.92247 9.75 5.57501V4.25C9.75 3.2835 8.9665 2.5 8 2.5H7.25V1.5H9.5V0ZM8.25 5.5V4.25C8.25 4.11193 8.13807 4 8 4H6.5H5C4.86193 4 4.75 4.11193 4.75 4.25V5.5H8.25ZM1.75 11.5V14.5H11.25V11.5H1.75ZM11.25 10H1.75V9.25C1.75 8.00736 2.75736 7 4 7H9C10.2426 7 11.25 8.00736 11.25 9.25V10ZM11.25 16H1.75V19.75C1.75 20.9926 2.75736 22 4 22H9C10.2426 22 11.25 20.9926 11.25 19.75V16Z" fill="black"/>
</svg>
