<svg width="22" height="28" viewBox="0 0 22 28" fill="none" xmlns="http://www.w3.org/2000/svg">
<path fill-rule="evenodd" clip-rule="evenodd" d="M6 5C3.23858 5 1 7.23858 1 10V20C1 22.7614 3.23858 25 6 25H16C18.7614 25 21 22.7614 21 20V10C21 7.23858 18.7614 5 16 5H6ZM19 8C19 8.55228 18.5523 9 18 9C17.4477 9 17 8.55228 17 8C17 7.44772 17.4477 7 18 7C18.5523 7 19 7.44772 19 8ZM6 13.583C6.48939 11.8527 7.85274 10.4894 9.58302 10V12.0119C8.89547 12.3385 8.33852 12.8955 8.0119 13.583H6ZM12.417 10V12.0119C13.1045 12.3385 13.6615 12.8955 13.9881 13.583H16C15.5106 11.8527 14.1473 10.4894 12.417 10ZM13.9881 16.417C13.6615 17.1045 13.1045 17.6615 12.417 17.9881V20C14.1473 19.5106 15.5106 18.1473 16 16.417L13.9881 16.417ZM9.58302 17.9881C8.89547 17.6615 8.33852 17.1045 8.0119 16.417H6C6.48939 18.1473 7.85274 19.5106 9.58302 20V17.9881ZM11 16.417C11.7826 16.417 12.417 15.7826 12.417 15C12.417 14.2174 11.7826 13.583 11 13.583C10.2174 13.583 9.58303 14.2174 9.58303 15C9.58303 15.7826 10.2174 16.417 11 16.417Z" fill="#0047B3"/>
</svg>
