<svg width="24" height="26" viewBox="0 0 24 26" fill="none" xmlns="http://www.w3.org/2000/svg">
<path fill-rule="evenodd" clip-rule="evenodd" d="M4 1.75C2.75736 1.75 1.75 2.75736 1.75 4V13.5C1.75 14.7426 2.75736 15.75 4 15.75H20C21.2426 15.75 22.25 14.7426 22.25 13.5V4C22.25 2.75736 21.2426 1.75 20 1.75H4ZM0.25 4C0.25 1.92893 1.92893 0.25 4 0.25H20C22.0711 0.25 23.75 1.92893 23.75 4V13.5C23.75 15.5711 22.0711 17.25 20 17.25H16.25V18.25H17.5V19.75H6.5V18.25H7.75V17.25H4C1.92893 17.25 0.25 15.5711 0.25 13.5V4ZM9.25 18.25H14.75V17.25H9.25V18.25Z" fill="black"/>
</svg>
