<svg width="28" height="27" viewBox="0 0 28 27" fill="none" xmlns="http://www.w3.org/2000/svg">
<path fill-rule="evenodd" clip-rule="evenodd" d="M8.12244 0.280273H7.77312L7.54834 0.547667L0.40297 9.04767L0 9.52703L0.399781 10.0091L13.6698 26.0091L14.2584 26.7189L14.8334 25.9979L27.593 9.99789L27.9759 9.51775L27.5807 9.04767L27.0066 8.36473V8.28027H26.9356L20.4354 0.547667L20.2106 0.280273H19.8613H8.12244ZM20.342 2.76774L24.976 8.28027H19.0525L20.342 2.76774ZM19.0325 1.78027L17.512 8.28027H10.5061L8.95327 1.78027H19.0325ZM17.1611 9.78027H10.8645L14.0459 23.0972L17.1611 9.78027ZM15.7352 22.4613L25.848 9.78027H18.7016L15.7352 22.4613ZM7.64579 2.76283L8.96393 8.28027H3.00765L7.64579 2.76283ZM9.32228 9.78027H2.1588L12.2206 21.9121L9.32228 9.78027Z" fill="#0047B3"/>
</svg>
