<svg width="26" height="31" viewBox="0 0 26 31" fill="none" xmlns="http://www.w3.org/2000/svg">
<path d="M23.5222 2.83105L16.4631 0.546981C15.3428 0.184486 14.1749 0 13 0C11.8251 0 10.6572 0.184486 9.53686 0.546981L2.4778 2.83105C1.00277 3.30834 0 4.7103 0 6.29524V18.8521C0 21.1606 1.07073 23.3319 2.88458 24.7013L9.80011 29.9225C10.7272 30.6224 11.8485 31 13 31C14.1515 31 15.2728 30.6224 16.1999 29.9225L23.1154 24.7013C24.9293 23.3319 26 21.1606 26 18.8521V6.29524C26 4.7103 24.9972 3.30834 23.5222 2.83105ZM18.4319 13.7875L12.5822 19.7813C11.8899 20.4907 10.7674 20.4907 10.0752 19.7813L7.56813 17.2126C6.87582 16.5032 6.87582 15.3531 7.56813 14.6438C8.26044 13.9344 9.38287 13.9344 10.0751 14.6438L11.3286 15.9282L15.9248 11.2187C16.6171 10.5094 17.7396 10.5094 18.4318 11.2187C19.1242 11.928 19.1242 13.0781 18.4319 13.7875Z" fill="black"/>
</svg>
