<svg width="26" height="32" viewBox="0 0 26 32" fill="none" xmlns="http://www.w3.org/2000/svg">
<path fill-rule="evenodd" clip-rule="evenodd" d="M0.831632 13C1.45567 13.416 1.4555 13.4163 1.45534 13.4165L1.45555 13.4162L1.46119 13.408C1.46687 13.3997 1.47638 13.386 1.48972 13.3673C1.51642 13.3297 1.55842 13.2719 1.61571 13.1967C1.73033 13.0463 1.90587 12.8266 2.14219 12.5608C2.61535 12.0285 3.32895 11.3145 4.28163 10.6C6.18475 9.17266 9.03076 7.75 12.8316 7.75C16.6325 7.75 19.4785 9.17266 21.3816 10.6C22.3343 11.3145 23.0479 12.0285 23.5211 12.5608C23.7574 12.8266 23.9329 13.0463 24.0476 13.1967C24.1048 13.2719 24.1468 13.3297 24.1735 13.3673C24.1869 13.386 24.1964 13.3997 24.2021 13.408L24.2077 13.4162L24.2079 13.4165C24.2078 13.4163 24.2076 13.416 24.8316 13C25.4557 12.584 25.4555 12.5837 25.4552 12.5833L25.4547 12.5826L25.4534 12.5806L25.4497 12.5751L25.4378 12.5576C25.4278 12.5432 25.4139 12.5232 25.396 12.498C25.3602 12.4476 25.3084 12.3765 25.2407 12.2877C25.1053 12.11 24.9059 11.8609 24.6422 11.5642C24.1153 10.9715 23.3289 10.1855 22.2816 9.4C20.1848 7.82734 17.0308 6.25 12.8316 6.25C8.63251 6.25 5.47851 7.82734 3.38163 9.4C2.33432 10.1855 1.54792 10.9715 1.02108 11.5642C0.757396 11.8609 0.557932 12.11 0.422558 12.2877C0.354848 12.3765 0.303096 12.4476 0.267291 12.498C0.249386 12.5232 0.23546 12.5432 0.225513 12.5576L0.213574 12.5751L0.209839 12.5806L0.208531 12.5826L0.208016 12.5833C0.207798 12.5837 0.207594 12.584 0.831632 13ZM3.83163 16C4.46689 16.3987 4.46674 16.3989 4.4666 16.3991L4.47065 16.3928C4.4749 16.3863 4.48213 16.3752 4.49234 16.3599C4.51276 16.3292 4.54504 16.2818 4.58907 16.2199C4.67718 16.096 4.81201 15.9148 4.99263 15.6953C5.35456 15.2556 5.89641 14.667 6.61026 14.0789C8.03918 12.9016 10.1261 11.75 12.8316 11.75C15.5372 11.75 17.6241 12.9016 19.053 14.0789C19.7669 14.667 20.3087 15.2556 20.6706 15.6953C20.8513 15.9148 20.9861 16.096 21.0742 16.2199C21.1182 16.2818 21.1505 16.3292 21.1709 16.3599C21.1811 16.3752 21.1884 16.3863 21.1926 16.3928L21.1967 16.3991C21.1965 16.3989 21.1964 16.3987 21.8316 16C22.4669 15.6013 22.4667 15.601 22.4665 15.6007L22.4661 15.6L22.465 15.5983L22.4619 15.5935L22.4523 15.5785C22.4443 15.5661 22.4332 15.5491 22.419 15.5278C22.3906 15.4852 22.3497 15.4252 22.2965 15.3504C22.1901 15.2009 22.034 14.9914 21.8288 14.7422C21.4192 14.2444 20.8102 13.583 20.0068 12.9211C18.4012 11.5984 15.9881 10.25 12.8316 10.25C9.67513 10.25 7.26204 11.5984 5.65647 12.9211C4.85308 13.583 4.24406 14.2444 3.83443 14.7422C3.62928 14.9914 3.47316 15.2009 3.36676 15.3504C3.31354 15.4252 3.27268 15.4852 3.24427 15.5278C3.23006 15.5491 3.21896 15.5661 3.21098 15.5785L3.20134 15.5935L3.19827 15.5983L3.19718 15.6L3.19674 15.6007C3.19655 15.601 3.19637 15.6013 3.83163 16ZM7.50221 19.3359C7.50233 19.3357 7.50245 19.3354 6.83163 19C6.16081 18.6646 6.16095 18.6643 6.1611 18.664L6.16143 18.6634L6.16224 18.6618L6.16441 18.6575L6.17103 18.6445C6.17644 18.6341 6.18386 18.6198 6.19331 18.6021C6.21218 18.5667 6.23914 18.5174 6.2742 18.456C6.34426 18.3334 6.44701 18.1624 6.58259 17.959C6.85292 17.5535 7.25839 17.0126 7.8013 16.4697C8.88305 15.3879 10.5626 14.25 12.8316 14.25C15.1007 14.25 16.7802 15.3879 17.862 16.4697C18.4049 17.0126 18.8103 17.5535 19.0807 17.959C19.2163 18.1624 19.319 18.3334 19.3891 18.456C19.4241 18.5174 19.4511 18.5667 19.47 18.6021C19.4794 18.6198 19.4868 18.6341 19.4922 18.6445L19.4989 18.6575L19.501 18.6618L19.5018 18.6634L19.5022 18.664C19.5023 18.6643 19.5025 18.6646 18.8316 19C18.1608 19.3354 18.1609 19.3357 18.1611 19.3359L18.1593 19.3325L18.1464 19.308C18.1341 19.2848 18.1141 19.2483 18.0867 19.2002C18.0318 19.1041 17.947 18.9626 17.8326 18.791C17.6029 18.4465 17.2584 17.9874 16.8013 17.5303C15.883 16.6121 14.5626 15.75 12.8316 15.75C11.1007 15.75 9.78021 16.6121 8.86196 17.5303C8.40487 17.9874 8.06034 18.4465 7.83067 18.791C7.71626 18.9626 7.6315 19.1041 7.57656 19.2002C7.54912 19.2483 7.52921 19.2848 7.51683 19.308L7.50396 19.3325L7.50221 19.3359ZM15.8316 21.5C15.8316 23.1569 14.4885 24.5 12.8316 24.5C11.1748 24.5 9.83163 23.1569 9.83163 21.5C9.83163 19.8431 11.1748 18.5 12.8316 18.5C14.4885 18.5 15.8316 19.8431 15.8316 21.5ZM12.8316 23C13.6601 23 14.3316 22.3284 14.3316 21.5C14.3316 20.6716 13.6601 20 12.8316 20C12.0032 20 11.3316 20.6716 11.3316 21.5C11.3316 22.3284 12.0032 23 12.8316 23Z" fill="black"/>
</svg>
